<svg xmlns="http://www.w3.org/2000/svg" xmlns:xlink="http://www.w3.org/1999/xlink" width="109" height="109" viewBox="0 0 109 109">
  <defs>
    <clipPath id="clip-path">
      <rect id="Rect치ngulo_35046" data-name="Rect치ngulo 35046" width="72.448" height="92.241" fill="none"/>
    </clipPath>
  </defs>
  <g id="Grupo_80961" data-name="Grupo 80961" transform="translate(-741 -6977)">
    <rect id="Rect치ngulo_35045" data-name="Rect치ngulo 35045" width="109" height="109" transform="translate(741 6977)" fill="none"/>
    <g id="Grupo_80963" data-name="Grupo 80963" transform="translate(759 6985)">
      <g id="Grupo_80961-2" data-name="Grupo 80961" clip-path="url(#clip-path)">
        <path id="Trazado_118743" data-name="Trazado 118743" d="M5.594,92.24a65,65,0,0,1,1.66-6.322c2.9-10.531,5.853-21.049,8.756-31.58a.917.917,0,0,1,1.085-.816c4.892.028,9.784,0,14.676.032.744,0,1.039-.106,1.008-.955-.073-2-.021-2-2.013-2q-10.489,0-20.979,0A9.529,9.529,0,0,1,.28,43.324,13.639,13.639,0,0,1,0,40.287c-.012-.527.167-.648.665-.642,2.161.025,4.322-.01,6.482.025.593.01.886-.085.8-.758a14.858,14.858,0,0,1,1.579-7.873c2.917-6.755,5.7-13.568,8.5-20.373a1.059,1.059,0,0,1,1.183-.77c3.932.028,7.863,0,11.8.027.574,0,.75-.129.748-.73a30.812,30.812,0,0,1,.1-4.585A5.418,5.418,0,0,1,42.56,4.587a26.694,26.694,0,0,1,.095,4.4c-.012.726.136.947.911.939,4.562-.043,9.124,0,13.685-.041.7-.006.945.226,1.157.869,2.588,7.842,5.215,15.672,7.825,23.507.488,1.463.186,2.977.211,4.466.012.71.118.985.909.945,1.467-.074,2.94-.014,4.411-.027.4,0,.637.005.668.546a9.64,9.64,0,0,1-7.379,10.148,10.974,10.974,0,0,1-2.59.257c-6.633,0-13.266.011-19.9-.02-.753,0-.946.193-.927.939.053,2.017.016,2.017,1.994,2.017,4.592,0,9.184.012,13.776-.015a.825.825,0,0,1,.973.729Q63.528,72.9,68.718,91.543a1.3,1.3,0,0,1,.1.7Zm48.448-44.7c3.234.089,6.472.132,9.7-.012a6.3,6.3,0,0,0,5.312-4.25c.157-.508.059-.618-.443-.616-3.955.022-7.91.027-11.865.036-.329-.01-.659-.029-.988-.029q-25.746,0-51.493,0c-1.177,0-1.217.037-.7,1.1a6.329,6.329,0,0,0,6.1,3.824q21.83,0,43.661,0c.239,0,.478-.031.716-.048M64.7,89.2c.378-.28.1-.592.025-.876q-4.29-15.5-8.57-31.007c-.194-.709-.546-.773-1.138-.772q-17.285.016-34.571.01c-.269,0-.538.024-.808.036-.659-.111-1.14-.123-1.381.76Q14.04,72.725,9.744,88.078c-.323,1.162-.315,1.165.871,1.165q26.548,0,53.1,0c.329,0,.658-.027.986-.042M32.208,39.656H53.185c.2,0,.368-.039.358-.283-.064-1.494.268-3.024-.158-4.478-2.07-7.065-4.2-14.112-6.281-21.175a.947.947,0,0,0-1.1-.833q-12.424.036-24.849,0A1.068,1.068,0,0,0,20,13.7c-2.576,6.252-5.126,12.517-7.81,18.723a13.4,13.4,0,0,0-1.27,6.33c.049.744.2.926.945.922,6.782-.031,13.565-.018,20.347-.018m27.753,0c.96,0,1.92.006,2.88,0,.25,0,.616.089.6-.328-.042-1.464.3-2.975-.157-4.384-2.331-7.146-4.734-14.268-7.095-21.4a.785.785,0,0,0-.9-.629c-1.469.031-2.941.05-4.409,0-.814-.031-.861.231-.649.928,1.326,4.354,2.659,8.706,3.9,13.086,1.124,3.979,2.927,7.834,2.43,12.14-.055.481.153.621.615.608.929-.028,1.86-.009,2.79-.009M39.658,7.631c0-.937.031-1.627-.007-2.315A2.447,2.447,0,0,0,34.764,5.3c-.039.717-.037,1.439-.013,2.158.026.8-.345,1.857.155,2.317.429.395,1.475.133,2.248.134.8,0,1.878.279,2.343-.127.538-.47.093-1.572.161-2.149m-2.441,45.9c1.488,0,1.488,0,1.488-1.345,0-1.589,0-1.589-1.6-1.589-1.4,0-1.4,0-1.4,1.433,0,1.5,0,1.5,1.512,1.5" transform="translate(0 0)" fill="#040403"/>
        <path id="Trazado_118744" data-name="Trazado 118744" d="M54.108,65.566c-6.782,0-13.565-.013-20.347.018-.742,0-.9-.179-.946-.922a13.4,13.4,0,0,1,1.27-6.33c2.684-6.206,5.234-12.47,7.81-18.723a1.068,1.068,0,0,1,1.161-.815q12.424.04,24.849,0a.947.947,0,0,1,1.1.833c2.078,7.063,4.211,14.11,6.281,21.175.426,1.454.094,2.985.158,4.478.01.244-.162.284-.358.283H54.108m1.511-11.424c0,1.95.016,3.9-.011,5.849-.007.513.153.665.663.661q4.813-.03,9.626,0c.495,0,.682-.121.673-.649-.029-1.889-.036-3.78,0-5.669.012-.593-.212-.692-.73-.679-1.259.032-2.521.06-3.777-.008-.775-.042-1.105.147-.985.968.094.645-.256,1.464.148,1.914.379.421,1.188.117,1.807.133.376.009.523.1.527.5,0,.44-.208.474-.552.471-1.259-.012-2.52-.034-3.778.009-.563.019-.619-.22-.613-.685.022-1.829.041-3.66-.008-5.489-.018-.666.22-.776.815-.766,2.129.035,4.258-.005,6.387.026.583.009.779-.147.758-.752-.045-1.348-.037-2.7,0-4.048.014-.54-.132-.789-.7-.71a4.619,4.619,0,0,1-.629,0c-1.681,0-1.722,0-1.674,1.682.02.7-.192.838-.847.824-2.038-.044-4.079.016-6.117-.033-.743-.018-1.047.1-1.01.955.079,1.826.024,3.658.024,5.488m-8.349.135-.015-.193c1.491-.5,2.97-1.038,4.477-1.484.7-.209,1.045-.491.967-1.287-.084-.862-.019-1.737-.019-2.607,0-1.49,0-1.49-1.525-1.49-1.488,0-1.57.006-1.459,1.521a1.493,1.493,0,0,1-1.309,1.858c-1.677.441-1.656.52-1.656-1.186,0-2.212,0-2.183-2.173-2.209-.668-.008-.858.16-.851.844.036,3.6.017,7.2.017,10.8,0,2.359,0,2.335,2.346,2.291.6-.011.688-.231.671-.744-.035-1.016-.01-2.034-.01-3.128.809.261,1.536.526,2.28.726a.8.8,0,0,1,.676.941c-.01.7-.338,1.628.14,2.06s1.382.059,2.092.138c.664.074.8-.215.774-.816-.044-1.138-.051-2.28,0-3.417a.9.9,0,0,0-.757-1.075c-1.568-.472-3.113-1.019-4.668-1.537m.169-14.5H45.28c-2.183,0-2.16,0-2.125,2.2.011.684.278.879.918.869,1.769-.028,3.539.011,5.308-.015,2.619-.038,2.2.493,2.253-2.391.01-.514-.188-.681-.686-.67-1.169.024-2.339.008-3.508.007m9.77,1.565a4.919,4.919,0,0,1,0-.605c.1-.717-.143-1-.921-.978-1.778.043-1.779,0-1.778,1.819,0,.269,0,.538.006.807.005.183.032.4.254.411a4.3,4.3,0,0,0,2.2-.1c.5-.258.14-.941.233-1.356" transform="translate(-21.9 -25.909)" fill="#dedee0"/>
        <path id="Trazado_118745" data-name="Trazado 118745" d="M83.926,202.885c-.329.014-.658.042-.986.042q-26.548,0-53.1,0c-1.185,0-1.193,0-.871-1.165q4.263-15.362,8.509-30.729c.242-.883.722-.871,1.382-.76,2.02,1.482,4.059,2.938,6.051,4.457.835.637,1.885,1.027,2.437,2.009-.287.305-.578.607-.861.916a13.373,13.373,0,0,0,13.245,21.9,13.476,13.476,0,0,0,8.968-7.559,2.605,2.605,0,0,1,1.005.573q2.736,1.956,5.451,3.939,4.386,3.187,8.766,6.381M37.3,187.022c.335.111.443-.121.528-.462.181-.726.4-1.443.6-2.165.787-2.828,1.58-5.656,2.348-8.49.079-.292.428-.749-.117-.911-.8-.236-1.646-.771-2.4-.53-.543.173-.423,1.164-.654,1.772-.042.112-.071.229-.1.344q-1.248,4.5-2.492,9.009c-.088.321-.352.707.225.865l2.064.567m-1.424,5.866c.127-.011.233-.1.286-.309.194-.75.388-1.5.609-2.242.1-.345-.089-.379-.337-.473-2.4-.913-2.41-.913-3.054,1.566a4.3,4.3,0,0,0-.1.434.274.274,0,0,0,.191.349c.774.218,1.549.434,2.405.674" transform="translate(-19.229 -113.685)" fill="#fd5023"/>
        <path id="Trazado_118746" data-name="Trazado 118746" d="M67.6,176.754c-.552-.982-1.6-1.372-2.437-2.009-1.991-1.519-4.03-2.975-6.051-4.457.269-.013.538-.036.807-.036q17.286,0,34.571-.01c.593,0,.944.063,1.138.772q4.251,15.513,8.57,31.007c.079.284.353.6-.025.876q-4.383-3.191-8.766-6.381-2.72-1.977-5.451-3.939a2.611,2.611,0,0,0-1.006-.573,13.74,13.74,0,0,0,.8-8.27A13.369,13.369,0,0,0,76.584,173.21a13.162,13.162,0,0,0-8.981,3.544" transform="translate(-39.481 -113.699)" fill="#c92a00"/>
        <path id="Trazado_118747" data-name="Trazado 118747" d="M60.578,133.326c-.239.017-.478.048-.716.048q-21.83,0-43.661,0a6.33,6.33,0,0,1-6.1-3.824c-.516-1.061-.477-1.1.7-1.1H62.3c.329,0,.659.02.988.03a5.216,5.216,0,0,1-.672,2.2,20.2,20.2,0,0,1-2.035,2.645m-40.712-.888h1.8c2.265,0,2.246,0,2.213-2.28-.008-.583-.178-.784-.769-.772-1.645.032-3.291.011-4.938.011-2.324,0-2.307,0-2.252,2.325.013.538.162.744.718.726,1.076-.035,2.155-.01,3.232-.01M29.807,131c0-1.6,0-1.6-1.623-1.6a1.62,1.62,0,0,1-.269,0c-.838-.144-1.06.217-1.039,1.034.052,2.028.014,2,2.039,2.024.717.01,1-.208.9-.914a3.834,3.834,0,0,1,0-.539" transform="translate(-6.537 -85.789)" fill="#ccb7aa"/>
        <path id="Trazado_118748" data-name="Trazado 118748" d="M160.747,65.587c-.93,0-1.86-.019-2.789.009-.462.014-.671-.127-.615-.608.5-4.306-1.306-8.161-2.43-12.14-1.237-4.379-2.57-8.732-3.9-13.086-.213-.7-.165-.959.649-.928,1.468.054,2.94.035,4.409,0a.785.785,0,0,1,.9.629c2.361,7.136,4.764,14.258,7.095,21.4.459,1.409.116,2.92.157,4.384.012.418-.354.326-.6.329-.96.009-1.92,0-2.88,0" transform="translate(-100.787 -25.934)" fill="#88878f"/>
        <path id="Trazado_118749" data-name="Trazado 118749" d="M162.708,133.316a20.18,20.18,0,0,0,2.035-2.645,5.215,5.215,0,0,0,.672-2.2c3.955-.01,7.91-.014,11.865-.036.5,0,.6.108.443.616a6.3,6.3,0,0,1-5.312,4.25c-3.231.143-6.468.1-9.7.012" transform="translate(-108.667 -85.779)" fill="#ae9990"/>
        <path id="Trazado_118750" data-name="Trazado 118750" d="M109.316,13.658c-.068.577.377,1.679-.161,2.149-.465.406-1.538.128-2.343.127-.773,0-1.819.26-2.248-.134-.5-.46-.129-1.519-.155-2.317-.024-.718-.026-1.44.013-2.158a2.448,2.448,0,0,1,4.887.018c.037.688.006,1.378.006,2.315" transform="translate(-69.658 -6.027)" fill="#fdfdfd"/>
        <path id="Trazado_118751" data-name="Trazado 118751" d="M109.012,155.286c-1.512,0-1.512,0-1.512-1.5,0-1.433,0-1.433,1.4-1.433,1.6,0,1.6,0,1.6,1.589,0,1.345,0,1.345-1.488,1.345" transform="translate(-71.795 -101.75)" fill="#ae9990"/>
        <path id="Trazado_118752" data-name="Trazado 118752" d="M101.465,67.038c0-1.83.054-3.661-.024-5.488-.037-.851.267-.972,1.01-.955,2.038.049,4.078-.011,6.117.033.654.014.867-.128.847-.823-.048-1.681-.008-1.682,1.673-1.682a4.619,4.619,0,0,0,.629,0c.567-.078.713.17.7.71-.035,1.349-.043,2.7,0,4.048.021.6-.176.76-.759.752-2.128-.031-4.258.009-6.387-.026-.6-.01-.833.1-.816.766.049,1.828.03,3.659.008,5.488-.006.465.051.7.613.685,1.258-.043,2.518-.021,3.778-.009.344,0,.556-.031.552-.471,0-.406-.152-.5-.527-.505-.618-.015-1.428.289-1.807-.133-.4-.449-.053-1.268-.147-1.914-.12-.82.211-1.01.985-.968,1.256.068,2.519.04,3.777.008.518-.013.742.086.73.679-.039,1.889-.032,3.779,0,5.668.008.528-.178.652-.674.649q-4.813-.028-9.626,0c-.51,0-.669-.149-.662-.662.026-1.949.011-3.9.011-5.849" transform="translate(-67.747 -38.806)" fill="#070707"/>
        <path id="Trazado_118753" data-name="Trazado 118753" d="M69.215,71.176c1.554.517,3.1,1.065,4.668,1.537a.9.9,0,0,1,.757,1.075c-.054,1.137-.047,2.279,0,3.417.024.6-.11.889-.774.816-.71-.079-1.623.286-2.091-.138s-.151-1.356-.141-2.06a.8.8,0,0,0-.676-.941c-.744-.2-1.471-.464-2.28-.726,0,1.094-.024,2.112.01,3.128.018.514-.076.733-.671.744-2.347.044-2.346.068-2.346-2.291,0-3.6.02-7.2-.017-10.8-.007-.684.183-.852.851-.844,2.173.026,2.173,0,2.173,2.209,0,1.706-.021,1.627,1.656,1.186a1.493,1.493,0,0,0,1.309-1.858c-.111-1.515-.028-1.521,1.459-1.521,1.525,0,1.525,0,1.525,1.49,0,.87-.065,1.746.019,2.607.078.8-.264,1.078-.967,1.287-1.506.446-2.986.984-4.477,1.484l.015.193" transform="translate(-43.845 -42.809)" fill="#050505"/>
        <path id="Trazado_118754" data-name="Trazado 118754" d="M68.261,41.742c1.169,0,2.339.017,3.508-.007.5-.01.7.156.687.67-.054,2.884.366,2.353-2.253,2.391-1.769.026-3.539-.013-5.308.014-.64.01-.907-.184-.918-.868-.035-2.2-.058-2.2,2.125-2.2h2.159" transform="translate(-42.722 -27.873)" fill="#fdfdfd"/>
        <path id="Trazado_118755" data-name="Trazado 118755" d="M100.887,43.284c-.093.416.266,1.1-.233,1.356a4.3,4.3,0,0,1-2.2.1c-.222-.012-.249-.228-.254-.411-.008-.269-.006-.538-.006-.807,0-1.817,0-1.777,1.778-1.819.778-.019,1.021.262.921.978a4.92,4.92,0,0,0,0,.605" transform="translate(-65.579 -27.849)" fill="#fdfdfd"/>
        <path id="Trazado_118756" data-name="Trazado 118756" d="M76.026,182.721a13.165,13.165,0,0,1,8.981-3.544A13.369,13.369,0,0,1,98.179,189.7a13.74,13.74,0,0,1-.8,8.27,13.475,13.475,0,0,1-8.968,7.559,13.373,13.373,0,0,1-13.245-21.9c.282-.309.574-.61.861-.916m2.826,1.613a6.869,6.869,0,0,0-.715.524,10.2,10.2,0,0,0-3.21,9.784,10.389,10.389,0,1,0,14.9-11.353c-3.608-1.823-8.28-1.378-10.975,1.045" transform="translate(-47.904 -119.666)" fill="#040200"/>
        <path id="Trazado_118757" data-name="Trazado 118757" d="M49.527,195.43l-2.064-.567c-.576-.158-.313-.544-.225-.865q1.241-4.506,2.492-9.01c.032-.115.06-.232.1-.344.23-.608.111-1.6.653-1.772.756-.241,1.605.294,2.4.529.545.162.2.619.117.911-.767,2.834-1.56,5.661-2.347,8.49-.2.722-.422,1.438-.6,2.165-.085.341-.193.573-.528.462" transform="translate(-31.458 -122.093)" fill="#fefbfa"/>
        <path id="Trazado_118758" data-name="Trazado 118758" d="M44.884,231.257c-.856-.239-1.631-.456-2.405-.674a.274.274,0,0,1-.191-.349,4.3,4.3,0,0,1,.1-.434c.644-2.479.651-2.479,3.054-1.566.248.094.44.128.337.473-.222.742-.416,1.493-.609,2.242-.052.2-.159.3-.286.309" transform="translate(-28.238 -152.055)" fill="#fefbfa"/>
        <path id="Trazado_118759" data-name="Trazado 118759" d="M32.16,134.312c-1.077,0-2.156-.025-3.232.01-.556.018-.705-.188-.718-.726-.055-2.326-.072-2.325,2.252-2.325,1.646,0,3.292.021,4.938-.011.591-.012.761.189.769.773.032,2.28.052,2.28-2.213,2.28h-1.8" transform="translate(-18.831 -87.663)" fill="#fefbfa"/>
        <path id="Trazado_118760" data-name="Trazado 118760" d="M64.165,132.834a3.834,3.834,0,0,0,0,.539c.1.706-.179.924-.9.914-2.025-.027-1.987,0-2.039-2.024-.021-.817.2-1.178,1.039-1.034a1.62,1.62,0,0,0,.269,0c1.623,0,1.623,0,1.623,1.6" transform="translate(-40.895 -87.622)" fill="#fdfdfd"/>
        <path id="Trazado_118761" data-name="Trazado 118761" d="M100.895,206.414a10.377,10.377,0,0,1-19.955-1.4,10.2,10.2,0,0,1,3.21-9.784,6.845,6.845,0,0,1,.716-.524,53.833,53.833,0,0,0,5.212,3.861c-.249.1-.5.186-.748.3a4.437,4.437,0,0,0-2.629,4.415,4.368,4.368,0,0,0,3.1,3.892,4.447,4.447,0,0,0,5.771-4.531l5.319,3.778" transform="translate(-53.917 -130.035)" fill="#fcd34e"/>
        <path id="Trazado_118762" data-name="Trazado 118762" d="M109.208,202.063l-5.319-3.778c-.722-1.411.035-2.31,1.064-3.134a11.473,11.473,0,0,0,.893-.883c1.65-1.651,1.639-1.639-.1-3.269-.351-.33-.54-.315-.859.015-1.019,1.053-2.069,2.077-3.1,3.115-.235.236-.428.475-.837.292a4.732,4.732,0,0,0-2.561-.207,53.836,53.836,0,0,1-5.212-3.861c2.695-2.423,7.367-2.868,10.975-1.045a10.364,10.364,0,0,1,5.055,12.755" transform="translate(-62.23 -125.684)" fill="#fbb000"/>
        <path id="Trazado_118763" data-name="Trazado 118763" d="M102.063,199.382a4.732,4.732,0,0,1,2.561.207c.41.183.6-.056.838-.292,1.034-1.039,2.084-2.062,3.1-3.115.319-.329.508-.344.859-.014,1.735,1.63,1.746,1.618.1,3.269a11.363,11.363,0,0,1-.893.883c-1.03.823-1.787,1.722-1.064,3.134a4.447,4.447,0,0,1-5.772,4.531,4.369,4.369,0,0,1-3.1-3.892,4.436,4.436,0,0,1,2.629-4.415c.244-.109.5-.2.748-.3m2.527,4.362a1.482,1.482,0,0,0-2.962-.029,1.481,1.481,0,1,0,2.962.029" transform="translate(-65.903 -130.852)" fill="#030201"/>
        <path id="Trazado_118764" data-name="Trazado 118764" d="M110.52,216.555a1.481,1.481,0,1,1-2.962-.029,1.482,1.482,0,0,1,2.962.029" transform="translate(-71.834 -143.663)" fill="#fd5023"/>
      </g>
    </g>
  </g>
</svg>
