<svg xmlns="http://www.w3.org/2000/svg" xmlns:xlink="http://www.w3.org/1999/xlink" width="109" height="109" viewBox="0 0 109 109">
  <defs>
    <clipPath id="clip-path">
      <rect id="Rect치ngulo_35049" data-name="Rect치ngulo 35049" width="91.689" height="91.676" fill="none"/>
    </clipPath>
  </defs>
  <g id="Grupo_80969" data-name="Grupo 80969" transform="translate(-741 -6977)">
    <rect id="Rect치ngulo_35045" data-name="Rect치ngulo 35045" width="109" height="109" transform="translate(741 6977)" fill="none"/>
    <g id="Grupo_80975" data-name="Grupo 80975" transform="translate(750 6986)">
      <g id="Grupo_80975-2" data-name="Grupo 80975" clip-path="url(#clip-path)">
        <path id="Trazado_118812" data-name="Trazado 118812" d="M0,78.976c.365-.36.293-.866.43-1.3a10.724,10.724,0,0,1,3.529-5.347c2-1.592,4.049-3.121,6.06-4.7a1.513,1.513,0,0,1,2.155.057,1.564,1.564,0,0,1-.611,2.093C9.71,71.173,7.871,72.588,6.03,74A8.339,8.339,0,1,0,17.718,85.633c2.061-2.73,4.16-5.432,6.241-8.147q4.37-5.7,8.743-11.4c.273-.355.393-.654.026-1.008q-1.51-1.455-3.01-2.92c-1.04-1.065-2.086-2.125-3.116-3.2-.366-.381-.653-.234-1,.034-2.241,1.73-4.516,3.416-6.728,5.182a1.84,1.84,0,0,1-2.417.284c-.373-1.334-.307-1.519.842-2.4q3.407-2.612,6.816-5.222a1.042,1.042,0,0,0,.556-.93,1.914,1.914,0,0,1,.616-1.443,20.338,20.338,0,0,1,2.98-2.822c.382-.253.426-.634.549-.979a175.466,175.466,0,0,1,10.029-22.95A151.717,151.717,0,0,1,56.239,1.252,6.618,6.618,0,0,1,57.667,0h.9a5.818,5.818,0,0,1,1.848,1.428Q75.468,16.495,90.532,31.553c1.587,1.587,1.554,2.523-.176,3.955a156.847,156.847,0,0,1-33.571,20.9c-5.115,2.407-10.349,4.524-15.671,6.426a2.873,2.873,0,0,0-1.323.943,33.741,33.741,0,0,1-2.632,2.673,1.358,1.358,0,0,1-.927.5c-.867-.037-1.295.505-1.76,1.115-4.81,6.3-9.652,12.582-14.459,18.887A10.988,10.988,0,0,1,.341,83.417c-.073-.294-.008-.661-.341-.859v-.9a2.378,2.378,0,0,0,0-1.97ZM28.477,54.984C27.3,56,27.3,56,28.35,57.048l6.294,6.294c1.049,1.049,1.049,1.049,2.064-.127.9-.779.9-.779.1-1.58l-6.746-6.746c-.8-.8-.8-.8-1.58.1M83.829,28.623c-.114-.134-.218-.278-.342-.4Q71.126,15.856,58.763,3.494c-.105-.105-.215-.207-.317-.315-.086-.092-.21-.187-.3-.088A6.71,6.71,0,0,0,57.082,4.4c-.188.369.325.564.553.793q8.617,8.647,17.253,17.275c.878.879.933,1.265.362,2.257-1.02.526-1.323.469-2.254-.462Q64.572,15.844,56.152,7.422c-.847-.847-.844-.846-1.538.079A160.03,160.03,0,0,0,39.372,32.484,170.427,170.427,0,0,0,31.326,51.45c-.124.351-.364.672.027,1.051,1.671,1.618,3.318,3.261,4.974,4.894.81.832,1.664,1.627,2.414,2.51a1.359,1.359,0,0,0,1.768.4A175.63,175.63,0,0,0,73.2,44.582,134.206,134.206,0,0,0,84.554,36.8c.242-.186.717-.3.226-.766-1.441-1.381-2.852-2.8-4.275-4.2-.342-.363-.68-.73-1.025-1.089-.826-.858-.869-1.234-.242-2.235a1.507,1.507,0,0,1,2.063.351c.338.369.725.693,1.09,1.037q1.912,1.942,3.825,3.883c1.066,1.075,1.06,1.06,2.184-.021.26-.25.273-.381.018-.629-1.537-1.5-3.06-3.008-4.588-4.514" fill="#030303"/>
        <path id="Trazado_118813" data-name="Trazado 118813" d="M0,243.094a2.38,2.38,0,0,1,0,1.97Z" transform="translate(0 -163.402)" fill="#232323"/>
        <path id="Trazado_118814" data-name="Trazado 118814" d="M21.841,184.868a1.84,1.84,0,0,0,2.417-.284c2.212-1.766,4.487-3.452,6.728-5.182.347-.268.635-.414,1-.034,1.031,1.074,2.077,2.134,3.117,3.2-.529.561-1.071,1.112-1.586,1.686q-3.8,4.233-7.592,8.479c-1.282,1.437-2.515,2.919-3.835,4.319a9.894,9.894,0,0,1-1.991,1.972c-.108-.143-.215-.286-.323-.428a4.746,4.746,0,0,0-8.516,2.832,5.611,5.611,0,0,0,1.342,3.5,19.057,19.057,0,0,1-3.626.006,8.277,8.277,0,0,1,2.439-10.526c1.841-1.411,3.68-2.825,5.532-4.221a1.564,1.564,0,0,0,.611-2.093,49.615,49.615,0,0,1,4.283-3.227" transform="translate(-5.385 -120.412)" fill="#765045"/>
        <path id="Trazado_118815" data-name="Trazado 118815" d="M100.175,71.331c-1.656-1.634-3.3-3.276-4.974-4.894-.391-.379-.151-.7-.027-1.051A170.468,170.468,0,0,1,103.22,46.42a160.045,160.045,0,0,1,15.243-24.984c.693-.925.69-.926,1.537-.079q8.421,8.421,16.843,16.841c.932.931,1.234.988,2.254.462.262.239.525.476.785.717a43.415,43.415,0,0,0,3.2,3.073c-.627,1-.585,1.376.242,2.234.346.359.684.726,1.025,1.089-.384.277-.786.531-1.149.833-3.146,2.62-6.372,5.135-9.738,7.469A148.574,148.574,0,0,1,118.3,63.26c-4.683,2.48-9.548,4.566-14.451,6.57a17.584,17.584,0,0,0-3.674,1.5" transform="translate(-63.847 -13.936)" fill="#e0edf9"/>
        <path id="Trazado_118816" data-name="Trazado 118816" d="M110.813,122.678a17.584,17.584,0,0,1,3.674-1.5c4.9-2,9.768-4.09,14.451-6.57a148.573,148.573,0,0,0,15.166-9.183c3.366-2.334,6.591-4.849,9.738-7.469.363-.3.765-.557,1.149-.833,1.423,1.4,2.834,2.815,4.275,4.2.491.47.016.581-.226.766a134.129,134.129,0,0,1-11.355,7.78A175.6,175.6,0,0,1,115,125.587a1.358,1.358,0,0,1-1.768-.4c-.75-.883-1.6-1.677-2.414-2.51" transform="translate(-74.486 -65.283)" fill="#caddeb"/>
        <path id="Trazado_118817" data-name="Trazado 118817" d="M22.076,206.057a9.892,9.892,0,0,0,1.99-1.972c1.32-1.4,2.553-2.882,3.835-4.319q3.788-4.247,7.592-8.479c.515-.574,1.057-1.124,1.586-1.685q1.5,1.46,3.009,2.92c.368.354.247.654-.026,1.008q-4.381,5.693-8.743,11.4c-2.081,2.715-4.179,5.417-6.241,8.147a8.336,8.336,0,0,1-14.127-1.109,19,19,0,0,0,3.625-.006,1.94,1.94,0,0,1,.381.227,4.838,4.838,0,0,0,6.074-.016,4.727,4.727,0,0,0,1.043-6.119" transform="translate(-7.362 -127.446)" fill="#524640"/>
        <path id="Trazado_118818" data-name="Trazado 118818" d="M196.2,34.765a43.415,43.415,0,0,1-3.2-3.073c-.26-.241-.523-.478-.785-.717.571-.992.516-1.379-.361-2.257q-8.628-8.636-17.253-17.275c-.228-.229-.742-.424-.553-.793A6.7,6.7,0,0,1,175.1,9.34c.089-.1.213,0,.3.088.1.109.211.21.317.315q12.363,12.363,24.724,24.727c.124.124.229.268.343.4a3.045,3.045,0,0,1-1.439,1.28c-.365-.344-.752-.668-1.09-1.037a1.507,1.507,0,0,0-2.062-.351" transform="translate(-116.957 -6.25)" fill="#eef4f9"/>
        <path id="Trazado_118819" data-name="Trazado 118819" d="M93.255,175.955c-1.014,1.177-1.014,1.177-2.064.127L84.9,169.788c-1.049-1.049-1.049-1.049.127-2.063-.009.305.209.476.4.663l7.171,7.17c.187.187.358.405.664.4" transform="translate(-56.547 -112.741)" fill="#7c5f56"/>
        <path id="Trazado_118820" data-name="Trazado 118820" d="M95.1,174.55c-.306.009-.476-.209-.664-.4l-7.171-7.17c-.187-.187-.405-.358-.4-.663.778-.9.779-.9,1.58-.1l6.746,6.746c.8.8.8.8-.1,1.58" transform="translate(-58.39 -111.336)" fill="#8d6e62"/>
        <path id="Trazado_118821" data-name="Trazado 118821" d="M251.326,88.593a3.048,3.048,0,0,0,1.438-1.28c1.528,1.506,3.051,3.017,4.588,4.514.255.248.243.378-.018.629-1.124,1.081-1.118,1.1-2.184.021q-1.919-1.935-3.825-3.883" transform="translate(-168.935 -58.69)" fill="#dae8f3"/>
        <path id="Trazado_118822" data-name="Trazado 118822" d="M26.756,235.084a4.727,4.727,0,0,1-1.043,6.119,4.839,4.839,0,0,1-6.074.016,1.94,1.94,0,0,0-.381-.227,5.609,5.609,0,0,1-1.341-3.5,4.746,4.746,0,0,1,8.516-2.832c.108.142.215.286.323.428m-4.053.337a2.174,2.174,0,0,0-2.19,2.128,2.239,2.239,0,0,0,2.1,2.139,2.169,2.169,0,0,0,2.167-2.144,2.116,2.116,0,0,0-2.08-2.122" transform="translate(-12.042 -156.473)" fill="#030202"/>
        <path id="Trazado_118823" data-name="Trazado 118823" d="M28.032,240.824a2.116,2.116,0,0,1,2.08,2.122,2.169,2.169,0,0,1-2.167,2.144,2.239,2.239,0,0,1-2.1-2.139,2.174,2.174,0,0,1,2.19-2.128" transform="translate(-17.371 -161.876)" fill="#f9f9f9"/>
      </g>
    </g>
  </g>
</svg>
