<svg xmlns="http://www.w3.org/2000/svg" xmlns:xlink="http://www.w3.org/1999/xlink" width="179" height="179" viewBox="0 0 179 179">
  <defs>
    <clipPath id="clip-path">
      <rect id="Rect치ngulo_35139" data-name="Rect치ngulo 35139" width="146.42" height="86.445" fill="none"/>
    </clipPath>
  </defs>
  <g id="Grupo_175491" data-name="Grupo 175491" transform="translate(-757 -10237)">
    <rect id="Rect치ngulo_33958" data-name="Rect치ngulo 33958" width="179" height="179" rx="18" transform="translate(757 10237)" fill="#fcc02d"/>
    <g id="Grupo_175490" data-name="Grupo 175490" transform="translate(773 10283)">
      <g id="Grupo_175489" data-name="Grupo 175489" transform="translate(0 0)" clip-path="url(#clip-path)">
        <path id="Trazado_121344" data-name="Trazado 121344" d="M0,86.135A3.141,3.141,0,0,1,3.011,84.7c2.331.074,2.332.015,2.708-2.214a12.085,12.085,0,0,1,10.057-9.936,12.27,12.27,0,0,1,4.106.249c.542.1,1.135.854,1.651.165a2.875,2.875,0,0,0,.817-2.564,44.414,44.414,0,0,1-.912-13.2,45,45,0,0,1,3.343-14.226c.626-1.508,1.355-1.8,3.227-1.39,1.222,1.057,1.056,2.273.518,3.619A42.4,42.4,0,0,0,26.014,66.8c.111.844.3.946,1.031.5a13,13,0,0,1,7.736-2.045c.9.057.99-.257.886-1.042a30.2,30.2,0,0,1,.307-9.522,32.8,32.8,0,0,1,63.388-4.28l3.308-1.736a14.746,14.746,0,0,1,6.077-.443,2.69,2.69,0,0,0,0-.531c-.084-.321-.184-.638-.295-.951A42.372,42.372,0,0,0,89.892,24.034a36.291,36.291,0,0,0-12.106-4.784,39.007,39.007,0,0,0-17.277-.438,42.017,42.017,0,0,0-27.5,17.88c-1.236,1.769-1.731,1.958-3.535,1.368-1.2-1.478-1.251-2.024-.1-3.66C37.805,22.362,49.3,15.376,63.962,14.046A46.548,46.548,0,0,1,113.572,49.1c.357,1.407,1.3,2.1,2.088,3.049.318.38.681.238,1.046.153a11.918,11.918,0,0,1,14.67,12.446.926.926,0,0,0,.525,1.013c7.691,4.718,9.927,9.811,8.241,18.7a1.476,1.476,0,0,0,.031.268c1.257,0,2.531-.024,3.8.007,1.52.037,2.472.922,2.442,2.209a2.15,2.15,0,0,1-2.405,2.071q-18.149.016-36.3,0c-1.595,0-2.155-.555-2.5-2.31a2.47,2.47,0,0,1,2.807-1.99c1.359.04,2.721-.024,4.081-.041,1.519.018,3.038.045,4.557.053,1.871.009,1.951,0,1.966-1.949.046-6.272.028-12.545.034-18.817a1.574,1.574,0,0,0-1.723-1.8c-1.614-.007-3.227.036-4.841.057q-7.632-.032-15.263-.061c-2.9-.009-5.8,0-8.7,0-1.13,0-1.827.463-1.825,1.676.014,6.516.045,13.032.035,19.547,0,1.141.48,1.4,1.55,1.377,3.471-.067,6.944-.007,10.416-.033A2.393,2.393,0,0,1,101,86.7c-.3,1.774-.884,2.31-2.626,2.31q-47.851.006-95.7.032A3.91,3.91,0,0,1,0,87.851Zm50.616-1.463c2.047.019,4.1-.05,6.14.084,1.355.089,1.479-.468,1.243-1.552-1.186-5.467-6.524-8.014-10.708-5.483-1.317.8-2.436.274-3.154-1.142-.343-.677-.633-1.387-1.035-2.028-3.391-5.424-10.36-6.71-14.889-2.766a10.735,10.735,0,0,0-3.739,5.076c-.689,1.632-1.982,2.115-3.441,1.135C16.38,74.872,11,78.062,9.94,83.146c-.293,1.413.1,1.618,1.392,1.606,6.571-.059,13.143-.02,19.716-.029q9.784-.012,19.569-.051m29.458-1.666c-.22-.089-.436-.188-.661-.264a9.85,9.85,0,0,1,1.7-19.184c.736-.1.877-.379,1.009-1.033a5.726,5.726,0,0,1,5.543-4.663c.806-.037,1.614-.044,2.421-.064,1.379.019,2.759.045,4.139.052.261,0,.654.118.711-.266.217-1.457,1.319-2.676.82-4.352A28.61,28.61,0,0,0,79.471,34.477a18.41,18.41,0,0,0-6.261-1.8,25.163,25.163,0,0,0-11.724.259A28.57,28.57,0,0,0,40.1,65.4c.106.584.175,1.148.871,1.5a14.2,14.2,0,0,1,5.756,5.388,1,1,0,0,0,1.36.549,9.085,9.085,0,0,1,3.955-.3,12.14,12.14,0,0,1,10.307,10.98c.052.573-.169,1.242.871,1.23,5.234-.058,10.469-.058,15.7-.079.806.021,1.611.054,2.416.055.34,0,.832.147.757-.5-.05-.434.125-1-.619-1.044-.471-.029-.938-.112-1.407-.171m42.88-9.331h-.07c0,3.335.083,6.672-.05,10-.04,1,.209,1.07,1.014,1.063,3.478-.031,6.957-.054,10.434.013.964.019,1.3-.382,1.586-1.2a11.306,11.306,0,0,0-7.025-14.434c-2.031-.734-2.329-1.3-1.912-3.409a7.5,7.5,0,0,0-2.385-7.514,7.4,7.4,0,0,0-7.606-1.5c-2.533.815-2.561.844-4.136-1.239a7.647,7.647,0,0,0-12.825.857c-.794,1.43-.737,1.538.84,1.539,5.288,0,10.577-.01,15.866,0,3.845.011,6.248,2.407,6.266,6.238.015,3.192,0,6.385,0,9.577m-40.941-.328c0-1.518-.038-3.037.015-4.553.029-.828-.2-1.11-1.049-.911a5.6,5.6,0,0,0-.012,10.861c.835.2,1.092.018,1.061-.843-.054-1.516-.015-3.036-.015-4.554" transform="translate(0 -2.602)" fill="#030303"/>
        <path id="Trazado_121345" data-name="Trazado 121345" d="M108.593,49.644l-3.308,1.737A32.8,32.8,0,0,0,41.9,55.66a30.155,30.155,0,0,0-.307,9.522c.1.785.014,1.1-.886,1.042a13.009,13.009,0,0,0-7.737,2.045c-.732.448-.92.346-1.031-.5A42.392,42.392,0,0,1,34.452,46.18c.537-1.346.7-2.562-.518-3.62.062-1.351,1.005-2.338,1.461-3.527,1.8.59,2.3.4,3.535-1.368a42.022,42.022,0,0,1,27.5-17.88,39.006,39.006,0,0,1,17.277.438c.084.667.7.733,1.138.947A44.632,44.632,0,0,1,103.376,37.7a38.144,38.144,0,0,1,5.217,11.94" transform="translate(-5.923 -3.575)" fill="#e5e3e5"/>
        <path id="Trazado_121346" data-name="Trazado 121346" d="M132.071,95.845c-1.36.018-2.722.08-4.081.041a2.47,2.47,0,0,0-2.807,1.99l-4.214,0a2.394,2.394,0,0,0-2.7-1.99c-3.472.027-6.945-.032-10.415.033-1.07.02-1.552-.236-1.55-1.377.011-6.516-.021-13.031-.035-19.547,0-1.214.7-1.679,1.825-1.677,2.9,0,5.8-.006,8.7,0q7.631.023,15.262.061,0,11.23.007,22.459" transform="translate(-19.968 -13.776)" fill="#f6deae"/>
        <path id="Trazado_121347" data-name="Trazado 121347" d="M153.867,46.24a7.707,7.707,0,0,1-.092-15.415,7.708,7.708,0,1,1,.092,15.415m-.026-11.1a3.4,3.4,0,1,0,3.416,3.458,3.454,3.454,0,0,0-3.416-3.458" transform="translate(-27.454 -5.792)" fill="#040404"/>
        <path id="Trazado_121348" data-name="Trazado 121348" d="M30.2,0a6.358,6.358,0,0,1,6.417,6.417,6.4,6.4,0,1,1-12.8.032A6.357,6.357,0,0,1,30.2,0m2.116,6.433a2.1,2.1,0,1,0-4.195-.067,2.1,2.1,0,1,0,4.195.067" transform="translate(-4.475 0)" fill="#030404"/>
        <path id="Trazado_121349" data-name="Trazado 121349" d="M88.106,88.887c-5.235.02-10.47.02-15.7.078-1.039.012-.819-.657-.871-1.23a12.14,12.14,0,0,0-10.307-10.98,9.086,9.086,0,0,0-3.955.3A1,1,0,0,1,55.91,76.5a14.208,14.208,0,0,0-5.757-5.388c-.694-.348-.764-.913-.871-1.5a28.571,28.571,0,0,1,21.38-32.46A25.166,25.166,0,0,1,82.388,36.9c0,.6.469.768.89.986a29.048,29.048,0,0,1,10.3,8.923,29.545,29.545,0,0,1,5.682,15.21c-.807.02-1.614.028-2.421.064A5.725,5.725,0,0,0,91.3,66.748c-.133.654-.274.931-1.01,1.033a9.85,9.85,0,0,0-1.7,19.184c.225.075.442.175.662.264.067.863-1.037.918-1.147,1.658M73.764,39.992a6.428,6.428,0,0,0-6.441,6.421,6.512,6.512,0,0,0,6.494,6.408,6.43,6.43,0,0,0,6.33-6.391,6.337,6.337,0,0,0-6.384-6.438" transform="translate(-9.178 -6.825)" fill="#fcfcfc"/>
        <path id="Trazado_121350" data-name="Trazado 121350" d="M145.969,82.589c0-3.192.012-6.385,0-9.577-.019-3.831-2.421-6.227-6.266-6.238-5.288-.014-10.578,0-15.866,0-1.576,0-1.634-.109-.84-1.539a7.647,7.647,0,0,1,12.825-.857c1.575,2.083,1.6,2.054,4.137,1.24a7.4,7.4,0,0,1,7.606,1.5,7.5,7.5,0,0,1,2.384,7.514c-.417,2.112-.119,2.675,1.913,3.409a11.306,11.306,0,0,1,7.024,14.434c-.283.815-.621,1.216-1.585,1.2-3.477-.067-6.956-.044-10.434-.013-.8.007-1.054-.067-1.014-1.063.134-3.329.051-6.667.051-10h.069" transform="translate(-23.015 -11.516)" fill="#bcd6fa"/>
        <path id="Trazado_121351" data-name="Trazado 121351" d="M52.9,98.076q-9.784.027-19.569.051c-6.572.009-13.145-.03-19.716.029-1.294.011-1.684-.192-1.391-1.606,1.054-5.084,6.439-8.274,11.092-5.15,1.46.98,2.751.5,3.442-1.135a10.746,10.746,0,0,1,3.738-5.076,14.082,14.082,0,0,1,6.547,3.82,9.556,9.556,0,0,0,8.043,3.412c3.189-.114,6.728,2.583,7.814,5.654" transform="translate(-2.279 -16.006)" fill="#bcd7fb"/>
        <path id="Trazado_121352" data-name="Trazado 121352" d="M120.667,49.921a38.144,38.144,0,0,0-5.217-11.94A44.632,44.632,0,0,0,96.92,21.446c-.441-.214-1.054-.28-1.138-.947a36.3,36.3,0,0,1,12.107,4.784A42.374,42.374,0,0,1,126.444,48c.111.313.211.63.295.951a2.7,2.7,0,0,1,0,.532,14.733,14.733,0,0,0-6.077.442" transform="translate(-17.997 -3.852)" fill="#d2d2d4"/>
        <path id="Trazado_121353" data-name="Trazado 121353" d="M57.144,97.545c-1.087-3.071-4.625-5.768-7.814-5.654a9.556,9.556,0,0,1-8.043-3.412,14.082,14.082,0,0,0-6.547-3.82c4.53-3.944,11.5-2.657,14.89,2.766.4.642.691,1.351,1.035,2.029.717,1.416,1.837,1.938,3.154,1.141,4.185-2.531,9.522.016,10.708,5.483.236,1.085.11,1.642-1.243,1.553-2.04-.135-4.092-.067-6.14-.084" transform="translate(-6.527 -15.476)" fill="#9cc6f9"/>
        <path id="Trazado_121354" data-name="Trazado 121354" d="M138.038,95.847q0-11.229-.007-22.459c1.614-.021,3.227-.063,4.841-.057a1.575,1.575,0,0,1,1.723,1.8c-.006,6.272.012,12.545-.034,18.817-.015,1.951-.1,1.959-1.965,1.95-1.519-.007-3.038-.035-4.558-.054" transform="translate(-25.935 -13.778)" fill="#e9cd98"/>
        <path id="Trazado_121355" data-name="Trazado 121355" d="M107.021,62.154a29.545,29.545,0,0,0-5.682-15.21,29.048,29.048,0,0,0-10.3-8.923c-.421-.218-.889-.39-.89-.986a18.421,18.421,0,0,1,6.261,1.8,28.609,28.609,0,0,1,16.281,18.754c.5,1.676-.6,2.894-.82,4.352-.057.384-.45.268-.711.266-1.38-.007-2.759-.032-4.139-.052" transform="translate(-16.938 -6.959)" fill="#e4e2e4"/>
        <path id="Trazado_121356" data-name="Trazado 121356" d="M99.77,85.834c0,1.518-.039,3.037.015,4.554.031.861-.227,1.048-1.061.843a5.6,5.6,0,0,1,.012-10.861c.85-.2,1.078.084,1.049.911-.054,1.516-.015,3.036-.015,4.553" transform="translate(-17.756 -15.089)" fill="#b6d0f3"/>
        <path id="Trazado_121357" data-name="Trazado 121357" d="M97.189,100.664c.11-.741,1.214-.8,1.147-1.658.469.058.936.141,1.407.17.745.045.57.61.62,1.045.074.646-.417.5-.757.5-.806,0-1.61-.035-2.416-.055" transform="translate(-18.261 -18.602)" fill="#e4e2e4"/>
        <path id="Trazado_121358" data-name="Trazado 121358" d="M154.834,36.139a3.4,3.4,0,1,1-.112,6.795,3.4,3.4,0,0,1,.112-6.795" transform="translate(-28.448 -6.79)" fill="#b9d4f7"/>
        <path id="Trazado_121359" data-name="Trazado 121359" d="M33.313,7.427a2.1,2.1,0,1,1-4.195-.067,2.1,2.1,0,1,1,4.195.067" transform="translate(-5.471 -0.994)" fill="#b6d0f3"/>
        <path id="Trazado_121360" data-name="Trazado 121360" d="M78.039,40.841a6.339,6.339,0,0,1,6.385,6.438,6.431,6.431,0,0,1-6.331,6.391A6.512,6.512,0,0,1,71.6,47.262a6.428,6.428,0,0,1,6.441-6.421m2.087,6.382a2.055,2.055,0,0,0-2.041-2.085A2.113,2.113,0,0,0,75.9,47.249a2.212,2.212,0,0,0,2.075,2.124,2.127,2.127,0,0,0,2.153-2.15" transform="translate(-13.453 -7.674)" fill="#040404"/>
        <path id="Trazado_121361" data-name="Trazado 121361" d="M81.121,48.217a2.127,2.127,0,0,1-2.153,2.15,2.212,2.212,0,0,1-2.075-2.124,2.113,2.113,0,0,1,2.187-2.111,2.055,2.055,0,0,1,2.041,2.085" transform="translate(-14.447 -8.668)" fill="#b6d0f3"/>
      </g>
    </g>
  </g>
</svg>
