<svg xmlns="http://www.w3.org/2000/svg" xmlns:xlink="http://www.w3.org/1999/xlink" width="179" height="179" viewBox="0 0 179 179">
  <defs>
    <clipPath id="clip-path">
      <rect id="Rect치ngulo_35138" data-name="Rect치ngulo 35138" width="105.969" height="105.983" fill="none"/>
    </clipPath>
  </defs>
  <g id="Grupo_175488" data-name="Grupo 175488" transform="translate(5183 1666)">
    <rect id="Rect치ngulo_33964" data-name="Rect치ngulo 33964" width="179" height="179" rx="18" transform="translate(-5183 -1666)" fill="#fcc02d"/>
    <g id="Grupo_175487" data-name="Grupo 175487" transform="translate(-5146 -1629)">
      <g id="Grupo_175486" data-name="Grupo 175486" clip-path="url(#clip-path)">
        <path id="Trazado_121322" data-name="Trazado 121322" d="M.071,104.9V80.514c.765-7.185,2.313-14.247,3.37-21.386a25.452,25.452,0,0,0-.216-5.764,16.55,16.55,0,0,1,.162-4c.325-2.006.684-4,.992-6.012A10.11,10.11,0,0,1,6.3,38.731q4.245-5.66,8.492-11.319a2.463,2.463,0,0,1,1.361-1.049,5.96,5.96,0,0,1,3.317.526,7.454,7.454,0,0,1,2.5,1.664,7.594,7.594,0,0,1,.75,10.159,1.934,1.934,0,0,1-.185.248c-2.253,2.3-3.013,5.192-3.252,8.269a5.989,5.989,0,0,0,2.247,5.4,9.057,9.057,0,0,1,3.624,7.715c-.046,1.823.01,3.649-.017,5.473a2.674,2.674,0,0,0,.813,2.044A38.689,38.689,0,0,0,40,76.881c.728.266,1.188.091,1.365-.722a7.451,7.451,0,0,1,1.556-3c3.118-2.714,6.321-2.957,9.382-.719a7.546,7.546,0,0,1,2.33,3.345c.18.439.623.516.983.692a7.084,7.084,0,0,1,2.5,1.781,1.18,1.18,0,0,0,1.285.4,39.449,39.449,0,0,0,6.663-1.8c-1.261-1.073-2.549-2.017-3.8-3-2.464-1.929-4.945-3.835-7.405-5.77a8.359,8.359,0,0,1-3.165-4.7,3.58,3.58,0,0,0-1.071-1.722c-3-2.985-5.974-5.991-8.981-8.966a9.179,9.179,0,0,1-2.982-7.4,11.832,11.832,0,0,1,.716-2.783,11.687,11.687,0,0,1,2.074-2.814q5.716-5.681,11.4-11.4a9.827,9.827,0,0,1,4.59-2.645c.248-.066.628,0,.687-.335.052-.295-.273-.451-.464-.637a3.726,3.726,0,0,0-2.1-1.021,3.469,3.469,0,0,0-1.938.036,4.282,4.282,0,0,0-2.294,1.3,2.447,2.447,0,0,1-3.145.632,4.212,4.212,0,0,0-5.022.925,4.211,4.211,0,0,0-1.036,5.088,2.5,2.5,0,0,1-.6,3.159,4.833,4.833,0,0,0-1.51,3.294,1.9,1.9,0,0,1-1.669,1.931c-1.53-.095-2.2-.78-2.152-2.282a7.675,7.675,0,0,1,1.422-4.252,2.458,2.458,0,0,0,.4-2.033,8.475,8.475,0,0,1,9.869-9.96,2.839,2.839,0,0,0,2.137-.422,8.426,8.426,0,0,1,10.92,1.393,7.635,7.635,0,0,1,1.647,2.838,2.4,2.4,0,0,0,1.135,1.394,23.675,23.675,0,0,1,4.492,4.091,4.694,4.694,0,0,0,3.4,1.819,4.322,4.322,0,0,1,2.859,1.518c1.626,1.638,3.253,3.273,4.9,4.89,3.73,3.067,6.111,7.126,8.313,11.318.385.731.871,1.406,1.2,2.17a.375.375,0,0,1-.006.275c3.894-10.72,2.247-26.9-9.5-38.4a28.651,28.651,0,0,0-5.289-4.279A36.717,36.717,0,0,0,56.709,3.87a37.575,37.575,0,0,0-34.54,15.755,25.8,25.8,0,0,0-2.145,3.392,8.216,8.216,0,0,1-.87,1.4c-.692.81-1.358.906-2.485.382-.972-.992-1.086-1.49-.465-2.761a38.224,38.224,0,0,1,5.307-7.854A39.936,39.936,0,0,1,34.841,3.941,36.727,36.727,0,0,1,51.361,0c4.1.05,8.178-.019,12.186,1.106a42.779,42.779,0,0,1,16.821,8.92,40.529,40.529,0,0,1,11.9,17.585,40.6,40.6,0,0,1-.25,28.117,2.546,2.546,0,0,0,.281,2.594,40.036,40.036,0,0,0,3.912,4.792c3.066,3.256,6.1,6.542,9.174,9.791a2.183,2.183,0,0,1,.6,1.59q-.007,14.927,0,29.852a1.4,1.4,0,0,1-1.139,1.584H93.692c-1.2-.333-1.736-1.422-2.461-2.251Q84.339,95.8,77.455,87.9c-1.675-1.916-3.351-3.833-5.005-5.768a24.846,24.846,0,0,0-2.368-2.145,1.016,1.016,0,0,0-1.161-.108,42.762,42.762,0,0,1-8.2,2.442.941.941,0,0,0-.881.943,7.017,7.017,0,0,1-7.594,6.427c-2.441-.087-4.887,0-7.332-.021A6.825,6.825,0,0,1,38,81.414a1.13,1.13,0,0,0-.82-1.491,16.775,16.775,0,0,1-2.172-.954c-.52-.283-.9-.235-1.145.371-1.133,2.847-2.224,5.659-2.141,8.848.137,5.194.036,10.394.039,15.591,0,1-.18,1.859-1.311,2.156H1.1A1.283,1.283,0,0,1,.071,104.9" transform="translate(-0.022 0)"/>
        <path id="Trazado_121323" data-name="Trazado 121323" d="M.049,152.454l1.034,1.033q-1.312.278-1.034-1.033" transform="translate(0 -47.553)" fill="#f7f7f7"/>
        <path id="Trazado_121324" data-name="Trazado 121324" d="M79.934,74.928c.122-.8.433-.372.7-.1q2.6,2.59,5.188,5.185c.2.195.386.394.586.583a1.667,1.667,0,0,0,2.547.138,1.647,1.647,0,0,0-.2-2.467c-2.06-2.079-4.136-4.142-6.206-6.212-1.315-1.315-2.636-2.624-3.943-3.946-.9-.906-.953-1.775-.2-2.514a1.694,1.694,0,0,1,2.553.2c1.377,1.351,2.728,2.726,4.1,4.086.995.989,1.936,1.1,2.69.326.731-.749.6-1.7-.391-2.688-1.7-1.708-3.412-3.407-5.112-5.116-.959-.964-1.073-1.867-.354-2.616.7-.733,1.785-.617,2.726.317,1.735,1.722,3.456,3.459,5.19,5.183.921.916,1.889,1.02,2.618.3.753-.739.669-1.673-.263-2.615-1.38-1.4-2.779-2.772-4.157-4.17a1.72,1.72,0,0,1-.241-2.549,1.8,1.8,0,0,1,2.577.235c1.816,1.788,3.6,3.6,5.421,5.39,1.006.987,2.293.85,2.825-.272a1.668,1.668,0,0,0-.472-2.047q-2.125-2.112-4.234-4.239c-.863-.872-.965-1.843-.3-2.544a1.813,1.813,0,0,1,2.652.242q4.324,4.3,8.618,8.622a4.794,4.794,0,0,1,.7,1.009c2.464,4.29,4.938,8.574,7.374,12.88,2.1,3.707,5.209,6.563,8.031,9.661,1.762,1.935,3.568,3.829,5.353,5.743a1.449,1.449,0,0,1,.546,1.048q-.043,11.827-.046,23.655c-1.223.591-2.445.169-3.617-.113a14.184,14.184,0,0,1-7.548-4.756q-5.3-6.127-10.656-12.206c-1.612-1.834-3.227-3.667-4.8-5.539a30.482,30.482,0,0,0-4.832-4.339Q88.428,83.3,81.513,77.889c-.91-.714-1.977-1.484-1.579-2.96" transform="translate(-24.294 -16.313)" fill="#fed2b5"/>
        <path id="Trazado_121325" data-name="Trazado 121325" d="M22.345,45.225a3.948,3.948,0,0,1,.717,4.89,5.09,5.09,0,0,1-.7,1.014c-2.78,2.922-3.6,6.587-3.818,10.415a9.074,9.074,0,0,0,3.514,7.885,5.864,5.864,0,0,1,2.379,5.187c-.1,2.129-.072,4.265-.14,6.4a2.837,2.837,0,0,0,.771,2.149A39.871,39.871,0,0,0,33.2,90.1c.687.433.663.8.417,1.468-.925,2.5-2.178,4.905-2.459,7.615-.067.648-.114,1.3-.117,1.953-.021,4.093-.028,8.186-.039,12.279a5.624,5.624,0,0,1-3.334.221,19.972,19.972,0,0,1-16.135-10.768,19.232,19.232,0,0,1-2.275-8.61,33.883,33.883,0,0,1,.66-8c.054-.27.1-.541.173-.808.158-.6.452-.753.917-.262.308.324.589.675.924.972a8.8,8.8,0,0,0,6.987,2.1,11.184,11.184,0,0,0-1.342-.894,8.847,8.847,0,0,1-3.967-7.12c-.258-3.6-.5-7.2-.781-10.795a21.86,21.86,0,0,1,.128-6.465c.428-1.947.667-3.935,1.012-5.9a6.462,6.462,0,0,1,1.086-2.653c2.084-2.954,4.311-5.8,6.476-8.694.2-.264.387-.595.817-.513" transform="translate(-2.88 -14.103)" fill="#fed2b5"/>
        <path id="Trazado_121326" data-name="Trazado 121326" d="M88.153,15.653a35.473,35.473,0,0,1,8.956,13.412,37.338,37.338,0,0,1,.974,24.854c-.075.25-.175.493-.3.847-1.455-2.541-2.922-4.944-4.226-7.432a18.023,18.023,0,0,0-3.7-4.649c-.669-.639-1.285-1.331-1.926-2a29.861,29.861,0,0,1-.8-4.2.563.563,0,0,1,.14-.378c1.111-.881.91-1.9.445-3.05a27.581,27.581,0,0,0-3.387-6.232,1.654,1.654,0,0,1-.215-1.809,4.383,4.383,0,0,0-1.138-5.341,4.3,4.3,0,0,0-5.236-.665,1.977,1.977,0,0,1-2.119-.134,25.292,25.292,0,0,0-3.988-1.921c-1.183-.482-2.256-.577-3.171.5a1.141,1.141,0,0,1-1.32-.486c-.121-.484.175-.861.344-1.265a6.357,6.357,0,0,0-1.51-7.2,6.141,6.141,0,0,0-7.636-.62,4.037,4.037,0,0,1-2.789.68,5.867,5.867,0,0,0-5.726,2.777,6.037,6.037,0,0,0-.294,6.55c.206.389.542.723.531,1.21-.325.786-1.089.942-1.763,1.228-1.3-.963-2.357-.433-3.482.432a28.483,28.483,0,0,0-9.638,13.557c-.131.378-.129.834-.577,1.038-.361-.032-.424-.331-.479-.589a6.186,6.186,0,0,0-3.288-4.392,1.658,1.658,0,0,1-.327-.252,11.621,11.621,0,0,0-2.3-1.489c-.376-.444-.156-.917-.034-1.364a24.625,24.625,0,0,1,2.495-6.251,33.522,33.522,0,0,1,11.71-10.842c13.541-7.5,26.975-7.145,40.189.939a4.511,4.511,0,0,1,.473.381.369.369,0,0,1-.226.2,1.726,1.726,0,0,0-1.541,1.331c-.145.85.557,1.292,1.118,1.722.985.753,1.934,1.549,2.885,2.344,1.222,1.022,2.247.673,2.613-.892a.824.824,0,0,1,.252-.546" transform="translate(-8.737 -1.495)" fill="#e5e5e5"/>
        <path id="Trazado_121327" data-name="Trazado 121327" d="M71.12,22.343a1.717,1.717,0,0,0,1.211.448c.2,1.5,1.3,2.008,2.562,2.4a19.393,19.393,0,0,1,3.064,1.472,1.906,1.906,0,0,1,1.119,1.891A4.724,4.724,0,0,0,82.6,33.117a3.215,3.215,0,0,0,1.631.1,1.622,1.622,0,0,1,1.823.828,21.885,21.885,0,0,1,2.815,5.261c.434,1.2.974,2.177,2.308,2.481a15.374,15.374,0,0,1,.623,4.373c-1.618-1.59-3.249-3.167-4.851-4.773a5.206,5.206,0,0,0-4.054-1.7,1.388,1.388,0,0,1-1.139-.545,41.993,41.993,0,0,0-4.283-4.179,11.76,11.76,0,0,1-3.257-3.992,8.012,8.012,0,0,0-11.7-2.527,1.927,1.927,0,0,1-1.759.385,8.2,8.2,0,0,0-9.8,10.009,1.41,1.41,0,0,1-.271,1.395,7.775,7.775,0,0,0-1.636,4.378c-.1,1.421.394,1.981,1.841,2.19a4.838,4.838,0,0,1,1.287,2.743c-1.5,3.958-.58,7.279,2.468,10.183,3.088,2.942,6.046,6.02,9.068,9.031a2.3,2.3,0,0,1,.722,1.2A8.445,8.445,0,0,0,67.758,75c3.784,2.917,7.546,5.86,11.428,8.878a38.542,38.542,0,0,1-6.82,1.964,1.859,1.859,0,0,1-2.178-.731A5.3,5.3,0,0,0,67.709,83.5c-.271-.1-.763-.022-.7-.568.326-.32.7-.149,1.073-.125a37.518,37.518,0,0,0,5.268-.024,19.474,19.474,0,0,0-1.7-1.408c-2.412-1.823-4.77-3.717-7.156-5.574a2.333,2.333,0,0,1-.725-.722c-.151-1.274-.934-1.691-2.144-1.923C51.6,71.244,44.676,65.518,41.644,55.752,38.768,46.487,41,38.161,47.561,31.015a14.279,14.279,0,0,1,2.764-2.472,3.172,3.172,0,0,0,1.818-2.858c.5-.469,1.241-.56,1.684-1.109.42.006.666.324.963.545a6.229,6.229,0,0,0,7.738.372,3.624,3.624,0,0,1,2.511-.547,6.231,6.231,0,0,0,5.2-1.975c.259-.256.421-.65.879-.628" transform="translate(-12.605 -6.969)" fill="#cdcdcd"/>
        <path id="Trazado_121328" data-name="Trazado 121328" d="M20.978,44.744q-2.677,3.5-5.355,7.007c-.416.544-.795,1.119-1.241,1.637-1.631,1.9-1.64,4.3-2.066,6.566-.3,1.576-.545,3.163-.77,4.751a30.589,30.589,0,0,0,.2,4.406c0,1.361.253,2.72.346,4.083.162,2.357.179,4.729.453,7.072a8.565,8.565,0,0,0,5.076,7.126c.192.092.5.042.564.354-3.1,1.071-6.31-.048-9.093-3.209C7.9,90.15,7.476,95.678,9.839,101.069a19.565,19.565,0,0,0,7.974,9.041,20.322,20.322,0,0,0,11.821,2.829c-.006,1.062.38,2.412-.129,3.1-.485.657-1.924.2-2.941.2-6.919.019-13.839,0-20.757.029-.77,0-.962-.18-.958-.954.034-6.437-.025-12.875.039-19.312.031-3.07.852-6.052,1.332-9.07.745-4.684,1.592-9.351,2.337-14.035a22.1,22.1,0,0,0-.25-5.864c-.275-2.534.569-4.9.751-7.357a12.906,12.906,0,0,1,3.24-7.4c2.01-2.441,3.824-5.042,5.722-7.574.956-1.276,1.243-1.325,2.531-.386a3.752,3.752,0,0,1,.428.428" transform="translate(-1.512 -13.622)" fill="#f8b894"/>
        <path id="Trazado_121329" data-name="Trazado 121329" d="M60.535,84.824l9.856,7.6-.095.285a24.757,24.757,0,0,1-6.66-.029c-1.509-3.344-3.668-4.87-6.737-4.749a7.066,7.066,0,0,0-4.576,2.094,2.143,2.143,0,0,1-1.466-.368,39.986,39.986,0,0,1-14.564-11.08,3.525,3.525,0,0,1-.848-2.249,6.188,6.188,0,0,0-2.3-4.879,8.825,8.825,0,0,1-3.466-8.526,14.936,14.936,0,0,1,3.769-8.737c.265-.287.575-1.133,1.064-.144.142,1.343-.194,2.661-.18,4.006a27.917,27.917,0,0,0,23.923,27.7c1.027.153,1.581-.462,2.278-.917" transform="translate(-9.232 -16.709)" fill="#e5e5e5"/>
        <path id="Trazado_121330" data-name="Trazado 121330" d="M80.533,85.187a3.328,3.328,0,0,0,1.561,2.653c3.463,2.732,7,5.377,10.454,8.114,2.735,2.165,5.675,4.1,8.031,6.708,2.155,2.387,4.207,4.866,6.316,7.3,1.549,1.784,3.12,3.547,4.673,5.327,1.755,2.011,3.479,4.05,5.255,6.043a13.629,13.629,0,0,0,7.627,4.36,12.538,12.538,0,0,0,2.966.2c-.005,1.061.381,2.41-.128,3.1-.485.658-1.923.151-2.939.2a13.015,13.015,0,0,0-1.649.02c-2.073.386-3.358-.588-4.662-2.121-5.683-6.68-11.49-13.254-17.256-19.862a31.312,31.312,0,0,0-4.433-4.158q-7.214-5.593-14.41-11.208a4.937,4.937,0,0,1-1.405-6.677" transform="translate(-24.893 -26.571)" fill="#f8b894"/>
        <path id="Trazado_121331" data-name="Trazado 121331" d="M33.68,50.345c-.074-.149-.088-.515-.353-.184-1.923,2.4-3.634,4.869-3.848,8.121a15.459,15.459,0,0,0-.107,4.256A8.1,8.1,0,0,0,32.5,67.366a6.406,6.406,0,0,1,2.563,5.143,3.509,3.509,0,0,0,.9,2.305A39.6,39.6,0,0,0,51.042,85.97c.222.092.431.213.647.32A7.932,7.932,0,0,0,50.1,89.6c-.127.717-.551.914-1.288.65a38.205,38.205,0,0,1-14.973-9.774,1.552,1.552,0,0,1-.426-1.2c.025-2.134.032-4.269.034-6.4a8.219,8.219,0,0,0-3.181-6.747,6.789,6.789,0,0,1-2.617-6.65,14.049,14.049,0,0,1,2.917-7.338c2.928-3.617,2.761-6.951-.188-10.524a5.4,5.4,0,0,1,3.734,4.128c.093.349.057.76.35,1.048a4.9,4.9,0,0,1-.782,3.562" transform="translate(-8.598 -12.978)" fill="#cdcdcd"/>
        <path id="Trazado_121332" data-name="Trazado 121332" d="M81.307,42.249a4.22,4.22,0,0,1,3.131,1.338c1.192,1.143,2.329,2.343,3.518,3.489.361.348.334.566.135,1.031a1.9,1.9,0,0,1-2.1,1.292,4.4,4.4,0,0,0-4.148,2.893c-.207.471-.369.654-.953.595a4.842,4.842,0,0,0-5.3,5.194.866.866,0,0,1-.621,1.047,4.854,4.854,0,0,0-1.532,7.911,15.093,15.093,0,0,0,1.17,1.166c.412.358.5.7.116,1.124-.464.144-.689-.224-.952-.468a13.365,13.365,0,0,1-1.031-18.143c2.4-2.8,5.152-5.252,7.7-7.9a3.449,3.449,0,0,1,.857-.566" transform="translate(-21.735 -13.177)" fill="#f7c360"/>
        <path id="Trazado_121333" data-name="Trazado 121333" d="M56.923,53.211a16.8,16.8,0,0,1-1.287-2.743A1.9,1.9,0,0,0,57.107,48.5a4.7,4.7,0,0,1,1.525-3.272c1.086-1.058,1.143-1.36.566-2.691a4.919,4.919,0,0,1,6.484-6.533c1.364.587,1.669.524,2.7-.522a3.964,3.964,0,0,1,2.556-1.373c.131.414-.215.7-.294,1.053a1.33,1.33,0,0,0,.55,1.525,1.3,1.3,0,0,0,1.538,0,1.337,1.337,0,0,0,.543-1.529c-.079-.356-.429-.637-.292-1.052,1.422.13,2.335,1,3.281,2.26-3.46.1-5.49,2.3-7.588,4.439-3.039,3.094-6.117,6.148-9.2,9.2a14.052,14.052,0,0,0-2.56,3.2" transform="translate(-17.354 -10.639)" fill="#a6cfe0"/>
        <path id="Trazado_121334" data-name="Trazado 121334" d="M67.575,119.876c-1.307,0-2.613.01-3.92,0a3.328,3.328,0,0,1-3.455-2.649,3.264,3.264,0,0,1,1.99-3.673,1.949,1.949,0,0,0,1.275-2,3.255,3.255,0,0,1,3.1-3.245,3.351,3.351,0,0,1,3.484,2.976c.184,1.515.486,1.823,1.948,1.987a3.306,3.306,0,0,1-.292,6.6c-1.375.027-2.751.006-4.126.006" transform="translate(-18.754 -33.781)" fill="#a6cfe0"/>
        <path id="Trazado_121335" data-name="Trazado 121335" d="M78.673,42.233c-2.365,2.393-4.718,4.8-7.1,7.177a13.347,13.347,0,0,0-4.252,10.409,12.246,12.246,0,0,0,4.77,9.493c-.691,2.143-.69,2.143-2.252.58-2.313-2.314-4.636-4.62-6.939-6.943a4.933,4.933,0,0,1,.025-7.414Q68.8,49.643,74.69,43.769a4.61,4.61,0,0,1,3.983-1.536" transform="translate(-19.101 -13.162)" fill="#e9ab47"/>
        <path id="Trazado_121336" data-name="Trazado 121336" d="M112.153,18.692c.056.982-.073,1.886-1.181,2.229a1.691,1.691,0,0,1-1.7-.437,37.733,37.733,0,0,0-3.087-2.513c-1.486-1.077-1.594-2.065-.474-3.076.418-.377.888-.279,1.346-.359a25.732,25.732,0,0,1,5.1,4.156" transform="translate(-32.737 -4.534)" fill="#fefefe"/>
        <path id="Trazado_121337" data-name="Trazado 121337" d="M29.274,28.375A61.264,61.264,0,0,0,26.92,35.19c-.057.262-.072.534-.107.8a8.46,8.46,0,0,0-3.315-.57c.077-.667.667-1.163.628-1.87,1.328.407,1.847.2,2.529-1.009a26.767,26.767,0,0,1,2.62-4.168" transform="translate(-7.329 -8.851)" fill="#cdcdcd"/>
        <path id="Trazado_121338" data-name="Trazado 121338" d="M79.629,34.006c.133.2.283.388.4.6a1.575,1.575,0,0,1-.376,2.13,1.523,1.523,0,0,1-2.08,0,1.572,1.572,0,0,1-.381-2.13,6.9,6.9,0,0,1,.4-.6,2.422,2.422,0,0,1,2.044,0" transform="translate(-23.997 -10.537)" fill="#fdfdfe"/>
        <path id="Trazado_121339" data-name="Trazado 121339" d="M36.346,45.491l.782-3.562a28.843,28.843,0,0,1,7.552-12.551,27.538,27.538,0,0,1,3.332-2.75c1.184-.828,1.72-.786,2.791.212a1.9,1.9,0,0,1-.839,2.473A24.418,24.418,0,0,0,39.432,50.479c.179,11.285,9.03,21.549,20.155,23.475.372.064.745.134,1.118.191,1.413.215,1.807.656,1.863,2.093a1.941,1.941,0,0,1-2.341,1.186A28.1,28.1,0,0,1,36.651,55.048a30.406,30.406,0,0,1-.3-9.557" transform="translate(-11.264 -8.124)"/>
        <path id="Trazado_121340" data-name="Trazado 121340" d="M76.522,17.677a6.674,6.674,0,0,1-7.035,2.745.915.915,0,0,0-.762.16c-3.672,2.465-6.366,2.268-9.5-.671-1.927-3.014-2.015-5.836-.156-8.221a6.333,6.333,0,0,1,6.553-2.5,1.269,1.269,0,0,0,1.128-.254,6.589,6.589,0,0,1,9.875,8.452,2.278,2.278,0,0,0-.108.287" transform="translate(-18.007 -2.304)"/>
        <path id="Trazado_121341" data-name="Trazado 121341" d="M105.638,41.5c-1.34,0-1.763-.268-2.205-1.533a24.934,24.934,0,0,0-3.329-6.348.925.925,0,0,0-1.084-.475,4.851,4.851,0,0,1-5.741-4.98,1.4,1.4,0,0,0-.868-1.5A30.987,30.987,0,0,0,88.117,24.7c-1.179-.425-1.44-.91-1.327-2.2a1.732,1.732,0,0,1,2.493-.883,25,25,0,0,1,5.2,2.457.977.977,0,0,0,1.19.007,4.914,4.914,0,0,1,6.948,6.419.956.956,0,0,0,.128,1.171,26.548,26.548,0,0,1,3.787,7.16c.482,1.392.327,1.86-.9,2.667" transform="translate(-27.064 -6.676)"/>
        <path id="Trazado_121342" data-name="Trazado 121342" d="M62.544,17.174a3.284,3.284,0,0,1,4.437-3.113c1.744.643,1.744.643,3.043-.773a3.3,3.3,0,1,1,1.21,5.26c-1.589-.625-1.715-.593-2.876.731a3.3,3.3,0,0,1-5.814-2.1" transform="translate(-19.508 -3.802)" fill="#a6cfe0"/>
        <path id="Trazado_121343" data-name="Trazado 121343" d="M102.692,29.01a1.652,1.652,0,1,1-1.7,1.576,1.676,1.676,0,0,1,1.7-1.576" transform="translate(-31.501 -9.048)" fill="#a5cdde"/>
      </g>
    </g>
  </g>
</svg>
