<svg xmlns="http://www.w3.org/2000/svg" xmlns:xlink="http://www.w3.org/1999/xlink" width="179" height="179" viewBox="0 0 179 179">
  <defs>
    <clipPath id="clip-path">
      <rect id="Rect치ngulo_35142" data-name="Rect치ngulo 35142" width="103" height="103" transform="translate(0)" fill="none"/>
    </clipPath>
  </defs>
  <g id="Grupo_175500" data-name="Grupo 175500" transform="translate(5924 800)">
    <rect id="Rect치ngulo_33974" data-name="Rect치ngulo 33974" width="179" height="179" rx="18" transform="translate(-5924 -800)" fill="#fcc02d"/>
    <g id="Grupo_175499" data-name="Grupo 175499" transform="translate(-5886 -762)">
      <g id="Grupo_175498" data-name="Grupo 175498" transform="translate(0 0)" clip-path="url(#clip-path)">
        <path id="Trazado_121392" data-name="Trazado 121392" d="M54.544,100.99c-.337,1.52-.934,2-2.508,2q-12.821,0-25.642,0a8.028,8.028,0,0,1-8.286-8.32Q18.1,60.485,18.125,26.3a1.093,1.093,0,0,0-.9-1.249C14.1,23.964,11.01,22.8,7.891,21.7a11.212,11.212,0,0,1-7.67-8.425c-.037-.157-.01-.341-.221-.4V9.253c.359-.195.26-.589.34-.883A11.06,11.06,0,0,1,7.808.486C8.227.338,8.733.406,9.052,0h3.42c.328.367.8.2,1.2.306a11.02,11.02,0,0,1,7.842,7.125q1.843,4.927,3.574,9.894a.973.973,0,0,0,1.112.8q34.188-.029,68.375-.014A8.022,8.022,0,0,1,102.9,25a9.614,9.614,0,0,1,.093,1.6q.008,33.937,0,67.873c0,5.094-3.415,8.521-8.49,8.524q-11.713.008-23.428,0c-1.576,0-2.177-.487-2.508-2a2.118,2.118,0,0,1,2.5-2.015q11.664-.006,23.329,0c2.989,0,4.574-1.592,4.574-4.594q0-33.835,0-67.671c0-3-1.587-4.578-4.589-4.578q-33.837,0-67.672,0c-3,0-4.582,1.575-4.582,4.578q0,33.835,0,67.671c0,3.006,1.58,4.594,4.573,4.594q12.67,0,25.339,0a2.122,2.122,0,0,1,2.5,2.015M4.024,11.035A6.954,6.954,0,0,0,8.479,17.6c3.467,1.313,6.969,2.535,10.458,3.79.533.191,2.654-1.669,2.555-2.226a.626.626,0,0,0-.031-.1c-1.359-3.7-2.6-7.45-4.117-11.08a6.807,6.807,0,0,0-7.951-3.76,7.063,7.063,0,0,0-5.369,6.807" transform="translate(0 0)" fill="#010101"/>
        <path id="Trazado_121393" data-name="Trazado 121393" d="M49.347,95.792a2.123,2.123,0,0,0-2.5-2.015q-12.668,0-25.339,0c-2.993,0-4.574-1.588-4.574-4.594V21.51c0-3,1.577-4.578,4.583-4.578q33.837,0,67.672,0c3,0,4.589,1.583,4.589,4.577V89.181c0,3-1.585,4.594-4.576,4.594q-11.662,0-23.328,0a2.121,2.121,0,0,0-2.5,2.017H58.4c-.291-1.363-.995-2.039-2.094-2.014q-1.586.037-1.99,2.015h-4.97M89.752,55.4q0-15.938,0-31.875c0-1.878-.68-2.575-2.521-2.575q-31.876,0-63.751,0c-1.843,0-2.524.7-2.524,2.571q0,31.825,0,63.651c0,1.906.684,2.576,2.622,2.576q31.774,0,63.549,0c1.977,0,2.626-.661,2.627-2.674V55.4" transform="translate(5.197 5.197)" fill="#57d8ac"/>
        <path id="Trazado_121394" data-name="Trazado 121394" d="M45.537,77.745q.406-1.978,1.99-2.014c1.1-.026,1.8.651,2.094,2.014-.3,1.353-1.005,2.031-2.092,2-1.055-.026-1.706-.681-1.992-2" transform="translate(13.977 23.244)" fill="#050706"/>
        <path id="Trazado_121395" data-name="Trazado 121395" d="M88.809,54.46q0,15.838,0,31.674c0,2.013-.648,2.674-2.626,2.674q-31.774,0-63.549,0c-1.939,0-2.622-.67-2.622-2.576q0-31.825,0-63.651c0-1.874.681-2.569,2.524-2.571q31.874,0,63.75,0c1.843,0,2.522.7,2.522,2.575q0,15.938,0,31.875M54.5,24.033c-9.823,0-19.646.013-29.468-.022-.853,0-1.019.222-1.019,1.04q.039,29.367,0,58.735c0,.852.221,1.019,1.04,1.018q29.367-.037,58.734,0c.853,0,1.019-.222,1.018-1.04q-.037-29.367,0-58.735c0-.852-.221-1.021-1.04-1.018-9.755.03-19.511.02-29.266.02" transform="translate(6.142 6.141)"/>
        <path id="Trazado_121396" data-name="Trazado 121396" d="M53.561,23.093c9.755,0,19.51.012,29.266-.02.818,0,1.042.166,1.04,1.019q-.043,29.367,0,58.734c0,.818-.166,1.042-1.018,1.04q-29.367-.043-58.735,0c-.818,0-1.04-.165-1.04-1.018q.043-29.367,0-58.735c0-.818.165-1.043,1.018-1.04,9.823.035,19.646.022,29.469.022M53.4,64.534c2.045,0,4.091.034,6.135-.017.754-.02,1.006.141,1,.961-.048,3.989-.014,7.979-.029,11.968a2.194,2.194,0,0,0,.894,2.01,1.851,1.851,0,0,0,2,.149,2.026,2.026,0,0,0,1.142-1.964c0-4.023.035-8.047-.029-12.068-.016-.933.276-1.066,1.107-1.057,3.989.043,7.979.029,11.968.014a2.041,2.041,0,0,0,2.213-2.347A2.083,2.083,0,0,0,77.5,60.512c-4.055-.007-8.112-.02-12.169.014-.67.005-.819-.19-.816-.831q.045-6.236,0-12.471c-.007-.68.2-.814.836-.81,3.989.029,7.979.017,11.968.013,1.558,0,2.482-.744,2.495-1.992s-.919-2.027-2.454-2.028c-3.99,0-7.979-.021-11.969.016-.7.007-.883-.165-.877-.874.038-4.023.009-8.046.025-12.068a2.188,2.188,0,0,0-.987-2.064,2,2,0,0,0-3.037,1.894q-.029,6.134.007,12.27c0,.622-.111.85-.8.843q-6.234-.053-12.471,0c-.762.008-.839-.268-.835-.915.029-3.989.017-7.979.013-11.968,0-1.482-.749-2.392-1.964-2.42-1.252-.03-2.055.907-2.057,2.427,0,3.956-.033,7.912.024,11.867.012.874-.252,1.018-1.053,1.009-3.855-.044-7.711-.021-11.566-.02a7.169,7.169,0,0,0-.9.02,2.007,2.007,0,0,0,.375,4c4.089.016,8.18.026,12.27-.012.714-.007.877.182.872.881-.037,4.089-.043,8.18,0,12.27.008.805-.223.975-.989.967-4.023-.038-8.046-.025-12.068-.014a2.024,2.024,0,1,0,.052,4.018c3.956.009,7.912.031,11.867-.02.9-.012,1.154.2,1.141,1.125-.058,3.987-.035,7.978-.018,11.968a2,2,0,0,0,2.652,2.09,2.083,2.083,0,0,0,1.371-2.214c-.013-3.989.013-7.979-.022-11.968-.007-.744.124-1.031.955-1,2.01.069,4.023.022,6.034.022" transform="translate(7.082 7.081)" fill="#fef6cb"/>
        <path id="Trazado_121397" data-name="Trazado 121397" d="M52.45,63.586c-2.011,0-4.024.048-6.034-.022-.831-.03-.961.259-.955,1,.035,3.989.009,7.979.022,11.968a2.083,2.083,0,0,1-1.371,2.214,2,2,0,0,1-2.652-2.09c-.017-3.989-.039-7.979.018-11.968.013-.928-.243-1.137-1.141-1.125-3.955.052-7.911.029-11.867.02a2.024,2.024,0,1,1-.052-4.016c4.023-.01,8.046-.025,12.068.014.766.007,1-.162.989-.968-.047-4.089-.041-8.18,0-12.27.005-.7-.158-.887-.872-.881-4.089.038-8.18.027-12.27.013a2.008,2.008,0,0,1-.375-4,7.423,7.423,0,0,1,.9-.02c3.855,0,7.711-.025,11.566.02.8.009,1.065-.135,1.053-1.009-.056-3.955-.027-7.911-.024-11.867,0-1.52.805-2.457,2.057-2.427,1.215.029,1.962.938,1.964,2.42,0,3.989.016,7.979-.013,11.968,0,.647.073.923.835.915q6.236-.063,12.471,0c.691.007.806-.221.8-.843q-.037-6.134-.007-12.27A2,2,0,0,1,62.6,26.47a2.185,2.185,0,0,1,.987,2.062c-.016,4.023.013,8.047-.025,12.07-.007.708.174.88.877.873,3.99-.037,7.979-.02,11.969-.016,1.536,0,2.468.779,2.454,2.03s-.937,1.99-2.495,1.992c-3.989,0-7.979.014-11.968-.013-.634-.005-.843.129-.836.809q.051,6.236,0,12.471c0,.643.145.838.816.831,4.057-.033,8.113-.021,12.169-.013a2.081,2.081,0,0,1,2.291,1.668,2.042,2.042,0,0,1-2.211,2.349c-3.99.013-7.98.029-11.969-.016-.831-.009-1.123.124-1.107,1.057.064,4.021.025,8.046.029,12.068a2.026,2.026,0,0,1-1.142,1.964,1.851,1.851,0,0,1-2-.149,2.194,2.194,0,0,1-.894-2.01c.014-3.989-.02-7.979.029-11.968.01-.819-.242-.979-1-.961-2.044.051-4.089.017-6.135.017M45.478,52.523c0,2.111.02,4.223-.013,6.333-.009.57.154.723.72.719q6.334-.035,12.668,0c.569,0,.721-.153.719-.72q-.035-6.334,0-12.667c0-.57-.153-.723-.72-.719q-6.334.035-12.668,0c-.569,0-.728.152-.719.72.033,2.111.013,4.223.013,6.333" transform="translate(8.033 8.029)"/>
        <path id="Trazado_121398" data-name="Trazado 121398" d="M40.946,47.988c0-2.111.02-4.223-.013-6.333-.009-.569.15-.724.719-.72q6.334.035,12.668,0c.567,0,.723.149.72.719q-.035,6.332,0,12.667c0,.567-.15.724-.719.72q-6.334-.035-12.668,0c-.566,0-.729-.149-.72-.719.033-2.111.013-4.223.013-6.333" transform="translate(12.564 12.564)" fill="#fef6cb"/>
      </g>
    </g>
  </g>
</svg>
