<svg xmlns="http://www.w3.org/2000/svg" xmlns:xlink="http://www.w3.org/1999/xlink" width="179" height="179" viewBox="0 0 179 179">
  <defs>
    <clipPath id="clip-path">
      <rect id="Rect치ngulo_35143" data-name="Rect치ngulo 35143" width="95.016" height="85.347" fill="none"/>
    </clipPath>
  </defs>
  <g id="Grupo_175503" data-name="Grupo 175503" transform="translate(5183 800)">
    <rect id="Rect치ngulo_33977" data-name="Rect치ngulo 33977" width="179" height="179" rx="18" transform="translate(-5183 -800)" fill="#fcc02d"/>
    <g id="Grupo_175502" data-name="Grupo 175502" transform="translate(-5141 -753)">
      <g id="Grupo_175501" data-name="Grupo 175501" transform="translate(0 0)" clip-path="url(#clip-path)">
        <path id="Trazado_121399" data-name="Trazado 121399" d="M47.018,38.693c-1.317-.959-2.626-1.929-3.957-2.87a2.876,2.876,0,0,0-1.751-.326c-6.81,0-13.621-.092-20.429.039-3.434.066-5.933-2.255-5.74-5.708.092-1.632.012-1.636-1.6-1.636-.771,0-1.544.016-2.315-.005a1.487,1.487,0,0,1-1.638-1.61c0-.1.008-.2,0-.3-.078-.788.357-1.8-.188-2.308-.492-.462-1.474-.13-2.239-.138-1.745-.019-3.489.005-5.233-.009-1.4-.012-1.9-.49-1.91-1.866C0,20.376-.007,18.8.015,17.223c.017-1.314.52-1.819,1.857-1.832,2.281-.024,4.562-.035,6.843.009.717.014.944-.212.88-.906a15.44,15.44,0,0,1-.008-1.81A1.452,1.452,0,0,1,11.2,11.061c1.073-.021,2.148-.031,3.22.005.553.019.8-.134.753-.724a14.156,14.156,0,0,1,0-1.609,4.994,4.994,0,0,1,5.227-5.07q10.517-.021,21.033.009a4.592,4.592,0,0,0,2.565-.685c1.446-.907,2.938-1.741,4.393-2.633A2.417,2.417,0,0,1,49.711,0Q66.569.01,83.425,0A11.392,11.392,0,0,1,94.98,11.33q.074,8.7,0,17.41A11.32,11.32,0,0,1,83.473,40.081q-4.78,0-9.56-.007c-1.232,0-1.236,0-.88,1.143q5.366,17.2,10.734,34.4c.329,1.053.672,2.1.973,3.166a4.942,4.942,0,0,1-4.609,6.5c-4.728.1-9.46.065-14.19.013a4.838,4.838,0,0,1-4.6-3.441c-.389-1.139-.72-2.3-1.074-3.45a4.8,4.8,0,0,1-.035-2.583,2.643,2.643,0,0,0-.815-2.742,4.776,4.776,0,0,1-1.552-4.99,2.615,2.615,0,0,0-.854-2.645,4.733,4.733,0,0,1-1.553-4.9,2.308,2.308,0,0,0-.533-2.352,8.054,8.054,0,0,1-2.388-4.541A7.181,7.181,0,0,0,50.149,49.7a5.829,5.829,0,0,1-1.982-2.609c-.118-.382-.368-.4-.69-.394-1.577.01-3.154.017-4.73,0-.405-.005-.59.1-.678.521a1.44,1.44,0,0,1-1.631,1.168c-2.047-.01-4.093.01-6.14-.008-1.192-.011-1.722-.538-1.73-1.722q-.023-3.874,0-7.749a1.488,1.488,0,0,1,1.68-1.673c2.08-.019,4.16,0,6.24-.005a1.405,1.405,0,0,1,1.562,1.124c.1.47.338.564.767.558,1.373-.022,2.746-.008,4.119-.008l.078-.207M82.084,20.029c0-5.367-.016-10.734.02-16.1,0-.76-.2-.94-.947-.938q-14.691.039-29.383,0c-.79,0-.919.246-.918.963q.034,16.1,0,32.2c0,.785.239.922.961.922q14.641-.015,29.281.041c.771,0,1.016-.174,1.01-.985-.037-5.367-.02-10.734-.02-16.1M47.826,4.332c-.109,0-.183-.022-.232,0a7.448,7.448,0,0,0-.875.491A10.347,10.347,0,0,1,40.2,6.687c-6.506-.124-13.016-.045-19.523-.041-1.8,0-2.578.757-2.574,2.569,0,1.608.095,3.216.089,4.824-.017,5.231-.066,10.462-.094,15.693-.011,2.125.709,2.838,2.831,2.838,6.81,0,13.62.028,20.43-.02a6.427,6.427,0,0,1,4.279,1.418,10.55,10.55,0,0,0,2.185,1.509ZM60.232,40.087c-2.682,0-5.365-.007-8.047,0-1.478.005-1.3-.181-1.31,1.258a24.016,24.016,0,0,1-.02,2.613,3.91,3.91,0,0,0,1.587,3.858,7.9,7.9,0,0,1,2.877,4.811c.09.424.276.827.382,1.247a4.53,4.53,0,0,0,1.188,2.045A5.347,5.347,0,0,1,58.368,61a2.3,2.3,0,0,0,.731,2.351,5.385,5.385,0,0,1,1.669,5.3,2.271,2.271,0,0,0,.745,2.334,5.336,5.336,0,0,1,1.655,5.21,3.579,3.579,0,0,0,.147,2.059c.288.784.5,1.6.766,2.39a2.066,2.066,0,0,0,2.294,1.679q6.639.011,13.279,0A2.072,2.072,0,0,0,81.833,79.4q-6-19.27-12-38.537c-.2-.661-.531-.79-1.146-.784-2.816.026-5.633.011-8.45.011m24.88-20.074q0,7.892,0,15.786c0,1.219.058,1.256,1.246.852a8.429,8.429,0,0,0,5.7-8.271q.082-8.244,0-16.489c-.038-4.233-2.294-7.357-5.931-8.512-.814-.258-1.039-.131-1.034.749.034,5.3.016,10.591.016,15.886M15.083,19.6c0-1.609-.021-3.218.011-4.826.011-.564-.163-.806-.739-.741a3.194,3.194,0,0,1-.8,0c-.791-.117-1.023.19-1.009.989.048,2.813.023,5.629.016,8.442,0,1.783-.011,1.755,1.74,1.752.61,0,.814-.161.8-.79-.042-1.607-.014-3.217-.014-4.826m24.081,23.28c0-2.715,0-2.715-2.719-2.667a1.539,1.539,0,0,1-.2,0c-.516-.06-.707.158-.7.683.028,1.2.066,2.407-.011,3.6-.054.846.286.984,1.031.976,2.594-.023,2.594,0,2.595-2.6M6.312,18.338h-1.6c-1.809,0-1.793,0-1.742,1.827.013.481.093.734.655.726,1.771-.028,3.543-.009,5.314-.013.258,0,.607.053.614-.327.015-.694.241-1.47-.111-2.057-.244-.405-.934-.122-1.422-.148-.566-.032-1.136-.008-1.7-.008M45.084,41.879c-.769,0-1.539.033-2.305-.01-.748-.041-.6.475-.57.87s-.284,1,.559.983q2.255-.041,4.512,0c.84.017.547-.578.564-.974s.2-.919-.556-.879c-.733.039-1.47.009-2.2.009" transform="translate(0 0)"/>
        <path id="Trazado_121400" data-name="Trazado 121400" d="M77.915,19.784c0,5.367-.02,10.733.019,16.1.005.81-.239.988-1.01.986q-14.641-.059-29.282-.042c-.72,0-.962-.135-.961-.92q.044-16.1.005-32.2c0-.717.129-.965.917-.963q14.691.046,29.383,0c.747,0,.951.179.946.938-.035,5.367-.017,10.733-.017,16.1" transform="translate(4.171 0.245)" fill="#fedf4f"/>
        <path id="Trazado_121401" data-name="Trazado 121401" d="M46.341,3.978V35.122a10.591,10.591,0,0,1-2.185-1.509A6.425,6.425,0,0,0,39.877,32.2c-6.81.048-13.619.021-20.43.02-2.121,0-2.841-.712-2.83-2.838.026-5.231.075-10.462.094-15.693.005-1.608-.087-3.216-.09-4.824,0-1.812.77-2.568,2.574-2.569,6.508,0,13.018-.083,19.523.041a10.354,10.354,0,0,0,6.516-1.86,7.455,7.455,0,0,1,.875-.492c.049-.025.124,0,.232,0" transform="translate(1.485 0.355)" fill="#f65e6a"/>
        <path id="Trazado_121402" data-name="Trazado 121402" d="M56.064,36.8c2.817,0,5.634.015,8.45-.012.614-.005.941.123,1.146.785q5.977,19.275,12,38.537a2.072,2.072,0,0,1-2.179,2.927q-6.639.02-13.278,0a2.065,2.065,0,0,1-2.294-1.678c-.267-.794-.479-1.606-.767-2.39A3.592,3.592,0,0,1,59,72.911,5.333,5.333,0,0,0,57.345,67.7a2.271,2.271,0,0,1-.746-2.334,5.387,5.387,0,0,0-1.669-5.3,2.3,2.3,0,0,1-.731-2.351,5.342,5.342,0,0,0-1.477-5.08,4.547,4.547,0,0,1-1.19-2.045c-.107-.422-.291-.825-.381-1.248a7.893,7.893,0,0,0-2.878-4.809,3.909,3.909,0,0,1-1.586-3.858,24.58,24.58,0,0,0,.02-2.613c.013-1.44-.169-1.254,1.309-1.258,2.683-.01,5.365,0,8.048,0" transform="translate(4.168 3.287)" fill="#f65e6a"/>
        <path id="Trazado_121403" data-name="Trazado 121403" d="M78.132,19.745c0-5.3.016-10.591-.016-15.886-.005-.88.22-1.008,1.033-.749,3.638,1.154,5.894,4.279,5.931,8.512q.074,8.245,0,16.489a8.431,8.431,0,0,1-5.7,8.271c-1.188.4-1.246.367-1.247-.852q0-7.894,0-15.786" transform="translate(6.979 0.268)" fill="#f45e6a"/>
        <path id="Trazado_121404" data-name="Trazado 121404" d="M14.054,18.447c0,1.609-.028,3.218.014,4.826.016.629-.187.788-.8.79-1.751,0-1.743.032-1.74-1.752.007-2.815.032-5.63-.016-8.444-.014-.8.218-1.106,1.009-.989a3.143,3.143,0,0,0,.8,0c.574-.065.749.176.739.741-.032,1.608-.011,3.217-.011,4.826" transform="translate(1.029 1.149)" fill="#fedf4f"/>
        <path id="Trazado_121405" data-name="Trazado 121405" d="M36.25,39.579c0,2.6,0,2.572-2.594,2.6-.745.007-1.086-.13-1.032-.976.077-1.2.039-2.4.011-3.6-.012-.525.18-.743.7-.683a1.522,1.522,0,0,0,.2,0c2.719-.049,2.719-.049,2.719,2.667" transform="translate(2.914 3.297)" fill="#f15d69"/>
        <path id="Trazado_121406" data-name="Trazado 121406" d="M6.07,16.839c.569,0,1.137-.024,1.7.008.488.026,1.178-.257,1.422.148.352.587.126,1.363.111,2.057-.008.38-.356.326-.614.327-1.771,0-3.543-.015-5.314.012-.562.01-.641-.243-.655-.724-.051-1.827-.068-1.827,1.742-1.827h1.6" transform="translate(0.242 1.499)" fill="#ccd4db"/>
        <path id="Trazado_121407" data-name="Trazado 121407" d="M41.625,38.445c.735,0,1.472.031,2.2-.009.759-.04.573.493.556.879s.276.991-.564.974q-2.255-.046-4.512,0c-.843.015-.534-.588-.559-.983s-.179-.912.57-.87c.766.042,1.536.01,2.305.01" transform="translate(3.459 3.434)" fill="#fcde4e"/>
      </g>
    </g>
  </g>
</svg>
