<svg xmlns="http://www.w3.org/2000/svg" xmlns:xlink="http://www.w3.org/1999/xlink" width="109" height="109" viewBox="0 0 109 109">
  <defs>
    <clipPath id="clip-path">
      <rect id="Rect치ngulo_35044" data-name="Rect치ngulo 35044" width="86.451" height="90.142" fill="none"/>
    </clipPath>
  </defs>
  <g id="Grupo_80960" data-name="Grupo 80960" transform="translate(-741 -6977)">
    <g id="Grupo_80959" data-name="Grupo 80959" transform="translate(752 6987)">
      <g id="Grupo_80958" data-name="Grupo 80958" clip-path="url(#clip-path)">
        <path id="Trazado_118735" data-name="Trazado 118735" d="M32.991,64.23a1.514,1.514,0,0,1-.356,2.1Q21.7,77.238,10.792,88.161A6.236,6.236,0,1,1,2,79.329Q21.767,59.537,41.57,39.776c.636-.634.93-1.476,1.576-2.078.284-.264-.042-.412-.182-.559-.446-.466-.913-.912-1.367-1.37a8,8,0,0,1,.014-11.812Q50.06,15.486,58.529,7.035c1.12-1.12,2.253-2.226,3.356-3.363a11.593,11.593,0,0,1,5.927-3.4C68.008.228,68.3.3,68.4,0h3.345c.218.344.584.155.873.221a11.86,11.86,0,0,1,5.769,3.155,27.77,27.77,0,0,1,6.1,7.741,20.293,20.293,0,0,1-3.476,22.524c-.521.556-1.059,1.095-1.6,1.63-.792.782-1.156.824-2.167.284a1.5,1.5,0,0,1,.313-2.179c.478-.432.918-.907,1.365-1.371a17.622,17.622,0,0,0,3.143-19.819,24.512,24.512,0,0,0-6.8-7.955A4.731,4.731,0,0,0,73,3.143l0,.013C72.919,3,72.78,3,72.634,3.01A8.246,8.246,0,0,0,64.14,5.2Q53.634,15.6,43.23,26.1a5.265,5.265,0,0,0-.149,7.391c.525.591,1.138,1.105,1.655,1.7.382.442.638.363.962-.037a1.518,1.518,0,0,1,2.034-.446c.694.983.668,1.464-.149,2.3-.552.567-1.1,1.141-1.685,1.672-.358.325-.389.53-.017.891,1.556,1.511,3.1,3.039,4.6,4.6.425.442.65.365,1.035-.024,3.157-3.185,6.341-6.342,9.5-9.525a3.909,3.909,0,1,0-5.523-5.52c-.985.963-1.946,1.95-2.926,2.918-.867.855-1.285.882-2.291.181a1.521,1.521,0,0,1,.281-1.923c1.13-1.107,2.206-2.273,3.376-3.336a6.268,6.268,0,0,1,6.359-1.473,6.544,6.544,0,0,1,2.65,10.974c-2.507,2.588-5.087,5.107-7.635,7.656-.852.853-.852.852.093,1.668.2.216.381.441.586.646,2.744,2.748,5.787,2.748,8.537,0q4.044-4.04,8.086-8.082c.8-.8,1.156-.835,2.168-.292a1.444,1.444,0,0,1-.3,2.171c-2.816,2.825-5.619,5.664-8.466,8.457A7.986,7.986,0,0,1,54.5,48.673c-.148-.143-.292-.289-.437-.434-1.638-1.637-1.712-1.637-3.409.061Q44.122,54.833,37.6,61.374a1.546,1.546,0,0,1-2.111.363,1.436,1.436,0,0,1,.227-2.224q6.3-6.307,12.618-12.6c.5-.5.463-.754-.018-1.212-1.376-1.314-2.712-2.67-4.04-4.033-.341-.35-.561-.382-.906-.009-.793.857-1.625,1.677-2.442,2.512-.153.133-.315.258-.458.4Q22.2,62.849,3.929,81.123a6.68,6.68,0,0,0-.481.513A3.514,3.514,0,0,0,3.6,86.277c1.517,1.659,3.7,1.648,5.4-.057Q19.864,75.371,30.713,64.513c.9-.9,1.3-.944,2.278-.283" transform="translate(0)" fill="#040203"/>
        <path id="Trazado_118736" data-name="Trazado 118736" d="M208.838,45.657c-1.011-.542-1.371-.5-2.168.292q-4.047,4.036-8.086,8.083c-2.75,2.747-5.793,2.746-8.537,0-.205-.206-.391-.43-.586-.646a4.849,4.849,0,0,0,2.612-1.505q7.344-7.332,14.672-14.681a16.737,16.737,0,0,0,1.532-1.8,18.648,18.648,0,0,0,3.708-13.937,19.314,19.314,0,0,0-3.594-8.92c-.432-.608-1.147-1.007-1.331-1.794a4.734,4.734,0,0,1,2.273,1.087,24.5,24.5,0,0,1,6.8,7.955,17.622,17.622,0,0,1-3.143,19.819c-.447.465-.887.94-1.365,1.371a1.5,1.5,0,0,0-.313,2.179l-2.474,2.5" transform="translate(-134.063 -7.606)" fill="#d60a60"/>
        <path id="Trazado_118737" data-name="Trazado 118737" d="M41.709,164.407c-.978-.662-1.378-.617-2.278.283Q28.576,175.543,17.722,186.4c-1.707,1.705-3.885,1.717-5.4.057a9.328,9.328,0,0,0,1.8-1.806c.966.716,1.43.7,2.283-.146q1.655-1.632,3.287-3.287c.844-.858.842-1.421.033-2.335.438-.02.643-.38.9-.641q14.138-14.13,28.281-28.255a4.476,4.476,0,0,0,1.525-3.4c-.029-.77.149-1.735-.791-2.233.816-.835,1.649-1.656,2.442-2.512.345-.373.565-.342.906.009,1.328,1.363,2.664,2.719,4.04,4.033.481.459.523.713.018,1.212q-6.337,6.269-12.618,12.6a1.436,1.436,0,0,0-.227,2.224,22.442,22.442,0,0,0-2.5,2.492" transform="translate(-8.718 -100.177)" fill="#e1916a"/>
        <path id="Trazado_118738" data-name="Trazado 118738" d="M173.765,9.524c.184.787.9,1.185,1.331,1.794a19.313,19.313,0,0,1,3.594,8.92,18.646,18.646,0,0,1-3.708,13.936,16.738,16.738,0,0,1-1.531,1.8q-7.322,7.354-14.672,14.681a4.85,4.85,0,0,1-2.612,1.5c-.945-.815-.945-.815-.093-1.667,2.548-2.549,5.128-5.068,7.635-7.656a6.544,6.544,0,0,0-2.65-10.973,6.267,6.267,0,0,0-6.359,1.473c-1.169,1.063-2.245,2.229-3.375,3.336a1.522,1.522,0,0,0-.281,1.923,16.881,16.881,0,0,1-2.543,2.5,1.518,1.518,0,0,0-2.034.446c-.324.4-.58.478-.962.037-.518-.6-1.13-1.111-1.655-1.7A5.266,5.266,0,0,1,144,32.484q10.424-10.48,20.909-20.9A8.247,8.247,0,0,1,173.4,9.391a.335.335,0,0,0,.363.146Z" transform="translate(-100.767 -6.381)" fill="#d9387c"/>
        <path id="Trazado_118739" data-name="Trazado 118739" d="M47.332,151.079c.94.5.761,1.463.79,2.233a4.475,4.475,0,0,1-1.525,3.4q-14.162,14.106-28.281,28.255c-.262.261-.468.62-.905.641a1.514,1.514,0,0,0-1.892.434c-1.1,1.134-2.217,2.259-3.356,3.357a1.529,1.529,0,0,0-.356,1.977,9.313,9.313,0,0,1-1.8,1.807,3.514,3.514,0,0,1-.154-4.641,6.562,6.562,0,0,1,.48-.512Q28.6,169.752,46.874,151.48c.143-.143.3-.268.458-.4" transform="translate(-6.405 -106.903)" fill="#e8a888"/>
        <path id="Trazado_118740" data-name="Trazado 118740" d="M158.12,102.046a16.894,16.894,0,0,0,2.543-2.5c1.006.7,1.424.673,2.291-.182.98-.968,1.942-1.955,2.926-2.918a3.909,3.909,0,1,1,5.523,5.52c-3.159,3.183-6.343,6.34-9.5,9.524-.386.389-.61.466-1.035.024-1.5-1.562-3.044-3.09-4.6-4.6-.372-.361-.342-.566.017-.891.585-.531,1.133-1.1,1.685-1.672.817-.84.844-1.322.149-2.3" transform="translate(-110.388 -67.333)" fill="#db568f"/>
        <path id="Trazado_118741" data-name="Trazado 118741" d="M248.766,10.428a.336.336,0,0,1-.363-.146c.146-.014.285-.009.363.146" transform="translate(-175.769 -7.272)" fill="#d60a60"/>
        <path id="Trazado_118742" data-name="Trazado 118742" d="M17.96,274.516a1.529,1.529,0,0,1,.356-1.977c1.139-1.1,2.252-2.223,3.355-3.357a1.515,1.515,0,0,1,1.892-.434c.809.914.811,1.478-.033,2.335q-1.63,1.657-3.287,3.287c-.854.842-1.317.863-2.283.146" transform="translate(-12.556 -190.045)" fill="#080504"/>
      </g>
    </g>
    <rect id="Rect치ngulo_35045" data-name="Rect치ngulo 35045" width="109" height="109" transform="translate(741 6977)" fill="none"/>
  </g>
</svg>
