<svg xmlns="http://www.w3.org/2000/svg" xmlns:xlink="http://www.w3.org/1999/xlink" width="109" height="109" viewBox="0 0 109 109">
  <defs>
    <clipPath id="clip-path">
      <rect id="Rect치ngulo_35047" data-name="Rect치ngulo 35047" width="99.736" height="51.357" fill="none"/>
    </clipPath>
  </defs>
  <g id="Grupo_80962" data-name="Grupo 80962" transform="translate(-741 -6977)">
    <rect id="Rect치ngulo_35045" data-name="Rect치ngulo 35045" width="109" height="109" transform="translate(741 6977)" fill="none"/>
    <g id="Grupo_80964" data-name="Grupo 80964" transform="translate(745.265 7005.562)">
      <g id="Grupo_80964-2" data-name="Grupo 80964" clip-path="url(#clip-path)">
        <path id="Trazado_118765" data-name="Trazado 118765" d="M0,.957A2.428,2.428,0,0,1,2.175,0q5.969.046,11.939,0a1.808,1.808,0,0,1,2.04,1.373c-.323,1.308-.616,1.547-1.921,1.566-.259,0-.518,0-.777,0-3.237,0-6.474,0-9.711.006-.34,0-.831-.188-.784.5a44.166,44.166,0,0,0,1.352,9.192,27.1,27.1,0,0,0,1.795,5.834C13.953,36.655,27.69,46.714,47.485,48.339a33.267,33.267,0,0,0,8.623-.4,26,26,0,0,0,5.343-.964c13.513-3.611,23.511-11.668,30.134-23.943a40.478,40.478,0,0,0,3.285-8.207H77.2c-.324-.01-.647-.029-.971-.029l-58.582,0c-1.743,0-2.21-.5-2.009-2.123a2.263,2.263,0,0,1,2.058-.815q29.922.02,59.844.009c.388,0,.777-.02,1.166-.03,5.445.011,10.889.015,16.333.046a.652.652,0,0,0,.77-.621,57.184,57.184,0,0,0,.977-7.7c.03-.467-.106-.626-.582-.624q-7.1.041-14.192.051c-.356-.013-.711-.038-1.067-.039q-13.286,0-26.572,0-15.476,0-30.952,0c-1.5,0-1.858-.279-2.068-1.585A1.586,1.586,0,0,1,23.1.015c.227,0,.454,0,.682,0H97.307c2.094,0,2.46.365,2.428,2.419a49.892,49.892,0,0,1-39.293,47.8A49.931,49.931,0,0,1,2.934,18.415,49.345,49.345,0,0,1,.2,5.922c-.016-.177.063-.4-.2-.485Z" transform="translate(0 0)" fill="#030303"/>
        <path id="Trazado_118766" data-name="Trazado 118766" d="M10.9,15.667A44.166,44.166,0,0,1,9.545,6.474c-.047-.689.444-.5.784-.5,3.237-.01,6.474-.006,9.711-.006.259,0,.518,0,.777,0,1.3-.019,1.6-.259,1.921-1.566l5.2-.02c.21,1.306.564,1.585,2.068,1.585q15.476,0,30.952,0,13.286,0,26.572,0c.356,0,.712.025,1.067.039a2.556,2.556,0,0,1-.263,1.218c-.9,2.588-1.932,5.126-3.042,7.632-.388.01-.777.03-1.166.03q-29.922,0-59.844-.009a2.262,2.262,0,0,0-2.058.815L10.9,15.667" transform="translate(-6.584 -3.023)" fill="#d1d1d1"/>
        <path id="Trazado_118767" data-name="Trazado 118767" d="M13.914,40.788l11.326.027c-.2,1.626.266,2.123,2.009,2.123l58.582,0c.324,0,.647.019.971.029a33.569,33.569,0,0,1-2.817,6.167,129.807,129.807,0,0,1-8.926,14.652c-2.314,3.269-4.722,6.46-7.276,9.547-.725.877-1.8,1.526-2.073,2.749a33.27,33.27,0,0,1-8.623.4C37.292,74.859,23.554,64.8,15.709,46.622a27.12,27.12,0,0,1-1.795-5.834" transform="translate(-9.601 -28.144)" fill="#b5b5b5"/>
        <path id="Trazado_118768" data-name="Trazado 118768" d="M181.005,80.949c.277-1.223,1.349-1.873,2.074-2.749,2.554-3.087,4.962-6.278,7.276-9.547A129.837,129.837,0,0,0,199.28,54a33.592,33.592,0,0,0,2.817-6.167h17.669a40.456,40.456,0,0,1-3.285,8.207c-6.623,12.275-16.621,20.332-30.134,23.943a26.023,26.023,0,0,1-5.343.964" transform="translate(-124.897 -33.006)" fill="#c7c7c7"/>
        <path id="Trazado_118769" data-name="Trazado 118769" d="M253.908,18.364c1.11-2.506,2.138-5.044,3.042-7.632a2.555,2.555,0,0,0,.263-1.218q7.1-.022,14.193-.051c.476,0,.612.157.582.624a57.23,57.23,0,0,1-.978,7.7.652.652,0,0,1-.77.621c-5.444-.032-10.889-.035-16.333-.046" transform="translate(-175.201 -6.53)" fill="#d1d1d1"/>
      </g>
    </g>
  </g>
</svg>
