<svg xmlns="http://www.w3.org/2000/svg" xmlns:xlink="http://www.w3.org/1999/xlink" width="109" height="109" viewBox="0 0 109 109">
  <defs>
    <clipPath id="clip-path">
      <rect id="Rect치ngulo_35048" data-name="Rect치ngulo 35048" width="67.112" height="87.755" fill="none"/>
    </clipPath>
  </defs>
  <g id="Grupo_80967" data-name="Grupo 80967" transform="translate(-741 -6977)">
    <rect id="Rect치ngulo_35045" data-name="Rect치ngulo 35045" width="109" height="109" transform="translate(741 6977)" fill="none"/>
    <g id="Grupo_80968" data-name="Grupo 80968" transform="translate(762 6988)">
      <g id="Grupo_80965" data-name="Grupo 80965" clip-path="url(#clip-path)">
        <path id="Trazado_118770" data-name="Trazado 118770" d="M65.589,81.4c1.225.187,1.6.666,1.508,1.907a4.584,4.584,0,0,1-4.908,4.413q-18.627.007-37.253,0c-6.623,0-13.247-.075-19.868.031-3.328.054-6.106-2.726-4.691-6.813A4.163,4.163,0,0,1,4.2,78.109c.2-.021.4-.03.6-.034,1.838-.04,1.8-.043,2.028-1.9.769-6.37,1.567-12.738,2.348-19.107q1.152-9.384,2.3-18.769c.827-6.68,1.6-13.366,2.532-20.031a89.679,89.679,0,0,0,.434-11.364c.01-.77-.021-1.545.052-2.309a4.719,4.719,0,0,1,3.8-4.462A.7.7,0,0,0,18.479,0H48.631a9.739,9.739,0,0,1,2.029.936A5.017,5.017,0,0,1,52.666,5.17c-.008,3.253-.118,6.509-.014,9.759.066,2.043.431,4.078.685,6.114q.975,7.808,1.97,15.614,1.082,8.57,2.163,17.141Q58.539,62.283,59.6,70.77c.284,2.263.58,4.525.846,6.79.048.406.208.543.6.518.341-.022.685-.01,1.027,0,1.181.023,1.544.372,1.654,1.581-.4.918-1.166,1.024-2.049,1.023q-26.994-.016-53.989-.007c-.341,0-.682.023-1.023.035-.741-.008-1.484-.047-2.223-.016a1.671,1.671,0,0,0-1.727,1.466c-.424,1.936.442,2.977,2.487,2.977q28.353,0,56.7,0c1.883,0,2.529-.636,2.618-2.56A1.41,1.41,0,0,1,65.589,81.4M50.007,11.651c.015-2.082.037-4.165.042-6.247,0-1.966-.844-2.817-2.791-2.817q-11.132,0-22.265,0c-1.255,0-2.51.021-3.765.032-.541-.011-1.082-.035-1.623-.03a2.318,2.318,0,0,0-2.546,2.538c-.015,2.053-.019,4.106,0,6.159.009.788-.343,1.8.151,2.3.456.461,1.462.108,2.225.136,1.05.038,1.415.327,1.647,1.349l-.205.7a1.756,1.756,0,0,1-1.459.555c-.684-.02-1.37.016-2.054-.012-.421-.017-.6.1-.637.555-.063.852-.206,1.7-.31,2.546q-.978,7.937-1.954,15.875-1.078,8.744-2.158,17.487-.985,7.98-1.97,15.959Q9.8,73.107,9.25,77.477c-.041.331-.083.621.425.606,1.281-.038,2.564-.041,3.846-.058.312.016.624.047.936.047q5.694,0,11.387,0,15.625,0,31.251.006c.5,0,.859.044.757-.694-.437-3.163-.812-6.335-1.214-9.5Q55.13,56,53.621,44.125q-1.668-13.239-3.315-26.481c-.166-1.322-.175-1.321-1.5-1.321q-11.644,0-23.288,0c-1.242,0-1.579-.231-1.887-1.256.369-1.116.668-1.34,1.856-1.34q11.338,0,22.676,0c2.008,0,2.008,0,1.847-2.073" transform="translate(0)" fill="#030303"/>
        <path id="Trazado_118771" data-name="Trazado 118771" d="M24.248,290.994c.341-.012.682-.035,1.024-.035q26.994,0,53.989.007c.882,0,1.652-.106,2.048-1.023,1.022.154,1.463.93,1.867,1.745a1.409,1.409,0,0,0-1.068,1.174q-27.42,0-54.84,0a3.194,3.194,0,0,1-3.02-1.869" transform="translate(-17.586 -210.286)" fill="#b9caeb"/>
        <path id="Trazado_118772" data-name="Trazado 118772" d="M59.294,54.837c.309,1.025.645,1.256,1.887,1.256q11.644,0,23.288,0c1.329,0,1.338,0,1.5,1.321q1.66,13.24,3.315,26.481,1.5,11.882,3.016,23.759c.4,3.168.777,6.34,1.214,9.5.1.738-.256.695-.757.694q-15.625-.012-31.251-.006-5.694,0-11.387,0c-.312,0-.624-.03-.936-.047a8.792,8.792,0,0,1,.011-1.025c.327-2.638.684-5.273,1-7.912.313-2.613.575-5.232.885-7.845.32-2.7.676-5.388,1-8.084.038-.318.082-.561.448-.6.012.453.02.906.036,1.359.034.945.493,1.476,1.276,1.48s1.28-.544,1.308-1.469c.026-.851.007-1.7.005-2.553a1.387,1.387,0,0,0-.874-1.5,1.346,1.346,0,0,0-1.657.677c-.262-.185-.191-.447-.161-.7.16-1.315.316-2.632.485-3.946.212-1.65.485-3.295.638-4.95.166-1.8.54-3.578.547-5.392.427-.18.87-.417.909-.908a8.822,8.822,0,0,0-.216-4.317c.116-1,.161-2.018.371-3,.179-.835-.032-1.756.523-2.509a1.352,1.352,0,0,0,1.681.62,1.439,1.439,0,0,0,.835-1.535c0-.795.014-1.59,0-2.385-.029-1.322-.72-1.807-2.016-1.434-.151-1.462.356-2.874.331-4.327l.205-.7,2.541-.006m11.264,47.355c-.028-.543-.02-1.144-.1-1.734a1.254,1.254,0,0,0-2.476-.024,14.549,14.549,0,0,0-.008,3.491A1.153,1.153,0,0,0,69.206,105a1.183,1.183,0,0,0,1.27-1.133c.059-.536.055-1.079.082-1.675m0-19.9c-.032-.535-.032-1.136-.113-1.726a1.249,1.249,0,0,0-2.457-.011,13.027,13.027,0,0,0,0,3.575,1.137,1.137,0,0,0,1.266,1.025,1.162,1.162,0,0,0,1.211-1.1c.067-.563.064-1.135.1-1.767m3.059,10.079h-.074c0-.568.041-1.14-.01-1.7a1.254,1.254,0,0,0-2.473-.089,13,13,0,0,0,0,3.57,1.126,1.126,0,0,0,1.269,1.013,1.142,1.142,0,0,0,1.209-1.085c.065-.563.058-1.135.083-1.7M61.735,82.378c.029.58.021,1.153.095,1.715a1.154,1.154,0,0,0,1.235,1.064,1.121,1.121,0,0,0,1.221-.975,12.286,12.286,0,0,0,0-3.656,1.125,1.125,0,0,0-1.214-.985A1.151,1.151,0,0,0,61.832,80.6c-.077.591-.068,1.192-.1,1.78M67.9,62.508a10.956,10.956,0,0,0,.081,1.787,1.187,1.187,0,0,0,1.281,1.011A1.118,1.118,0,0,0,70.447,64.3a13.874,13.874,0,0,0,0-3.573A1.136,1.136,0,0,0,69.264,59.7a1.2,1.2,0,0,0-1.286,1.016,11.626,11.626,0,0,0-.081,1.788m5.728,49.728c-.029-.586-.026-1.185-.1-1.777a1.148,1.148,0,0,0-1.24-1.056,1.126,1.126,0,0,0-1.218.981,12.232,12.232,0,0,0,.005,3.651,1.252,1.252,0,0,0,2.454-.085c.072-.562.066-1.134.095-1.715m-6.215-.076c0-.539.042-1.083-.01-1.617a1.262,1.262,0,0,0-2.514.008,17.838,17.838,0,0,0,0,3.321,1.26,1.26,0,0,0,2.508-.01,16.2,16.2,0,0,0,.011-1.7m-3-9.968c-.026-.568-.01-1.142-.089-1.7a1.168,1.168,0,0,0-1.293-1.1,1.154,1.154,0,0,0-1.218,1.175c-.05,1.079-.042,2.164,0,3.244a1.263,1.263,0,0,0,2.514.084c.073-.562.063-1.135.089-1.7m3.005-29.633h-.007a15.893,15.893,0,0,0-.012-1.7,1.26,1.26,0,0,0-2.507.022,17.768,17.768,0,0,0,0,3.321,1.168,1.168,0,0,0,1.265,1.13A1.181,1.181,0,0,0,67.4,74.177c.051-.535.01-1.078.01-1.618m6.211.006c-.029-.6-.022-1.2-.1-1.787a1.252,1.252,0,0,0-2.455-.071,12.2,12.2,0,0,0,0,3.651,1.123,1.123,0,0,0,1.223.973,1.148,1.148,0,0,0,1.235-1.062c.066-.563.065-1.134.094-1.7M64.812,92.372c.026.568.021,1.139.086,1.7A1.143,1.143,0,0,0,66.1,95.162,1.122,1.122,0,0,0,67.37,94.15a13.24,13.24,0,0,0,0-3.57,1.123,1.123,0,0,0-1.27-1.008,1.145,1.145,0,0,0-1.2,1.095c-.063.563-.059,1.135-.085,1.7M61.738,62.505h.074c0,.568-.045,1.141.012,1.7a1.14,1.14,0,0,0,1.2,1.1A1.126,1.126,0,0,0,64.3,64.3a12.922,12.922,0,0,0,0-3.569A1.144,1.144,0,0,0,63.031,59.7a1.159,1.159,0,0,0-1.21,1.1c-.058.565-.057,1.135-.083,1.7M76.626,82.38h.009c0-.541.027-1.083-.007-1.622a1.187,1.187,0,0,0-1.195-1.211,1.157,1.157,0,0,0-1.314,1.073,13.642,13.642,0,0,0,.007,3.487A1.256,1.256,0,0,0,76.619,84c.039-.538.008-1.081.008-1.621m0,19.805c0-.54.032-1.083-.008-1.621A1.161,1.161,0,0,0,75.484,99.4a1.137,1.137,0,0,0-1.349,1.015,12.827,12.827,0,0,0,0,3.568A1.142,1.142,0,0,0,75.412,105a1.182,1.182,0,0,0,1.214-1.191c.032-.538.006-1.081,0-1.621m-17.893,9.97h0c0,.568-.036,1.14.009,1.7A1.147,1.147,0,0,0,59.9,115a1.115,1.115,0,0,0,1.307-.956,11.959,11.959,0,0,0,.007-3.646,1.131,1.131,0,0,0-1.293-.985,1.153,1.153,0,0,0-1.177,1.127c-.038.537-.008,1.079-.008,1.619m17.9-49.57h0c0-.568.03-1.139-.007-1.705a1.174,1.174,0,0,0-1.228-1.172,1.144,1.144,0,0,0-1.263,1.031,13,13,0,0,0,.007,3.566,1.124,1.124,0,0,0,1.279,1,1.172,1.172,0,0,0,1.208-1.184c.041-.508.008-1.023.008-1.534M58.734,72.5h0c0,.568-.032,1.139.008,1.7a1.149,1.149,0,0,0,1.178,1.125,1.13,1.13,0,0,0,1.293-.985,11.957,11.957,0,0,0-.007-3.646,1.114,1.114,0,0,0-1.309-.954,1.147,1.147,0,0,0-1.157,1.136c-.045.536-.009,1.079-.009,1.619m.008,19.781c0,.6-.038,1.2.01,1.789a1.251,1.251,0,0,0,2.446.17,11.245,11.245,0,0,0,0-3.728,1.25,1.25,0,0,0-2.447.151c-.048.535-.01,1.078-.012,1.618M82.785,82.4h-.009c0-.569.031-1.141-.008-1.707A1.161,1.161,0,0,0,81.6,79.548a1.129,1.129,0,0,0-1.307.971,12.263,12.263,0,0,0,0,3.652,1.127,1.127,0,0,0,1.3.981,1.186,1.186,0,0,0,1.186-1.216c.028-.511.005-1.025.005-1.537m-27.118-.121h-.009c0,.569-.027,1.14.007,1.707a1.167,1.167,0,0,0,1.143,1.165A1.119,1.119,0,0,0,58.13,84.2a11.465,11.465,0,0,0-.006-3.732,1.11,1.11,0,0,0-1.256-.927,1.157,1.157,0,0,0-1.192,1.112c-.047.536-.009,1.08-.009,1.621m-.524,29.957h-.021a13.994,13.994,0,0,0-.014-1.7,1.264,1.264,0,0,0-2.522.111c-.04,1.022-.033,2.046-.008,3.069a1.193,1.193,0,0,0,1.2,1.284,1.243,1.243,0,0,0,1.358-1.229,15.1,15.1,0,0,0,.01-1.534m27.635-49.7h0c0-.54.021-1.082-.005-1.621a1.181,1.181,0,0,0-1.2-1.2,1.134,1.134,0,0,0-1.289,1,12.25,12.25,0,0,0,.013,3.649,1.119,1.119,0,0,0,1.318.948,1.156,1.156,0,0,0,1.15-1.148c.041-.537.009-1.08.009-1.62m3.086,9.988h.008q0-.683,0-1.366c0-.057,0-.114-.009-.17a1.251,1.251,0,0,0-1.24-1.252,1.221,1.221,0,0,0-1.31,1.185,28.837,28.837,0,0,0,0,3.24,1.274,1.274,0,0,0,2.545-.1c.031-.51.006-1.024.006-1.535M79.7,72.493c0-.54.036-1.082-.009-1.618a1.146,1.146,0,0,0-1.158-1.133,1.115,1.115,0,0,0-1.3.96,12.066,12.066,0,0,0,0,3.644,1.128,1.128,0,0,0,1.294.98A1.15,1.15,0,0,0,79.688,74.2c.038-.565.008-1.135.01-1.7m3.075,29.68h.006c0-.541.032-1.084-.008-1.621A1.159,1.159,0,0,0,81.623,99.4a1.113,1.113,0,0,0-1.318.947,11.632,11.632,0,0,0,.009,3.732,1.114,1.114,0,0,0,1.262.919,1.157,1.157,0,0,0,1.189-1.117c.04-.566.008-1.137.008-1.706m-3.079,10.015H79.7c0-.54.025-1.081-.006-1.619a1.157,1.157,0,0,0-1.148-1.156,1.119,1.119,0,0,0-1.313.949,11.245,11.245,0,0,0,.012,3.726,1.107,1.107,0,0,0,1.342.9,1.132,1.132,0,0,0,1.1-1.1c.047-.564.01-1.135.01-1.7m6.171.008h.007q0-.683,0-1.366c0-.057,0-.114-.009-.17a1.276,1.276,0,0,0-2.551-.062,28.9,28.9,0,0,0,.006,3.24A1.215,1.215,0,0,0,84.643,115a1.233,1.233,0,0,0,1.217-1.273c.03-.51.005-1.024.005-1.535m-30.2-9.982h.006c0,.569-.036,1.14.009,1.706a1.141,1.141,0,0,0,1.138,1.074,1.108,1.108,0,0,0,1.29-.875,10.682,10.682,0,0,0,.011-3.812,1.108,1.108,0,0,0-1.345-.9,1.139,1.139,0,0,0-1.1,1.106c-.045.565-.009,1.137-.009,1.706M85.859,92.4c0-.54.026-1.082-.006-1.621a1.169,1.169,0,0,0-1.189-1.2,1.145,1.145,0,0,0-1.323,1.051,14.562,14.562,0,0,0,0,3.487,1.142,1.142,0,0,0,1.336,1.034,1.173,1.173,0,0,0,1.174-1.215c.03-.51.006-1.024,0-1.535M79.7,92.368c0-.54.027-1.081-.007-1.619a1.146,1.146,0,0,0-1.13-1.163,1.13,1.13,0,0,0-1.352,1,12.6,12.6,0,0,0,0,3.562,1.129,1.129,0,0,0,1.352,1A1.146,1.146,0,0,0,79.7,93.987c.036-.537.007-1.079.007-1.619" transform="translate(-35.667 -39.772)" fill="#e9dfda"/>
        <path id="Trazado_118773" data-name="Trazado 118773" d="M42.826,77.2c-.007,1.815-.381,3.593-.547,5.392-.153,1.656-.426,3.3-.638,4.95-.168,1.315-.324,2.631-.485,3.946-.031.251-.1.513.161.7q-.048.578-.1,1.157c-.33.194-.337.388,0,.582v.269c-.365.042-.41.285-.448.6-.322,2.7-.679,5.388-1,8.084-.31,2.613-.572,5.232-.885,7.845-.316,2.639-.673,5.274-1,7.912a8.851,8.851,0,0,0-.011,1.025c-1.282.017-2.564.019-3.846.058-.508.015-.466-.275-.425-.606q.545-4.371,1.088-8.742.987-7.979,1.97-15.959,1.079-8.743,2.158-17.487.978-7.937,1.954-15.875c.1-.849.247-1.695.31-2.546.034-.457.215-.572.637-.555.684.028,1.37-.009,2.054.012a1.755,1.755,0,0,0,1.459-.555c.025,1.452-.482,2.864-.331,4.327a1.535,1.535,0,0,0-.575,1.173,31.675,31.675,0,0,0,.078,3.56c-.554.754-.343,1.674-.522,2.509-.21.981-.255,2-.372,3a1.4,1.4,0,0,0-1.579-.231,1.416,1.416,0,0,0-.685,1.446c.012.8-.005,1.591,0,2.386.015,1.182.381,1.556,1.566,1.624" transform="translate(-24.36 -41.631)" fill="#d7cdc8"/>
        <path id="Trazado_118774" data-name="Trazado 118774" d="M13.543,293.7a3.194,3.194,0,0,0,3.02,1.869q27.42.009,54.84,0c-.088,1.924-.735,2.56-2.618,2.56q-28.353,0-56.7,0c-2.045,0-2.911-1.041-2.487-2.977a1.671,1.671,0,0,1,1.727-1.466c.74-.031,1.482.008,2.223.016" transform="translate(-6.881 -212.99)" fill="#8fabdf"/>
        <path id="Trazado_118775" data-name="Trazado 118775" d="M77.249,9.445c1.255-.011,2.51-.032,3.765-.032q11.133,0,22.265,0c1.947,0,2.8.851,2.791,2.817,0,2.082-.027,4.165-.042,6.247L98.1,18.46c.234-.094.473-.177.7-.284a3.376,3.376,0,0,0,2.106-2.864,3.378,3.378,0,0,0-1.524-3.293c-1.037-.714-1.721-.515-2.3.643l-2.527,0a1.494,1.494,0,0,0-1.734-1.273c-.8.036-1.6.006-2.4.007-2.966.007-5.933-.03-8.9.039A3.377,3.377,0,0,0,78.215,14.7c-.121,1.737.79,2.946,2.832,3.761-.482.005-.964.015-1.445.015-1.622,0-2.352-.708-2.357-2.311-.007-2.24,0-4.48,0-6.72" transform="translate(-56.021 -6.825)" fill="#b7c8e8"/>
        <path id="Trazado_118776" data-name="Trazado 118776" d="M65.973,9.455c0,2.24-.012,4.48,0,6.72.005,1.6.736,2.31,2.357,2.311.482,0,.963-.01,1.445-.015H86.824l7.928.017c.161,2.073.161,2.073-1.847,2.073q-11.338,0-22.676,0c-1.188,0-1.487.224-1.856,1.34l-2.541.006c-.233-1.022-.6-1.311-1.647-1.349-.763-.028-1.769.325-2.225-.136-.494-.5-.143-1.512-.151-2.3-.022-2.053-.018-4.106,0-6.159A2.318,2.318,0,0,1,64.35,9.425c.541,0,1.082.02,1.623.03" transform="translate(-44.745 -6.835)" fill="#91ade0"/>
        <path id="Trazado_118777" data-name="Trazado 118777" d="M119.916,219.815c-.027.6-.023,1.139-.082,1.675a1.182,1.182,0,0,1-1.27,1.133,1.153,1.153,0,0,1-1.231-1.074,14.535,14.535,0,0,1,.008-3.491,1.254,1.254,0,0,1,2.476.024c.079.59.071,1.191.1,1.734" transform="translate(-85.025 -157.395)" fill="#0b0a0a"/>
        <path id="Trazado_118778" data-name="Trazado 118778" d="M119.9,147.511c-.031.632-.028,1.2-.1,1.767a1.162,1.162,0,0,1-1.211,1.1,1.137,1.137,0,0,1-1.266-1.025,13.029,13.029,0,0,1,0-3.575,1.249,1.249,0,0,1,2.456.011c.081.59.081,1.191.113,1.726" transform="translate(-85.008 -104.989)" fill="#0b0a0a"/>
        <path id="Trazado_118779" data-name="Trazado 118779" d="M131.069,184.071c-.025.568-.018,1.14-.083,1.7a1.142,1.142,0,0,1-1.208,1.085,1.126,1.126,0,0,1-1.269-1.013,13.013,13.013,0,0,1,0-3.57,1.254,1.254,0,0,1,2.474.088c.051.564.01,1.136.01,1.7h.074" transform="translate(-93.115 -131.47)" fill="#0a0a09"/>
        <path id="Trazado_118780" data-name="Trazado 118780" d="M94.887,147.6c.029-.588.021-1.189.1-1.78a1.151,1.151,0,0,1,1.241-1.057,1.124,1.124,0,0,1,1.214.985,12.287,12.287,0,0,1,0,3.656,1.121,1.121,0,0,1-1.221.975,1.154,1.154,0,0,1-1.234-1.064c-.074-.562-.066-1.135-.095-1.715" transform="translate(-68.819 -104.991)" fill="#0a0a09"/>
        <path id="Trazado_118781" data-name="Trazado 118781" d="M117.315,75.355a11.626,11.626,0,0,1,.081-1.788,1.2,1.2,0,0,1,1.286-1.016,1.136,1.136,0,0,1,1.186,1.023,13.862,13.862,0,0,1,0,3.573,1.118,1.118,0,0,1-1.188,1.007,1.187,1.187,0,0,1-1.281-1.011,10.989,10.989,0,0,1-.081-1.787" transform="translate(-85.085 -52.618)" fill="#0a0a0a"/>
        <path id="Trazado_118782" data-name="Trazado 118782" d="M131.066,256.286c-.029.581-.023,1.152-.094,1.715a1.252,1.252,0,0,1-2.454.085,12.221,12.221,0,0,1,0-3.651,1.126,1.126,0,0,1,1.218-.981,1.147,1.147,0,0,1,1.24,1.056c.07.591.067,1.191.1,1.777" transform="translate(-93.109 -183.822)" fill="#0a0a09"/>
        <path id="Trazado_118783" data-name="Trazado 118783" d="M108.683,256.213a16.277,16.277,0,0,1-.012,1.7,1.26,1.26,0,0,1-2.508.01,17.839,17.839,0,0,1,0-3.322,1.262,1.262,0,0,1,2.513-.008c.052.534.01,1.078.01,1.618" transform="translate(-76.939 -183.824)" fill="#0a0a0a"/>
        <path id="Trazado_118784" data-name="Trazado 118784" d="M97.664,219.817c-.026.569-.016,1.141-.089,1.7a1.263,1.263,0,0,1-2.514-.084c-.039-1.08-.047-2.165,0-3.244a1.154,1.154,0,0,1,1.218-1.175,1.167,1.167,0,0,1,1.293,1.1c.079.56.063,1.134.089,1.7" transform="translate(-68.922 -157.396)" fill="#0a0a09"/>
        <path id="Trazado_118785" data-name="Trazado 118785" d="M108.686,111.893c0,.54.041,1.083-.01,1.618a1.181,1.181,0,0,1-1.249,1.154,1.168,1.168,0,0,1-1.265-1.13,17.745,17.745,0,0,1,0-3.321,1.26,1.26,0,0,1,2.507-.022,15.89,15.89,0,0,1,.012,1.7h.007" transform="translate(-76.939 -79.106)" fill="#0a0a0a"/>
        <path id="Trazado_118786" data-name="Trazado 118786" d="M131.065,111.895c-.029.569-.028,1.14-.094,1.7a1.149,1.149,0,0,1-1.235,1.062,1.123,1.123,0,0,1-1.223-.973,12.211,12.211,0,0,1,0-3.651,1.252,1.252,0,0,1,2.455.071c.074.59.067,1.191.1,1.788" transform="translate(-93.107 -79.1)" fill="#0a0a0a"/>
        <path id="Trazado_118787" data-name="Trazado 118787" d="M106.087,184.069c.026-.569.022-1.14.085-1.7a1.145,1.145,0,0,1,1.2-1.095,1.123,1.123,0,0,1,1.27,1.008,13.254,13.254,0,0,1,0,3.57,1.123,1.123,0,0,1-1.267,1.012,1.143,1.143,0,0,1-1.206-1.088c-.065-.563-.06-1.134-.086-1.7" transform="translate(-76.942 -131.47)" fill="#0b0a0a"/>
        <path id="Trazado_118788" data-name="Trazado 118788" d="M94.9,75.354c.025-.568.024-1.139.083-1.7a1.159,1.159,0,0,1,1.21-1.1,1.143,1.143,0,0,1,1.268,1.025,12.921,12.921,0,0,1,0,3.569,1.126,1.126,0,0,1-1.274,1.006,1.139,1.139,0,0,1-1.2-1.1c-.056-.563-.012-1.135-.012-1.7H94.9" transform="translate(-68.827 -52.62)" fill="#0a0a09"/>
        <path id="Trazado_118789" data-name="Trazado 118789" d="M142.189,147.6c0,.54.032,1.083-.008,1.621a1.256,1.256,0,0,1-2.491.106,13.644,13.644,0,0,1-.007-3.487A1.157,1.157,0,0,1,141,144.77a1.187,1.187,0,0,1,1.195,1.211c.034.539.006,1.081.006,1.622h-.009" transform="translate(-101.23 -104.995)" fill="#050505"/>
        <path id="Trazado_118790" data-name="Trazado 118790" d="M142.19,219.811c0,.541.027,1.083-.005,1.621a1.182,1.182,0,0,1-1.214,1.191,1.141,1.141,0,0,1-1.276-1.014,12.817,12.817,0,0,1,0-3.568,1.137,1.137,0,0,1,1.349-1.015,1.161,1.161,0,0,1,1.138,1.164c.04.537.008,1.08.009,1.621" transform="translate(-101.225 -157.397)" fill="#050505"/>
        <path id="Trazado_118791" data-name="Trazado 118791" d="M83.93,256.211c0-.54-.031-1.082.008-1.619a1.153,1.153,0,0,1,1.177-1.127,1.131,1.131,0,0,1,1.293.985A11.968,11.968,0,0,1,86.4,258.1a1.115,1.115,0,0,1-1.307.956,1.147,1.147,0,0,1-1.158-1.137c-.045-.565-.009-1.136-.009-1.7h0" transform="translate(-60.86 -183.828)" fill="#050505"/>
        <path id="Trazado_118792" data-name="Trazado 118792" d="M142.2,75.44c0,.512.034,1.026-.008,1.534a1.173,1.173,0,0,1-1.208,1.184,1.124,1.124,0,0,1-1.278-1,12.981,12.981,0,0,1-.007-3.566,1.144,1.144,0,0,1,1.263-1.031,1.174,1.174,0,0,1,1.228,1.172c.037.566.007,1.137.007,1.705h0" transform="translate(-101.229 -52.627)" fill="#050505"/>
        <path id="Trazado_118793" data-name="Trazado 118793" d="M83.926,111.831c0-.54-.036-1.083.009-1.619a1.147,1.147,0,0,1,1.157-1.137,1.114,1.114,0,0,1,1.309.954,11.968,11.968,0,0,1,.007,3.646,1.13,1.13,0,0,1-1.293.984,1.149,1.149,0,0,1-1.178-1.125c-.04-.565-.008-1.136-.008-1.7h0" transform="translate(-60.86 -79.106)" fill="#050505"/>
        <path id="Trazado_118794" data-name="Trazado 118794" d="M83.955,183.99c0-.54-.037-1.083.011-1.618a1.25,1.25,0,0,1,2.447-.151,11.259,11.259,0,0,1,0,3.728,1.251,1.251,0,0,1-2.446-.17c-.048-.593-.01-1.192-.009-1.789" transform="translate(-60.879 -131.484)" fill="#040404"/>
        <path id="Trazado_118795" data-name="Trazado 118795" d="M61.376,184q0-.134,0-.269v-.582l.1-1.157a1.346,1.346,0,0,1,1.657-.677,1.387,1.387,0,0,1,.874,1.5c0,.851.02,1.7-.005,2.553-.028.925-.537,1.473-1.308,1.469s-1.242-.535-1.276-1.48c-.016-.453-.024-.906-.036-1.359" transform="translate(-44.513 -131.44)" fill="#030303"/>
        <path id="Trazado_118796" data-name="Trazado 118796" d="M164.577,147.619c0,.512.023,1.026-.005,1.537a1.186,1.186,0,0,1-1.186,1.216,1.127,1.127,0,0,1-1.3-.981,12.253,12.253,0,0,1,0-3.652,1.128,1.128,0,0,1,1.307-.971,1.161,1.161,0,0,1,1.164,1.144c.038.566.008,1.138.008,1.707h.009" transform="translate(-117.458 -104.992)" fill="#050505"/>
        <path id="Trazado_118797" data-name="Trazado 118797" d="M72.75,147.5c0-.541-.038-1.084.009-1.621a1.157,1.157,0,0,1,1.192-1.112,1.11,1.11,0,0,1,1.256.927,11.465,11.465,0,0,1,.006,3.732,1.119,1.119,0,0,1-1.321.946,1.167,1.167,0,0,1-1.143-1.165c-.035-.567-.007-1.138-.007-1.707h.009" transform="translate(-52.75 -104.992)" fill="#050505"/>
        <path id="Trazado_118798" data-name="Trazado 118798" d="M64.07,256.263a15.1,15.1,0,0,1-.01,1.534,1.243,1.243,0,0,1-1.358,1.229,1.194,1.194,0,0,1-1.2-1.284c-.025-1.023-.031-2.047.008-3.069a1.264,1.264,0,0,1,2.522-.111,13.933,13.933,0,0,1,.014,1.7h.021" transform="translate(-44.593 -183.799)" fill="#040404"/>
        <path id="Trazado_118799" data-name="Trazado 118799" d="M164.571,75.386c0,.54.033,1.083-.008,1.62a1.156,1.156,0,0,1-1.15,1.148,1.119,1.119,0,0,1-1.318-.948,12.269,12.269,0,0,1-.013-3.649,1.134,1.134,0,0,1,1.289-1,1.182,1.182,0,0,1,1.2,1.2c.027.539.005,1.081.005,1.621h0" transform="translate(-117.459 -52.624)" fill="#050505"/>
        <path id="Trazado_118800" data-name="Trazado 118800" d="M175.864,111.841c0,.512.025,1.026-.006,1.536a1.274,1.274,0,0,1-2.545.1,28.9,28.9,0,0,1,0-3.24,1.221,1.221,0,0,1,1.31-1.186,1.251,1.251,0,0,1,1.24,1.253c.005.057.009.113.009.17q0,.682,0,1.365h-.008" transform="translate(-125.665 -79.092)" fill="#040404"/>
        <path id="Trazado_118801" data-name="Trazado 118801" d="M153.375,111.827c0,.568.029,1.138-.009,1.7a1.149,1.149,0,0,1-1.171,1.129,1.128,1.128,0,0,1-1.294-.98,12.064,12.064,0,0,1,0-3.644,1.115,1.115,0,0,1,1.3-.96,1.146,1.146,0,0,1,1.158,1.133c.045.536.009,1.078.008,1.618" transform="translate(-109.345 -79.106)" fill="#050505"/>
        <path id="Trazado_118802" data-name="Trazado 118802" d="M164.562,219.794c0,.569.032,1.14-.008,1.706a1.157,1.157,0,0,1-1.189,1.117,1.114,1.114,0,0,1-1.262-.919,11.639,11.639,0,0,1-.009-3.732,1.114,1.114,0,0,1,1.318-.947,1.159,1.159,0,0,1,1.148,1.153c.04.537.008,1.081.008,1.621h-.006" transform="translate(-117.455 -157.393)" fill="#050505"/>
        <path id="Trazado_118803" data-name="Trazado 118803" d="M153.363,256.247c0,.568.037,1.139-.01,1.7a1.131,1.131,0,0,1-1.1,1.1,1.107,1.107,0,0,1-1.342-.9,11.248,11.248,0,0,1-.012-3.726,1.119,1.119,0,0,1,1.313-.949,1.158,1.158,0,0,1,1.148,1.155c.031.538.006,1.079.006,1.619h-.006" transform="translate(-109.335 -183.831)" fill="#050505"/>
        <path id="Trazado_118804" data-name="Trazado 118804" d="M175.865,256.205c0,.512.024,1.025-.006,1.536a1.233,1.233,0,0,1-1.217,1.272,1.215,1.215,0,0,1-1.326-1.166,28.9,28.9,0,0,1-.005-3.24,1.276,1.276,0,0,1,2.551.062c.005.057.009.114.009.17q0,.683,0,1.366h-.007" transform="translate(-125.667 -183.781)" fill="#040404"/>
        <path id="Trazado_118805" data-name="Trazado 118805" d="M72.756,77.561A31.742,31.742,0,0,1,72.677,74a1.537,1.537,0,0,1,.575-1.173c1.3-.373,1.987.112,2.016,1.434.017.795,0,1.59,0,2.385a1.439,1.439,0,0,1-.835,1.535,1.352,1.352,0,0,1-1.681-.621" transform="translate(-52.703 -52.732)" fill="#050505"/>
        <path id="Trazado_118806" data-name="Trazado 118806" d="M72.759,219.833c0-.569-.036-1.141.009-1.706a1.139,1.139,0,0,1,1.1-1.106,1.109,1.109,0,0,1,1.346.9,10.689,10.689,0,0,1-.011,3.812,1.108,1.108,0,0,1-1.29.875,1.142,1.142,0,0,1-1.138-1.074c-.045-.565-.009-1.137-.009-1.706h-.005" transform="translate(-52.76 -157.391)" fill="#050505"/>
        <path id="Trazado_118807" data-name="Trazado 118807" d="M63.069,114.636c-1.184-.068-1.551-.442-1.566-1.624-.01-.8.007-1.591,0-2.386a1.416,1.416,0,0,1,.685-1.446,1.4,1.4,0,0,1,1.579.231,8.822,8.822,0,0,1,.216,4.317c-.039.491-.482.727-.909.908" transform="translate(-44.603 -79.072)" fill="#040404"/>
        <path id="Trazado_118808" data-name="Trazado 118808" d="M175.779,184.114c0,.512.025,1.025,0,1.535a1.173,1.173,0,0,1-1.174,1.215,1.142,1.142,0,0,1-1.336-1.034,14.563,14.563,0,0,1,0-3.487,1.145,1.145,0,0,1,1.323-1.051,1.169,1.169,0,0,1,1.189,1.2c.032.538.006,1.08.007,1.621" transform="translate(-125.586 -131.483)" fill="#030303"/>
        <path id="Trazado_118809" data-name="Trazado 118809" d="M153.383,184.082c0,.54.029,1.081-.007,1.619a1.146,1.146,0,0,1-1.13,1.163,1.129,1.129,0,0,1-1.351-1,12.6,12.6,0,0,1,0-3.562,1.129,1.129,0,0,1,1.351-1,1.145,1.145,0,0,1,1.13,1.163c.034.537.007,1.079.007,1.619" transform="translate(-109.348 -131.486)" fill="#040404"/>
        <path id="Trazado_118810" data-name="Trazado 118810" d="M60.715,188.211v.582c-.337-.194-.33-.388,0-.582" transform="translate(-43.853 -136.504)" fill="#e9dfda"/>
        <path id="Trazado_118811" data-name="Trazado 118811" d="M100.642,23.666H83.589c-2.042-.814-2.953-2.024-2.832-3.761a3.377,3.377,0,0,1,3.316-3.268c2.964-.069,5.931-.032,8.9-.039.8,0,1.6.028,2.4-.008A1.494,1.494,0,0,1,97.1,17.864c-.366,1.11-.665,1.331-1.86,1.332q-5.347.006-10.694,0c-.64,0-1.166.161-1.185.908-.018.731.474.989,1.122.989q7.657.007,15.314,0a.986.986,0,0,0,1.027-.618.936.936,0,0,0-.436-1.181,1.518,1.518,0,0,1-.761-1.429c.577-1.157,1.261-1.357,2.3-.643a3.53,3.53,0,0,1-.582,6.157c-.228.107-.466.19-.7.284" transform="translate(-58.563 -12.031)" fill="#020303"/>
      </g>
    </g>
  </g>
</svg>
