<svg xmlns="http://www.w3.org/2000/svg" xmlns:xlink="http://www.w3.org/1999/xlink" width="109" height="109" viewBox="0 0 109 109">
  <defs>
    <clipPath id="clip-path">
      <rect id="Rect치ngulo_35050" data-name="Rect치ngulo 35050" width="77.118" height="77.118" fill="none"/>
    </clipPath>
  </defs>
  <g id="Grupo_80970" data-name="Grupo 80970" transform="translate(-741 -6977)">
    <rect id="Rect치ngulo_35045" data-name="Rect치ngulo 35045" width="109" height="109" transform="translate(741 6977)" fill="none"/>
    <g id="Grupo_80976" data-name="Grupo 80976" transform="translate(757 6993)">
      <g id="Grupo_80976-2" data-name="Grupo 80976" clip-path="url(#clip-path)">
        <path id="Trazado_118824" data-name="Trazado 118824" d="M77.046,1.576c-.408.432-.805.874-1.225,1.294Q60.454,18.243,45.072,33.6a1.479,1.479,0,0,0-.478,1.444c.361,2.249.651,4.51,1,6.761a3.044,3.044,0,0,1-.964,2.835q-15.583,15.53-31.126,31.1c-1.842,1.842-3.618,1.836-5.469-.013q-3.378-3.376-6.754-6.755c-1.706-1.711-1.712-3.551-.01-5.255Q16.933,48.051,32.589,32.382a2.737,2.737,0,0,1,2.5-.877c2.3.343,4.615.631,6.912,1.007a1.593,1.593,0,0,0,1.571-.519Q59.026,16.495,74.514,1.03C74.845.7,75.2.391,75.541.072c.5,0,1.2-.2,1.45.055s.055.948.055,1.449M7.518,72c.8.818,1.592,1.651,2.413,2.45a1.051,1.051,0,0,0,1.653.037c.9-.861,1.763-1.764,2.657-2.635.265-.258.229-.437-.019-.675-.916-.879-1.819-1.773-2.727-2.661q-2.815-2.853-5.627-5.708c-.264-.269-.424-.115-.613.076-.863.869-1.743,1.722-2.591,2.6a1.049,1.049,0,0,0-.036,1.656C4.241,68.781,5.885,70.386,7.518,72m28.6-28.144c.871.894,1.755,1.775,2.605,2.689.324.347.525.311.838-.012,1.061-1.1,2.121-2.2,3.243-3.228a1.622,1.622,0,0,0,.528-1.6c-.311-2.1-.607-4.194-.9-6.292-.049-.345-.145-.648-.547-.7-.568-.07-1.138-.12-1.707-.179-1.784-.373-3.6-.561-5.4-.812a.662.662,0,0,0-.6.229c-1.235,1.239-2.47,2.48-3.715,3.71-.233.23-.227.387,0,.612q2.834,2.782,5.654,5.578M12.96,66.718c.858.875,1.742,1.726,2.564,2.634.447.493.713.527,1.217.02q10.1-10.153,20.237-20.262c.089-.089.172-.184.267-.265.231-.2.281-.378.031-.617-.939-.9-1.864-1.814-2.795-2.722-1.795-1.818-3.605-3.621-5.372-5.465-.435-.454-.66-.368-1.053.029-2.608,2.639-5.239,5.255-7.863,7.879L7.641,60.5c-.243.243-.551.416-.131.823,1.833,1.782,3.636,3.594,5.45,5.4" transform="translate(0 0.001)" fill="#020203"/>
        <path id="Trazado_118825" data-name="Trazado 118825" d="M37.368,199.532c-1.814-1.8-3.617-3.614-5.45-5.4-.419-.408-.112-.58.131-.823L44.6,180.762c2.624-2.624,5.255-5.24,7.863-7.879.392-.4.618-.482,1.053-.029,1.767,1.844,3.577,3.647,5.372,5.465-.2.174-.4.355-.605.52-.412.324-.643.872-1.22.993l-3.524-3.487c-.866-.856-1.374-.866-2.218-.023Q43.48,184.158,35.644,192c-.83.831-.831,1.331-.017,2.155q1.768,1.791,3.54,3.577a4.214,4.214,0,0,1-1.8,1.8" transform="translate(-24.409 -132.813)" fill="#707283"/>
        <path id="Trazado_118826" data-name="Trazado 118826" d="M137.374,156.578q-2.826-2.79-5.654-5.577c-.23-.226-.236-.383,0-.613,1.246-1.229,2.479-2.47,3.715-3.709a.662.662,0,0,1,.6-.229c1.8.251,3.615.438,5.4.812a19.593,19.593,0,0,0,.405,3.326,2.144,2.144,0,0,1-.622,2.1c-1.317,1.259-2.564,2.591-3.84,3.893" transform="translate(-101.252 -112.718)" fill="#717385"/>
        <path id="Trazado_118827" data-name="Trazado 118827" d="M75.972,199.122c.578-.12.808-.668,1.221-.993.209-.164.4-.346.605-.52.931.908,1.856,1.822,2.795,2.722.25.239.2.42-.031.617-.095.081-.178.176-.267.265Q70.17,211.339,60.058,221.476c-.5.506-.769.473-1.217-.02-.822-.907-1.706-1.759-2.564-2.634a4.217,4.217,0,0,0,1.8-1.8c.272.257.55.507.815.771,1.189,1.184,1.5,1.184,2.693-.011l15.155-15.155c.16-.16.328-.312.473-.484a1.125,1.125,0,0,0-.044-1.779c-.392-.42-.8-.828-1.2-1.241" transform="translate(-43.317 -152.103)" fill="#525361"/>
        <path id="Trazado_118828" data-name="Trazado 118828" d="M15,281.466c-1.633-1.617-3.277-3.222-4.892-4.856a1.049,1.049,0,0,1,.036-1.655c.849-.883,1.728-1.736,2.591-2.6.19-.191.35-.345.613-.076q2.807,2.861,5.627,5.708a37.2,37.2,0,0,0-2.809,2.7,2.809,2.809,0,0,1-1.167.782" transform="translate(-7.481 -209.462)" fill="#717385"/>
        <path id="Trazado_118829" data-name="Trazado 118829" d="M156.857,159.314c1.276-1.3,2.523-2.634,3.84-3.893a2.144,2.144,0,0,0,.622-2.1,19.6,19.6,0,0,1-.405-3.326c.569.059,1.139.11,1.707.18.4.05.5.352.547.7.3,2.1.593,4.2.9,6.291a1.623,1.623,0,0,1-.527,1.6c-1.122,1.032-2.182,2.133-3.243,3.228-.313.323-.514.36-.837.012-.85-.913-1.735-1.795-2.606-2.689" transform="translate(-120.735 -115.455)" fill="#525361"/>
        <path id="Trazado_118830" data-name="Trazado 118830" d="M32.644,301.028a2.809,2.809,0,0,0,1.167-.782,37.217,37.217,0,0,1,2.809-2.7c.908.888,1.811,1.782,2.728,2.661.248.238.283.417.019.675-.893.87-1.754,1.774-2.657,2.634a1.051,1.051,0,0,1-1.653-.037c-.821-.8-1.61-1.632-2.413-2.45" transform="translate(-25.127 -229.024)" fill="#535461"/>
        <path id="Trazado_118831" data-name="Trazado 118831" d="M68.12,190.352c.4.413.8.821,1.2,1.241a1.125,1.125,0,0,1,.044,1.779c-.146.172-.314.324-.473.484L53.732,209.011c-1.2,1.2-1.5,1.2-2.692.012-.265-.264-.543-.514-.815-.771q-1.77-1.789-3.54-3.578c-.814-.824-.813-1.324.017-2.155q7.836-7.841,15.677-15.677c.844-.844,1.352-.834,2.218.023l3.524,3.487m-1.45,1.784c-.893-.911-1.806-1.8-2.669-2.741-.393-.428-.619-.434-1.042-.009q-6.827,6.878-13.7,13.716a2.561,2.561,0,0,1-.213.211c-.262.207-.227.38.006.6.992.953,1.969,1.921,2.952,2.883.241.5.466.323.763.023q3.809-3.835,7.639-7.65,3.132-3.132,6.267-6.261c.287-.286.5-.522-.008-.777" transform="translate(-35.466 -143.334)" fill="#020202"/>
        <path id="Trazado_118832" data-name="Trazado 118832" d="M61.342,216.343c-.983-.962-1.96-1.93-2.952-2.883-.232-.223-.268-.4-.006-.6a2.56,2.56,0,0,0,.213-.211q6.853-6.853,13.7-13.716c.423-.426.649-.419,1.042.009.862.939,1.776,1.83,2.669,2.741a6.08,6.08,0,0,0-.521.421q-6.865,6.856-13.721,13.721a6.074,6.074,0,0,0-.42.522m3.886-5.638a1.139,1.139,0,0,0,1.121-1.159,1.1,1.1,0,0,0-1.156-1.1,1.143,1.143,0,0,0-1.1,1.1,1.188,1.188,0,0,0,1.139,1.159m4.141-4.185a1.1,1.1,0,0,0-1.159-1.1,1.147,1.147,0,0,0-1.1,1.106,1.2,1.2,0,0,0,1.143,1.155,1.142,1.142,0,0,0,1.115-1.162" transform="translate(-44.798 -152.876)" fill="#78c1e0"/>
        <path id="Trazado_118833" data-name="Trazado 118833" d="M71.838,226.589a6.041,6.041,0,0,1,.42-.522q6.856-6.865,13.721-13.721a6.156,6.156,0,0,1,.521-.421c.5.255.295.491.008.777q-3.142,3.122-6.268,6.26-3.822,3.822-7.638,7.65c-.3.3-.522.476-.763-.023" transform="translate(-55.295 -163.122)" fill="#6db1c5"/>
        <path id="Trazado_118834" data-name="Trazado 118834" d="M84.9,243.557a1.189,1.189,0,0,1-1.139-1.159,1.143,1.143,0,0,1,1.1-1.1,1.1,1.1,0,0,1,1.157,1.1,1.139,1.139,0,0,1-1.121,1.159" transform="translate(-64.476 -185.728)" fill="#040607"/>
        <path id="Trazado_118835" data-name="Trazado 118835" d="M99.148,229.274a1.142,1.142,0,0,1-1.115,1.162,1.2,1.2,0,0,1-1.143-1.155,1.147,1.147,0,0,1,1.1-1.106,1.1,1.1,0,0,1,1.159,1.1" transform="translate(-74.577 -175.63)" fill="#040607"/>
      </g>
    </g>
  </g>
</svg>
