<svg xmlns="http://www.w3.org/2000/svg" xmlns:xlink="http://www.w3.org/1999/xlink" width="109" height="109" viewBox="0 0 109 109">
  <defs>
    <clipPath id="clip-path">
      <rect id="Rect치ngulo_35051" data-name="Rect치ngulo 35051" width="99.155" height="44.793" fill="none"/>
    </clipPath>
  </defs>
  <g id="Grupo_80971" data-name="Grupo 80971" transform="translate(-741 -6977)">
    <rect id="Rect치ngulo_35045" data-name="Rect치ngulo 35045" width="109" height="109" transform="translate(741 6977)" fill="none"/>
    <g id="Grupo_80977" data-name="Grupo 80977" transform="translate(746 7009)">
      <g id="Grupo_80977-2" data-name="Grupo 80977" clip-path="url(#clip-path)">
        <path id="Trazado_118836" data-name="Trazado 118836" d="M22.027,8.2a3.382,3.382,0,0,0-1.694-1.815,1.878,1.878,0,0,1-1.165-2c.044-.864,0-1.732.013-2.6a1.578,1.578,0,0,1,1.7-1.772q6.3-.027,12.593,0A1.574,1.574,0,0,1,35.165,1.7c.022.532-.035,1.07.013,1.6.137,1.493-.065,2.761-1.69,3.417a2.326,2.326,0,0,0-1.144,1.471c1.9.274,3.768.431,5.608.8a28.873,28.873,0,0,1,9.366,3.252,7.668,7.668,0,0,1,3.457,3.61c.146.362.441.453.746.593a4.212,4.212,0,0,1,2.207,2.076c.272.611.646.685,1.226.684Q67.2,19.182,79.44,19.2c5,0,9.995-.02,14.992.011a4.78,4.78,0,0,1,4.656,4.032A4.833,4.833,0,0,1,96,28.486a6.021,6.021,0,0,1-2.158.309q-14.692-.009-29.384-.013a1.6,1.6,0,0,0-1.445.608,2.871,2.871,0,0,1-2.306,1,6.043,6.043,0,0,0-4.368,1.887,8.931,8.931,0,0,1-4.517,2.6c-.623.134-.7.424-.669.942a8.357,8.357,0,0,1-1.6,5.735,7.542,7.542,0,0,1-6.151,3.2q-16.241.067-32.482,0a7.893,7.893,0,0,1-7.735-7.841c-.041-3.6-.018-7.2,0-10.793a1.067,1.067,0,0,0-.646-1.149A4.489,4.489,0,0,1,0,20.67a4.558,4.558,0,0,1,2.758-4.182,1.864,1.864,0,0,0,.942-.93A8.763,8.763,0,0,1,7.828,11.79,33.787,33.787,0,0,1,18.78,8.6c1.051-.155,2.109-.266,3.248-.407m6.142-.222c.35.029.739.186.9-.33A6.72,6.72,0,0,1,31.72,4.018a.513.513,0,0,0,.223-.6c-.091-.323-.38-.2-.585-.2-.863,0-1.726.015-2.589.025-1.894-.011-3.788-.028-5.681-.023-.231,0-.563-.164-.683.2s.124.535.382.721a4.363,4.363,0,0,1,1.866,2.152c.46,1.707,1.571,1.928,3.021,1.725.164-.023.331-.023.5-.033m-1,3.257a45.981,45.981,0,0,0-8.636.609,29.345,29.345,0,0,0-9.2,2.748A5.449,5.449,0,0,0,7.416,15.96H25.57L46.014,16h.84q.022-.164.043-.329C40.853,11.942,34.078,11.3,27.17,11.231m-5.4,11.128q13.821.017,27.641.026a1.6,1.6,0,1,0,0-3.183q-12.923,0-25.845.022-9.323-.014-18.646-.022a1.6,1.6,0,1,0,0,3.183c5.617,0,11.234-.015,16.85-.026M6.414,34.783c-.01.6-.032,1.2-.029,1.8a4.806,4.806,0,0,0,4.951,5c1.764.017,3.529,0,5.293,0q13.134,0,26.267,0a4.787,4.787,0,0,0,5.053-4.691c.05-3.528,0-7.057.027-10.586,0-.578-.186-.723-.74-.721q-14.231.035-28.463.036c-3.891-.008-7.782-.007-11.672-.037-.562,0-.737.152-.73.723.037,2.826.033,5.652.043,8.478m76.237-9.191h4.4q3.548,0,7.1,0a1.623,1.623,0,0,0,1.731-1.221,1.494,1.494,0,0,0-.619-1.67,2.2,2.2,0,0,0-1.434-.31q-10.594.006-21.188,0c-2.3,0-2.25,0-2.3,2.259-.019.848.3.959,1.026.953,3.764-.031,7.529-.014,11.293-.014m-25.006-3.2c-1.1,0-2,.012-2.9-.005-.423-.008-.724.035-.929.512a4.264,4.264,0,0,1-2.131,2.155c-.308.15-.541.278-.534.71q.043,2.7,0,5.4c-.007.525.214.543.6.4a6.766,6.766,0,0,0,2.381-1.6,8.687,8.687,0,0,1,5.646-2.682c.982-.066,1.067-.454.985-1.194-.015-.132,0-.266,0-.4-.018-1.06.372-2.493-.164-3.082-.613-.673-2.066-.119-2.949-.206m9.511,1.619c0-1.618,0-1.618-1.182-1.618-2.015,0-2.015,0-2.015,1.182,0,2.015,0,2.015,1.281,2.015,1.916,0,1.916,0,1.916-1.579" transform="translate(0.001 0)" fill="#010101"/>
        <path id="Trazado_118837" data-name="Trazado 118837" d="M44.259,127.708q14.231-.013,28.462-.036c.555,0,.744.143.74.721-.025,3.528.023,7.058-.027,10.585a4.787,4.787,0,0,1-5.053,4.691q-13.134.013-26.267,0c-1.765,0-3.529.013-5.293,0a4.806,4.806,0,0,1-4.951-5c0-.6.018-1.2.028-1.8.187-.064.38-.112.558-.193a34.814,34.814,0,0,0,8.711-5.657,13.08,13.08,0,0,0,3.09-3.314" transform="translate(-25.485 -102.089)" fill="#74808f"/>
        <path id="Trazado_118838" data-name="Trazado 118838" d="M110.458,95.854q12.923-.014,25.845-.022a1.6,1.6,0,1,1,0,3.183q-13.821,0-27.641-.026c.524-1.089,1.451-1.946,1.8-3.135" transform="translate(-86.885 -76.629)" fill="#a7afbb"/>
        <path id="Trazado_118839" data-name="Trazado 118839" d="M363.319,114.946c-3.764,0-7.529-.017-11.293.015-.728.006-1.045-.1-1.026-.953.051-2.258.006-2.259,2.3-2.259q10.594,0,21.188,0a2.2,2.2,0,0,1,1.435.31,1.494,1.494,0,0,1,.619,1.67,1.623,1.623,0,0,1-1.731,1.221q-3.548-.005-7.1,0h-4.4" transform="translate(-280.667 -89.355)" fill="#74808f"/>
        <path id="Trazado_118840" data-name="Trazado 118840" d="M129.2,56.05c6.908.072,13.682.711,19.727,4.437q-.022.164-.043.329h-.84L127.6,60.779a2.216,2.216,0,0,1,.329-1.019,17.267,17.267,0,0,0,1.271-3.71" transform="translate(-102.032 -44.819)" fill="#d3ccc0"/>
        <path id="Trazado_118841" data-name="Trazado 118841" d="M44.2,127.7a13.08,13.08,0,0,1-3.09,3.314,34.814,34.814,0,0,1-8.711,5.657c-.179.081-.372.129-.558.193-.01-2.826-.006-5.652-.043-8.478-.007-.571.168-.728.73-.723,3.891.03,7.782.029,11.672.037" transform="translate(-25.429 -102.084)" fill="#87919f"/>
        <path id="Trazado_118842" data-name="Trazado 118842" d="M56.767,55.969a17.268,17.268,0,0,1-1.271,3.71,2.216,2.216,0,0,0-.329,1.019H37.012a5.452,5.452,0,0,1,1.916-1.372,29.345,29.345,0,0,1,9.2-2.748,45.981,45.981,0,0,1,8.636-.609" transform="translate(-29.596 -44.738)" fill="#e4e1da"/>
        <path id="Trazado_118843" data-name="Trazado 118843" d="M36.306,95.853c-.349,1.189-1.276,2.046-1.8,3.135-5.617.011-11.233.03-16.85.026a1.6,1.6,0,1,1,0-3.183q9.323,0,18.646.022" transform="translate(-12.734 -76.628)" fill="#c0c7d0"/>
        <path id="Trazado_118844" data-name="Trazado 118844" d="M261.774,111.23c.883.087,2.336-.467,2.949.206.536.589.146,2.022.164,3.082,0,.133-.012.268,0,.4.083.74,0,1.128-.985,1.194a8.688,8.688,0,0,0-5.646,2.682,6.763,6.763,0,0,1-2.381,1.6c-.382.146-.6.128-.6-.4q.038-2.7,0-5.4c-.007-.432.226-.559.534-.71a4.265,4.265,0,0,0,2.131-2.155c.2-.477.505-.52.929-.512.9.017,1.8.005,2.9.005" transform="translate(-204.128 -88.836)" fill="#e5e2db"/>
        <path id="Trazado_118845" data-name="Trazado 118845" d="M117.458,20.645c-.166.011-.332.01-.5.033-1.45.2-2.561-.018-3.021-1.725a4.363,4.363,0,0,0-1.866-2.152c-.258-.185-.5-.37-.382-.721s.452-.2.683-.2c1.894,0,3.787.013,5.681.023a41.228,41.228,0,0,1-.6,4.739" transform="translate(-89.288 -12.671)" fill="#87909e"/>
        <path id="Trazado_118846" data-name="Trazado 118846" d="M322.391,113.379c0,1.579,0,1.579-1.916,1.579-1.282,0-1.282,0-1.281-2.015,0-1.183,0-1.183,2.015-1.182,1.182,0,1.182,0,1.182,1.618" transform="translate(-255.235 -89.367)" fill="#a7afbb"/>
        <path id="Trazado_118847" data-name="Trazado 118847" d="M140.585,20.7a41.228,41.228,0,0,0,.6-4.739c.863-.011,1.726-.03,2.589-.025.205,0,.494-.12.585.2a.513.513,0,0,1-.223.6,6.719,6.719,0,0,0-2.652,3.626c-.16.516-.549.359-.9.33" transform="translate(-112.415 -12.725)" fill="#737f8d"/>
      </g>
    </g>
  </g>
</svg>
