<svg xmlns="http://www.w3.org/2000/svg" xmlns:xlink="http://www.w3.org/1999/xlink" width="109" height="109" viewBox="0 0 109 109">
  <defs>
    <clipPath id="clip-path">
      <rect id="Rect치ngulo_35052" data-name="Rect치ngulo 35052" width="99.046" height="72.638" fill="none"/>
    </clipPath>
  </defs>
  <g id="Grupo_80972" data-name="Grupo 80972" transform="translate(-737 -6977)">
    <rect id="Rect치ngulo_35045" data-name="Rect치ngulo 35045" width="109" height="109" transform="translate(737 6977)" fill="none"/>
    <g id="Grupo_80978" data-name="Grupo 80978" transform="translate(737 6991)">
      <g id="Grupo_80978-2" data-name="Grupo 80978" transform="translate(5.099 3.74)" clip-path="url(#clip-path)">
        <path id="Trazado_118848" data-name="Trazado 118848" d="M22.208,1.462C22.5.313,22.823.043,24.022.039c2.513-.009,5.025,0,7.538,0C52.174.036,72.789.066,93.4,0c2.717-.009,4.669.768,5.641,3.411v60.16c-.207.028-.214.216-.271.353a4.387,4.387,0,0,1-4.3,2.849,5.817,5.817,0,0,0-2.285.1c-.64.321-.222,1.335-.494,2.018a5.169,5.169,0,0,1-4.476,3.606,43.334,43.334,0,0,1-6.665.034,5.189,5.189,0,0,1-5.035-4.921c-.058-.648-.193-.847-.876-.846q-25.094.032-50.189,0c-.618,0-.861.087-.922.8a5.158,5.158,0,0,1-5.086,4.965,59.25,59.25,0,0,1-6.377-.016A5.106,5.106,0,0,1,7.157,67.5c-.033-.612-.227-.756-.8-.736a18.234,18.234,0,0,1-2.51-.062A4.274,4.274,0,0,1,.01,62.554C-.009,62.006,0,61.458,0,60.91q0-27.948,0-55.9C0,1.717,1.69.038,5,.037q6,0,11.991,0c1.2,0,1.523.273,1.818,1.423a1.558,1.558,0,0,1-1.733,1.494c-.6.018-1.2.033-1.8.05q-5.125-.02-10.249-.038c-1.785,0-2.126.346-2.126,2.157q0,28.291,0,56.581c0,.194-.006.387,0,.58.043.977.519,1.527,1.488,1.532,3.638.018,7.276-.005,10.914-.013.383.028.766.08,1.15.08q26.016.006,52.032.025c.918,0,1.174-.2,1.171-1.149q-.05-21.471-.023-42.942c0-1.534.493-2.273,1.492-2.241.964.032,1.413.737,1.413,2.225q0,21.519-.018,43.038c0,.79.178,1.029,1,1.025,6.866-.034,13.733-.017,20.6-.022,1.542,0,2.01-.45,2.012-1.911q.007-4.981,0-9.962,0-23.5,0-47c0-1.523-.422-2.005-1.8-2.007-7-.006-13.991,0-20.987-.016-.625,0-.827.163-.82.805.032,2.837.017,5.674.013,8.511,0,1.213-.523,1.9-1.435,1.912s-1.465-.681-1.467-1.878c0-2.74-.05-5.482.025-8.22.027-.975-.29-1.139-1.185-1.137q-17.989.045-35.978.02c-2.8,0-5.609.01-8.414-.006-1.221-.007-1.608-.337-1.882-1.491M15.383,66.8c-1.515,0-3.032.035-4.545-.015-.749-.025-.884.3-.769.924a2.245,2.245,0,0,0,1.959,1.871,32.909,32.909,0,0,0,6.654-.007,2.285,2.285,0,0,0,1.926-1.912c.149-.62.018-.89-.68-.873-1.514.036-3.03.011-4.545.011m68.357,0c-1.547,0-3.095.019-4.641-.01-.615-.012-.8.2-.679.8a2.323,2.323,0,0,0,1.873,1.973,32.088,32.088,0,0,0,6.748.014,2.176,2.176,0,0,0,1.918-1.8c.16-.613.07-1.032-.772-1-1.48.063-2.965.018-4.448.018" transform="translate(0 0)" fill="#020303"/>
        <path id="Trazado_118849" data-name="Trazado 118849" d="M45.469,5.971l1.8-.05A1.558,1.558,0,0,0,49,4.427h3.4c.274,1.154.661,1.484,1.883,1.491,2.8.015,5.609.006,8.414.006q17.989,0,35.977-.02c.9,0,1.212.162,1.186,1.137-.075,2.738-.029,5.48-.025,8.22,0,1.2.55,1.89,1.467,1.878s1.433-.7,1.435-1.912c0-2.837.019-5.674-.013-8.511-.007-.643.195-.807.82-.805,7,.02,13.991.009,20.987.016,1.381,0,1.8.484,1.8,2.007q0,23.5,0,47,0,4.981,0,9.962c0,1.461-.47,1.91-2.012,1.911-6.867,0-13.733-.013-20.6.022-.822,0-1-.235-1-1.025q.036-21.519.018-43.038c0-1.488-.448-2.193-1.413-2.225-1-.033-1.492.707-1.492,2.241q0,21.471.023,42.942c0,.95-.254,1.151-1.172,1.149q-26.016-.044-52.032-.025c-.383,0-.766-.053-1.15-.08a15.232,15.232,0,0,1-.415-4.7c.418-.017.835-.049,1.253-.049q23.21,0,46.421,0c1.828,0,2.238-.408,2.238-2.2q0-23.4,0-46.808c0-1.932-.32-2.257-2.226-2.257q-23.162,0-46.324,0c-.451,0-.9-.019-1.353-.028a16.682,16.682,0,0,1,.376-4.755m62.75,14.914q0,4.013,0,8.026c0,1.688.455,2.156,2.1,2.16q4.207.011,8.413,0c1.617,0,2.1-.476,2.1-2.064q.01-8.123,0-16.246c0-1.573-.464-2.042-2.008-2.047q-4.3-.013-8.607,0c-1.544,0-2,.473-2.006,2.048-.008,2.708,0,5.415,0,8.123M114.66,34.9a6.291,6.291,0,1,0,6.167,6.394A6.343,6.343,0,0,0,114.66,34.9m-.1,24.168c-1.482,0-2.965-.01-4.447,0-1.2.011-1.877.564-1.863,1.484.014.884.67,1.45,1.805,1.457q4.495.029,8.989,0c1.12-.009,1.777-.608,1.766-1.5s-.666-1.43-1.805-1.444c-1.482-.017-2.964,0-4.446,0m-.028-4.1c1.546,0,3.091.012,4.637,0,1.011-.01,1.614-.536,1.64-1.379a1.489,1.489,0,0,0-1.641-1.514q-4.637-.033-9.274,0a1.49,1.49,0,0,0-1.64,1.515c.024.837.634,1.367,1.641,1.377,1.545.015,3.091,0,4.637,0" transform="translate(-30.187 -2.965)" fill="#538db4"/>
        <path id="Trazado_118850" data-name="Trazado 118850" d="M21.169,9.022a16.682,16.682,0,0,0-.376,4.755q-2.609.021-5.219.041c-1.529.011-1.943.421-1.943,1.952q0,23.641,0,47.281c0,1.51.494,2.006,2.031,2.026,1.707.022,3.414.031,5.121.046a15.232,15.232,0,0,0,.415,4.7c-3.638.008-7.277.031-10.915.013-.969,0-1.445-.555-1.488-1.532-.009-.193,0-.387,0-.58q0-28.29,0-56.581c0-1.81.341-2.161,2.126-2.157q5.125.013,10.249.038" transform="translate(-5.887 -6.016)" fill="#427995"/>
        <path id="Trazado_118851" data-name="Trazado 118851" d="M35.722,202.183c1.515,0,3.031.025,4.545-.011.7-.017.83.253.68.873a2.285,2.285,0,0,1-1.926,1.912,32.884,32.884,0,0,1-6.654.007,2.246,2.246,0,0,1-1.959-1.871c-.115-.629.02-.949.769-.924,1.513.05,3.03.015,4.545.015" transform="translate(-20.339 -135.381)" fill="#427995"/>
        <path id="Trazado_118852" data-name="Trazado 118852" d="M242.632,202.176c1.483,0,2.967.045,4.447-.018.842-.036.932.383.772,1a2.177,2.177,0,0,1-1.918,1.8,32.11,32.11,0,0,1-6.748-.015,2.323,2.323,0,0,1-1.873-1.973c-.125-.6.063-.811.679-.8,1.547.029,3.094.01,4.641.01" transform="translate(-158.891 -135.374)" fill="#427995"/>
        <path id="Trazado_118853" data-name="Trazado 118853" d="M30.591,74.84c-1.707-.015-3.414-.023-5.121-.046-1.537-.02-2.031-.516-2.032-2.026q0-23.641,0-47.281c0-1.531.415-1.941,1.943-1.952q2.609-.018,5.219-.042c.451.01.9.028,1.353.028H78.278c1.905,0,2.225.325,2.225,2.257q0,23.4,0,46.808c0,1.791-.41,2.2-2.238,2.2q-23.21,0-46.421,0c-.418,0-.835.032-1.253.049m.214-9c-1.312-.018-2.624-.026-3.935-.059-.424-.011-.553.166-.549.568q.02,2.5,0,5c0,.417.156.572.564.556,1.31-.053,2.623.09,3.93-.079.386.015.771.044,1.156.044q15.419,0,30.837,0c4.608,0,9.216-.023,13.823.021.83.008,1.025-.241.986-1.025a37.813,37.813,0,0,1,0-3.961c.048-.866-.186-1.118-1.091-1.116q-22.379.047-44.757.023c-.321,0-.643.019-.965.029M50.318,52.789a1.7,1.7,0,0,1-1.957,1.428c-2.963-.044-5.927,0-8.891-.025-.584,0-.79.076-.645.749.291,1.35.46,2.727.683,4.092A4.32,4.32,0,0,0,44.045,62.9q7.925.021,15.85,0a4.317,4.317,0,0,0,4.535-3.869c.219-1.333.373-2.68.667-4,.166-.747-.05-.854-.724-.847-2.931.031-5.863-.016-8.794.028a1.7,1.7,0,0,1-1.958-1.428c.4-1.236.726-1.477,2.012-1.488.612-.005,1.225,0,1.837,0,3,0,5.995-.009,8.991,0,1.377.006,2.071.562,1.854,1.733-.61,3.292-.569,6.739-2.295,9.87h.9c3.255,0,6.51-.027,9.764.02.772.011.936-.212.935-.953q-.036-17.306.005-34.612c0-.846-.257-.969-1.02-.968q-22.43.035-44.86.019c-.32,0-.64.034-.96.053-1.158-.018-2.321.02-3.473-.071-.832-.066-.989.222-.986,1.008.03,8.574.019,17.147.019,25.72,0,3,.017,6-.014,8.992-.006.617.138.84.789.805,1.22-.065,2.446-.043,3.669-.058H38a7.7,7.7,0,0,1-1.344-3.277c-.351-2.027-.7-4.055-1.014-6.088-.246-1.585.3-2.192,1.949-2.195q5.312-.01,10.624,0c1.365,0,1.648.208,2.1,1.487" transform="translate(-15.695 -15.732)" fill="#020303"/>
        <path id="Trazado_118854" data-name="Trazado 118854" d="M236.2,33.615c0-2.708-.006-5.415,0-8.123,0-1.575.462-2.043,2.006-2.048q4.3-.013,8.607,0c1.544,0,2.006.474,2.008,2.047q.009,8.123,0,16.246c0,1.589-.487,2.06-2.1,2.064q-4.207.011-8.413,0c-1.649,0-2.1-.473-2.1-2.16q-.007-4.013,0-8.026m2.92,0c0,2.156.022,4.312-.014,6.467-.011.64.192.827.822.813,1.737-.039,3.475-.034,5.212,0,.58.011.781-.154.778-.758q-.034-6.516,0-13.031c0-.6-.19-.769-.773-.758-1.7.033-3.412.045-5.115,0-.708-.021-.947.157-.929.9.052,2.122.018,4.247.018,6.37" transform="translate(-158.173 -15.696)" fill="#020506"/>
        <path id="Trazado_118855" data-name="Trazado 118855" d="M242.681,96.676a6.291,6.291,0,1,1-6.421,6.138,6.34,6.34,0,0,1,6.421-6.138m-.107,9.661a3.37,3.37,0,1,0-3.4-3.348,3.359,3.359,0,0,0,3.4,3.348" transform="translate(-158.207 -64.736)" fill="#020303"/>
        <path id="Trazado_118856" data-name="Trazado 118856" d="M242.613,169.833c1.482,0,2.964-.013,4.446,0,1.14.013,1.794.555,1.805,1.443s-.646,1.487-1.766,1.5q-4.494.034-8.989,0c-1.136-.007-1.791-.573-1.805-1.457-.014-.92.662-1.473,1.863-1.484,1.482-.014,2.964,0,4.446,0" transform="translate(-158.241 -113.726)" fill="#020506"/>
        <path id="Trazado_118857" data-name="Trazado 118857" d="M242.59,151.529c-1.546,0-3.091.011-4.637,0-1.007-.01-1.616-.54-1.641-1.377a1.49,1.49,0,0,1,1.64-1.515q4.637-.033,9.274,0a1.489,1.489,0,0,1,1.641,1.514c-.026.842-.629,1.368-1.64,1.379-1.545.016-3.091,0-4.637,0" transform="translate(-158.246 -99.521)" fill="#020303"/>
        <path id="Trazado_118858" data-name="Trazado 118858" d="M45.666,32.349c.32-.018.641-.053.961-.053q22.43,0,44.86-.019c.763,0,1.022.122,1.02.968q-.05,17.306-.005,34.612c0,.74-.163.964-.935.952-3.254-.047-6.51-.02-9.764-.02h-.9c1.726-3.13,1.685-6.579,2.295-9.87.217-1.17-.477-1.727-1.854-1.733-3-.013-5.994,0-8.991,0-.612,0-1.225,0-1.837,0-1.286.011-1.609.251-2.012,1.488H65.2c-.45-1.279-.734-1.486-2.1-1.488q-5.313,0-10.624,0c-1.647,0-2.2.61-1.949,2.195.316,2.033.663,4.061,1.014,6.088a7.69,7.69,0,0,0,1.344,3.277H45.67q0-18.2,0-36.4m18.217,6.588a1.426,1.426,0,0,0-2.1-1.292,4.626,4.626,0,0,0-1.656,6.784A14.276,14.276,0,0,0,61.928,46.3c1.134,1.09,1.131,1.625.027,2.718a6.1,6.1,0,0,0-.67.69,1.3,1.3,0,0,0,.031,1.691,1.382,1.382,0,0,0,1.732.435,5.036,5.036,0,0,0,2.434-5.049,6.734,6.734,0,0,0-2.276-3.269c-1.588-1.456-1.592-1.844-.034-3.274a1.65,1.65,0,0,0,.711-1.3m7.44-1.48a3.752,3.752,0,0,0-.523.145,4.757,4.757,0,0,0-2.177,6.158,9.182,9.182,0,0,0,2.069,2.393c1.34,1.232,1.342,1.739.059,2.977a4.813,4.813,0,0,0-.477.477,1.336,1.336,0,0,0,.01,1.845,1.369,1.369,0,0,0,1.83.3A4.594,4.594,0,0,0,73.7,45.232a11.955,11.955,0,0,0-1.844-1.962c-1.228-1.157-1.22-1.692,0-2.826a5.086,5.086,0,0,0,.676-.682,1.388,1.388,0,0,0,.089-1.546,1.5,1.5,0,0,0-1.3-.759" transform="translate(-30.58 -21.614)" fill="#c8eaf9"/>
        <path id="Trazado_118859" data-name="Trazado 118859" d="M45.739,151.581c.322-.01.643-.029.965-.029q22.378,0,44.757-.023c.905,0,1.139.25,1.091,1.116a37.817,37.817,0,0,0,0,3.962c.039.783-.156,1.032-.986,1.025-4.607-.044-9.215-.021-13.823-.021q-15.418,0-30.837,0c-.386,0-.771-.028-1.156-.044l-.009-5.983" transform="translate(-30.629 -101.471)" fill="#3dc5ee"/>
        <path id="Trazado_118860" data-name="Trazado 118860" d="M81.419,112.176h3.3A1.7,1.7,0,0,0,86.68,113.6c2.931-.045,5.863,0,8.794-.028.674-.007.89.1.724.847-.294,1.316-.448,2.663-.667,4A4.317,4.317,0,0,1,91,122.288q-7.925.021-15.85,0a4.32,4.32,0,0,1-4.536-3.869c-.223-1.365-.393-2.742-.683-4.092-.145-.672.06-.753.645-.749,2.964.022,5.928-.019,8.891.025a1.7,1.7,0,0,0,1.957-1.428" transform="translate(-46.796 -75.119)" fill="#f07a79"/>
        <path id="Trazado_118861" data-name="Trazado 118861" d="M36.627,32.333q0,18.2,0,36.4c-1.223.015-2.448-.007-3.669.058-.65.035-.8-.188-.789-.805.031-3,.014-5.995.014-8.992,0-8.574.011-17.147-.019-25.72,0-.786.155-1.074.986-1.008,1.152.091,2.315.054,3.473.071" transform="translate(-21.541 -21.598)" fill="#a0dcf2"/>
        <path id="Trazado_118862" data-name="Trazado 118862" d="M36.648,151.567l.009,5.983c-1.308.169-2.621.026-3.93.08-.408.017-.568-.139-.564-.556q.022-2.5,0-5c0-.4.126-.579.55-.568,1.311.033,2.623.042,3.935.059" transform="translate(-21.538 -101.456)" fill="#1492c6"/>
        <path id="Trazado_118863" data-name="Trazado 118863" d="M245.007,39.514c0-2.123.033-4.248-.018-6.37-.018-.745.221-.923.929-.9,1.7.05,3.411.037,5.115,0,.583-.011.776.156.773.758q-.035,6.516,0,13.031c0,.6-.2.768-.778.758-1.737-.032-3.475-.037-5.212,0-.631.014-.833-.173-.822-.813.036-2.155.014-4.311.014-6.467" transform="translate(-164.056 -21.59)" fill="#01c8f2"/>
        <path id="Trazado_118864" data-name="Trazado 118864" d="M248.5,112.266a3.37,3.37,0,1,1,3.35-3.394,3.358,3.358,0,0,1-3.35,3.394" transform="translate(-164.136 -70.665)" fill="#c6e8f6"/>
        <path id="Trazado_118865" data-name="Trazado 118865" d="M91.457,49.474a1.647,1.647,0,0,1-.71,1.3c-1.558,1.431-1.554,1.819.034,3.275a6.739,6.739,0,0,1,2.276,3.268,5.036,5.036,0,0,1-2.434,5.049,1.382,1.382,0,0,1-1.732-.435,1.3,1.3,0,0,1-.031-1.691,6.1,6.1,0,0,1,.67-.69c1.1-1.093,1.107-1.629-.027-2.718A14.278,14.278,0,0,1,87.7,54.967a4.627,4.627,0,0,1,1.656-6.785,1.426,1.426,0,0,1,2.1,1.292" transform="translate(-58.155 -32.152)" fill="#040506"/>
        <path id="Trazado_118866" data-name="Trazado 118866" d="M116.989,47.956a1.5,1.5,0,0,1,1.3.759,1.388,1.388,0,0,1-.089,1.546,5.086,5.086,0,0,1-.676.682c-1.225,1.134-1.233,1.669,0,2.826a11.954,11.954,0,0,1,1.844,1.962,4.594,4.594,0,0,1-1.587,6.517,1.369,1.369,0,0,1-1.83-.3,1.336,1.336,0,0,1-.01-1.845,4.815,4.815,0,0,1,.477-.477c1.283-1.238,1.281-1.745-.059-2.977a9.182,9.182,0,0,1-2.069-2.393,4.757,4.757,0,0,1,2.177-6.158,3.752,3.752,0,0,1,.523-.145" transform="translate(-76.246 -32.114)" fill="#040506"/>
      </g>
    </g>
  </g>
</svg>
