<svg xmlns="http://www.w3.org/2000/svg" xmlns:xlink="http://www.w3.org/1999/xlink" width="109" height="109" viewBox="0 0 109 109">
  <defs>
    <clipPath id="clip-path">
      <rect id="Rect치ngulo_35053" data-name="Rect치ngulo 35053" width="58.96" height="80.947" fill="none"/>
    </clipPath>
  </defs>
  <g id="Grupo_80973" data-name="Grupo 80973" transform="translate(-741 -6977)">
    <rect id="Rect치ngulo_35045" data-name="Rect치ngulo 35045" width="109" height="109" transform="translate(741 6977)" fill="none"/>
    <g id="Grupo_80979" data-name="Grupo 80979" transform="translate(766 6991)">
      <g id="Grupo_80979-2" data-name="Grupo 80979" clip-path="url(#clip-path)">
        <path id="Trazado_118867" data-name="Trazado 118867" d="M29.14,80.917c-7.413,0-14.826-.058-22.238.03a4.415,4.415,0,0,1-4.755-4.683c.051-3.854-.027-7.711.146-11.563a.649.649,0,0,0-.454-.732A2.979,2.979,0,0,1,0,61.137,2.946,2.946,0,0,1,1.793,58.28a.678.678,0,0,0,.41-.764c-.1-4.005-.11-8.01.115-12.011.023-.408-.135-.56-.475-.722A2.986,2.986,0,0,1,0,41.952,2.946,2.946,0,0,1,1.793,39.1a.68.68,0,0,0,.41-.766c-.1-4-.106-8.009.111-12.012a.59.59,0,0,0-.4-.677A2.986,2.986,0,0,1,.016,22.494a2.943,2.943,0,0,1,2.289-2.765c.377-.11.491-.361.628-.669a8.376,8.376,0,0,1,7.374-5.284A1.012,1.012,0,0,0,11.37,12.9a17.089,17.089,0,0,1,7.6-9.62C28.591-3.005,41.521.044,46.923,9.86a13.836,13.836,0,0,1,1.335,3.307.788.788,0,0,0,.766.683A8.286,8.286,0,0,1,55.5,18.908a1.146,1.146,0,0,0,.938.77,3.131,3.131,0,0,1,.381,6.039c-.336.129-.6.205-.616.7-.1,3.854-.249,7.707-.1,11.565a.881.881,0,0,0,.733.988,3.011,3.011,0,0,1,2.12,2.905,3.1,3.1,0,0,1-2.025,2.986c-.4.15-.721.212-.736.795-.094,3.854-.248,7.707-.088,11.564a.836.836,0,0,0,.689.926,3.118,3.118,0,0,1,.085,5.907.849.849,0,0,0-.7.923c-.11,3.795-.208,7.588-.1,11.385a4.086,4.086,0,0,1-4.438,4.558q-11.254.009-22.508,0m1.2-79.639c-.21-.333-.54-.168-.8-.157a19.62,19.62,0,0,0-14.2,6.954,13.583,13.583,0,0,0-2.776,5.054c-.166.524-.022.635.455.593a1,1,0,0,0,.6-.139c.621.025,1.353.536,1.714-.475,1.856-5.185,9.658-10.734,17.115-9.1,4.9,1.072,8.955,3.58,11.271,8.18a2.333,2.333,0,0,0,2.7,1.524c.638-.051.7-.251.483-.761-.234-.548-.4-1.126-.662-1.66C44.06,6.825,40.371,4.076,35.868,2.314a11.025,11.025,0,0,0-5.522-1.036M2,59.622A1.861,1.861,0,0,0,1.47,62,2.117,2.117,0,0,0,3.6,63Q29.47,62.989,55.339,63a4.96,4.96,0,0,0,.627-.013,1.622,1.622,0,0,0,1.5-1.068c.609-1.541-.2-2.709-1.913-2.711q-9.856-.016-19.712,0-16.038,0-32.077,0A2.218,2.218,0,0,0,2,59.622M1.987,40.439A1.875,1.875,0,0,0,1.515,42.9a2.112,2.112,0,0,0,2.01.906q25.955-.016,51.91-.008c.119,0,.239,0,.358,0a1.7,1.7,0,0,0,1.612-.917,1.876,1.876,0,0,0-1.689-2.874c-.506.031-1.015,0-1.523,0q-25.218,0-50.437,0a2.229,2.229,0,0,0-1.769.424M57.29,23.86a1.694,1.694,0,0,0,.195-1.991,1.919,1.919,0,0,0-1.925-1.043q-26.085.007-52.171,0a1.874,1.874,0,0,0-1.41.441,1.725,1.725,0,0,0-.608,2.149,1.757,1.757,0,0,0,1.8,1.208c.209,0,.418,0,.627,0H55.152c.239,0,.478,0,.717-.008a1.575,1.575,0,0,0,1.421-.761M6.64,19.55c.149.012.3.034.446.034q23.355,0,46.711,0c.183,0,.416.1.553-.124a7.231,7.231,0,0,0-7.093-4.5q-17.08-.005-34.159,0c-.417,0-.834.022-1.25.034-.356-.011-.714-.046-1.068-.028a7.338,7.338,0,0,0-6.34,3.808c-.459.787-.432.818.508.815.564,0,1.127-.024,1.691-.036M5.053,25.925c-1.88-.089-1.5-.157-1.558,1.357-.123,3.523-.179,7.047-.081,10.573.02.712.151.933.92.932q24.826-.04,49.651,0c.93,0,1.083-.3.8-1.071-.011-3.732-.017-7.465.179-11.193.039-.747-.408-.636-.851-.636q-9.812,0-19.625-.011a1.6,1.6,0,0,0-1.242.519c-2.1,2.071-4.866,2.494-6.944.729a5.347,5.347,0,0,0-4.139-1.245c-.8.048-1.612.007-2.419.009l-14.693.037m49.7,30.938a2.725,2.725,0,0,0,.059-.438c-.088-3.494-.03-6.988.144-10.478.034-.7-.132-.9-.858-.9q-9.989.044-19.978.007a1.848,1.848,0,0,0-1.282.479,5.16,5.16,0,0,1-7.15-.027,1.376,1.376,0,0,0-.931-.45q-9.854.033-19.707.039c-1.522-.089-1.532-.089-1.572,1.44-.089,3.5-.158,6.99-.072,10.488.019.79.219.957.991.956q24.654-.038,49.307.008c.952,0,1.2-.284,1.05-1.124m-.072,20.858a7.416,7.416,0,0,0,.144-1.148q-.154-5.738.127-11.47c.032-.655-.1-.868-.8-.864-6.634.028-13.267.019-19.9.012a1.426,1.426,0,0,0-1.044.375c-2.632,2.341-5.2,2.34-7.825.017a1.215,1.215,0,0,0-.857-.393q-9.725.029-19.451.036c-1.792-.038-1.525-.309-1.583,1.426-.124,3.671-.17,7.344-.053,11.018a2.825,2.825,0,0,0,2.936,2.93q22.757.013,45.514,0a2.722,2.722,0,0,0,2.8-1.94M16.483,13.67c.273.019.449.041.626.041,8.393,0,16.787-.01,25.18.018.91,0,.736-.351.454-.859A14.619,14.619,0,0,0,31.087,5.1c-5.416-.613-9.7,1.859-13.144,5.9a7.831,7.831,0,0,0-1.46,2.674M31.677,25.946H26.83a3.5,3.5,0,0,0,4.847,0m-4.7,38.344a3.5,3.5,0,0,0,4.51,0Zm.4-19.211a3.045,3.045,0,0,0,3.724,0Z" transform="translate(0 0)" fill="#070605"/>
        <path id="Trazado_118868" data-name="Trazado 118868" d="M11.333,143.628q9.726-.015,19.451-.036a1.215,1.215,0,0,1,.857.393c2.625,2.323,5.193,2.324,7.824-.017a1.428,1.428,0,0,1,1.044-.375c6.634.008,13.267.017,19.9-.012.7,0,.835.21.8.864q-.279,5.731-.128,11.47a7.362,7.362,0,0,1-.144,1.148c-.3,0-.6,0-.9,0q-22.452,0-44.9,0a3.449,3.449,0,0,1-3.813-3.751c-.015-3.226,0-6.452,0-9.679" transform="translate(-6.258 -79.342)" fill="#98cb33"/>
        <path id="Trazado_118869" data-name="Trazado 118869" d="M11.3,100.733q9.853-.015,19.707-.039a1.378,1.378,0,0,1,.931.45,5.16,5.16,0,0,0,7.15.027,1.848,1.848,0,0,1,1.282-.479q9.989.022,19.978-.007c.726,0,.893.206.858.9-.174,3.49-.232,6.983-.144,10.477A2.628,2.628,0,0,1,61,112.5q-5.15-.009-10.3-.017-17.74,0-35.48,0c-2.458,0-3.888-1.379-3.906-3.776-.02-2.658-.012-5.316-.016-7.973" transform="translate(-6.243 -55.637)" fill="#99cb34"/>
        <path id="Trazado_118870" data-name="Trazado 118870" d="M11.293,57.867l14.694-.037c.807,0,1.615.039,2.419-.009a5.349,5.349,0,0,1,4.139,1.245c2.078,1.765,4.844,1.342,6.944-.729a1.6,1.6,0,0,1,1.242-.519q9.812.026,19.625.011c.443,0,.89-.111.851.636-.2,3.728-.191,7.461-.179,11.193-.179.015-.357.044-.536.044q-22.838,0-45.675-.006a3.359,3.359,0,0,1-3.5-3.591c-.023-2.746-.015-5.492-.021-8.239" transform="translate(-6.24 -31.942)" fill="#98cb34"/>
        <path id="Trazado_118871" data-name="Trazado 118871" d="M20.05,33.462c.417-.012.834-.034,1.25-.034q17.08,0,34.159,0a7.231,7.231,0,0,1,7.093,4.5c-.138.227-.37.123-.553.124q-23.355.009-46.711,0c-.149,0-.3-.022-.445-.034a7.879,7.879,0,0,1,5.208-4.559" transform="translate(-8.202 -18.471)" fill="#97c933"/>
        <path id="Trazado_118872" data-name="Trazado 118872" d="M4.424,46.989a1.874,1.874,0,0,1,1.409-.441q26.086,0,52.171,0A1.919,1.919,0,0,1,59.93,47.59a1.7,1.7,0,0,1-.195,1.991c-.388-.01-.777-.029-1.165-.029q-17.127,0-34.255,0-8.474,0-16.948,0a2.583,2.583,0,0,1-2.943-2.559" transform="translate(-2.445 -25.722)" fill="#fe9c0a"/>
        <path id="Trazado_118873" data-name="Trazado 118873" d="M4.441,89.851a2.231,2.231,0,0,1,1.77-.424H56.648c.507,0,1.017.027,1.523,0A1.876,1.876,0,0,1,59.859,92.3l-51.813-.01c-.3,0-.6.008-.9,0a2.591,2.591,0,0,1-2.709-2.433" transform="translate(-2.454 -49.413)" fill="#fe9b07"/>
        <path id="Trazado_118874" data-name="Trazado 118874" d="M4.462,132.735a2.216,2.216,0,0,1,1.77-.421q16.039,0,32.077,0,9.856,0,19.712,0c1.716,0,2.522,1.17,1.913,2.711-.269,0-.538-.007-.807-.007q-25.824,0-51.648,0c-1.791,0-2.643-.653-3.017-2.284" transform="translate(-2.466 -73.112)" fill="#fe9904"/>
        <path id="Trazado_118875" data-name="Trazado 118875" d="M9.239,143.64c0,3.226-.017,6.452,0,9.679a3.449,3.449,0,0,0,3.813,3.751q22.451.006,44.9,0c.3,0,.6,0,.9,0a2.721,2.721,0,0,1-2.8,1.94q-22.757.007-45.514,0a2.825,2.825,0,0,1-2.936-2.93c-.118-3.674-.071-7.347.053-11.018.058-1.735-.209-1.463,1.583-1.426" transform="translate(-4.164 -79.354)" fill="#98cb33"/>
        <path id="Trazado_118876" data-name="Trazado 118876" d="M47.168,2.78A11.018,11.018,0,0,1,52.69,3.815c4.5,1.762,8.193,4.511,10.369,8.976.26.534.429,1.112.662,1.66.217.51.155.71-.483.761a2.333,2.333,0,0,1-2.7-1.524c-2.317-4.6-6.372-7.108-11.271-8.18-7.457-1.633-15.259,3.915-17.114,9.1-.362,1.011-1.093.5-1.715.475a3.733,3.733,0,0,1,.525-1.6c3.39-6.6,8.989-9.877,16.2-10.706" transform="translate(-16.823 -1.501)" fill="#727064"/>
        <path id="Trazado_118877" data-name="Trazado 118877" d="M9.218,100.754c0,2.658,0,5.316.016,7.973.018,2.4,1.448,3.775,3.906,3.776q17.74.006,35.48,0,5.151,0,10.3.017c.146.84-.1,1.126-1.049,1.124q-24.654-.056-49.307-.008c-.771,0-.972-.166-.991-.956-.085-3.5-.017-6.992.072-10.487.039-1.53.05-1.53,1.572-1.441" transform="translate(-4.163 -55.659)" fill="#98cb33"/>
        <path id="Trazado_118878" data-name="Trazado 118878" d="M9.208,57.9c.005,2.746,0,5.493.021,8.239a3.359,3.359,0,0,0,3.5,3.591q22.837.024,45.675.006c.179,0,.357-.029.536-.044.283.77.129,1.072-.8,1.071q-24.826-.041-49.651,0c-.769,0-.9-.22-.919-.932-.1-3.526-.043-7.051.081-10.573C7.7,57.74,7.328,57.809,9.208,57.9" transform="translate(-4.155 -31.972)" fill="#98cb33"/>
        <path id="Trazado_118879" data-name="Trazado 118879" d="M3.526,133.262c.374,1.632,1.226,2.284,3.017,2.284q25.824,0,51.648,0c.269,0,.538,0,.807.007a1.622,1.622,0,0,1-1.5,1.068,4.877,4.877,0,0,1-.627.013q-25.869,0-51.737.008a2.118,2.118,0,0,1-2.132-1,1.861,1.861,0,0,1,.527-2.378" transform="translate(-1.529 -73.64)" fill="#fe9c0a"/>
        <path id="Trazado_118880" data-name="Trazado 118880" d="M3.512,90.385a2.591,2.591,0,0,0,2.709,2.433c.3.011.6,0,.9,0l51.813.01a1.7,1.7,0,0,1-1.612.917c-.119,0-.239,0-.359,0q-25.955,0-51.91.008a2.112,2.112,0,0,1-2.011-.906,1.875,1.875,0,0,1,.472-2.466" transform="translate(-1.525 -49.946)" fill="#fe9c0a"/>
        <path id="Trazado_118881" data-name="Trazado 118881" d="M3.5,47.536A2.583,2.583,0,0,0,6.441,50.1q8.474.011,16.948,0,17.127,0,34.255,0c.388,0,.776.018,1.165.029a1.575,1.575,0,0,1-1.421.76c-.238.01-.478.008-.717.008H5.321c-.209,0-.418,0-.627,0a1.757,1.757,0,0,1-1.8-1.208A1.725,1.725,0,0,1,3.5,47.536" transform="translate(-1.518 -26.268)" fill="#fe9c0a"/>
        <path id="Trazado_118882" data-name="Trazado 118882" d="M45.788,2.6c-7.211.829-12.81,4.1-16.2,10.706a3.733,3.733,0,0,0-.525,1.6,1,1,0,0,1-.6.139c-.476.043-.621-.068-.455-.592A13.571,13.571,0,0,1,30.788,9.4a19.618,19.618,0,0,1,14.2-6.954c.263-.012.592-.176.8.157" transform="translate(-15.443 -1.322)" fill="#727064"/>
        <path id="Trazado_118883" data-name="Trazado 118883" d="M16.974,33.467a7.879,7.879,0,0,0-5.208,4.559c-.564.013-1.128.035-1.692.037-.94,0-.967-.028-.508-.815a7.339,7.339,0,0,1,6.34-3.808c.354-.018.712.017,1.068.028" transform="translate(-5.126 -18.475)" fill="#98cb33"/>
        <path id="Trazado_118884" data-name="Trazado 118884" d="M64.815,57.992a3.5,3.5,0,0,1-4.847,0Z" transform="translate(-33.138 -32.046)" fill="#8ab82e"/>
        <path id="Trazado_118885" data-name="Trazado 118885" d="M60.3,143.694h4.51a3.5,3.5,0,0,1-4.51,0" transform="translate(-33.323 -79.404)" fill="#8ab82e"/>
        <path id="Trazado_118886" data-name="Trazado 118886" d="M61.193,100.756h3.724a3.045,3.045,0,0,1-3.724,0" transform="translate(-33.815 -55.677)" fill="#8ab82e"/>
      </g>
    </g>
  </g>
</svg>
