<svg xmlns="http://www.w3.org/2000/svg" xmlns:xlink="http://www.w3.org/1999/xlink" width="109" height="109" viewBox="0 0 109 109">
  <defs>
    <clipPath id="clip-path">
      <rect id="Rect치ngulo_35054" data-name="Rect치ngulo 35054" width="99.201" height="99.208" fill="none"/>
    </clipPath>
  </defs>
  <g id="Grupo_80974" data-name="Grupo 80974" transform="translate(-741 -6980)">
    <rect id="Rect치ngulo_35045" data-name="Rect치ngulo 35045" width="109" height="109" transform="translate(741 6980)" fill="none"/>
    <g id="Grupo_80980" data-name="Grupo 80980" transform="translate(746 6984)">
      <g id="Grupo_80980-2" data-name="Grupo 80980" clip-path="url(#clip-path)">
        <path id="Trazado_118887" data-name="Trazado 118887" d="M0,48.846,47.494,1.318c1.765-1.767,2.432-1.761,4.227.034L98,47.631c1.6,1.6,1.6,2.373.021,3.955Q74.746,74.864,51.477,98.147c-.4.4-.883.694-1.309,1.061H48.813L0,50.4V48.846m28.388-8.855c1.055,1.015,1.29,1.818.666,2.8-2.375,3.72-5.15,7.01-9.374,8.783-2.64,1.108-5.236,2.323-7.844,3.508a2.007,2.007,0,0,0-1.037.68c2.588,2.581,5.194,5.088,7.68,7.709a1.617,1.617,0,0,0,2.39.353c2.554-1.43,5.324-2.444,7.846-3.951a10.483,10.483,0,0,0,4.746-5.41c.648-1.748,1.426-3.45,2.191-5.152A25.474,25.474,0,0,1,40.5,41.677,9.829,9.829,0,0,1,46.1,38.464c3.41-.506,6.443,1.63,6.7,4.822a6.918,6.918,0,0,1-1.021,3.969A27.517,27.517,0,0,0,49,54.337a53.882,53.882,0,0,0-1.311,13.644c.086,4.9-1.564,8.87-5.577,11.8a21.55,21.55,0,0,0-3.194,2.955c-.4.44-.443.705.023,1.165q5.068,5,10.069,10.062c.427.431.661.5,1.132.025q5.205-5.272,10.473-10.481a1.026,1.026,0,0,0,.3-1.185,14.2,14.2,0,0,1,.03-7.918,34.242,34.242,0,0,1,4.21-8.55,35.387,35.387,0,0,0,4.307-9.772,42.022,42.022,0,0,0,.836-9.329,17.6,17.6,0,0,1,3.944-10.98c.811-1,1.694-1.947,2.573-2.892.319-.343.4-.557.02-.937q-4.782-4.735-9.525-9.511c-.275-.275-.488-.441-.9-.2-3.917,2.32-8.242,3.027-12.706,3.18a22.9,22.9,0,0,0-13.231,4.524c-1.344,1-1.985.949-3.249-.124-.376-.973-.463-1.947.475-2.626a27.241,27.241,0,0,1,11.8-5.269c2.809-.437,5.669-.314,8.477-.773A18.455,18.455,0,0,0,64,19.121c-1.644-1.64-3.221-3.164-4.735-4.749-.521-.545-.814-.6-1.464-.113-5.874,4.412-12.215,5.761-19.142,2.679A1.254,1.254,0,0,0,37,17.275q-9.759,9.822-19.567,19.6C13.4,40.91,9.368,44.959,5.307,48.976c-.511.505-.566.8-.006,1.283.753.655,1.438,1.391,2.129,2.114a.62.62,0,0,0,.9.165,51.28,51.28,0,0,1,7.193-3.307,18.872,18.872,0,0,0,10-8.124,2.205,2.205,0,0,1,2.862-1.115M22.422,67.347c1.641,1.642,3.214,3.21,4.779,4.788a.452.452,0,0,0,.676.037,30.791,30.791,0,0,1,4.1-2.166,6.83,6.83,0,0,0,3.771-4.524A1.908,1.908,0,0,1,38.18,63.9c1.182.348,1.645,1.354,1.261,2.707a10.189,10.189,0,0,1-5.518,6.741c-1.015.491-2.011,1.021-3.02,1.525-.4.2-.648.354-.179.807,1.531,1.48,3.027,3,4.525,4.513.28.283.479.359.768,0a31.843,31.843,0,0,1,4.567-4.172,8.694,8.694,0,0,0,3.192-6.968c.017-3.067.081-6.132.394-9.185A35.562,35.562,0,0,1,48.239,45.66a4.671,4.671,0,0,0,.636-1.608,1.327,1.327,0,0,0-1.08-1.662,3.524,3.524,0,0,0-3.084.746A14.855,14.855,0,0,0,40.5,48.249c-1.511,2.745-2.6,5.68-3.85,8.543a12.223,12.223,0,0,1-2.444,3.686,21.143,21.143,0,0,1-6.062,4.094c-1.872.918-3.753,1.82-5.726,2.775M64.359,79.754c4.4-4.4,8.666-8.674,12.94-12.932a1.009,1.009,0,0,0,.287-.953,11.868,11.868,0,0,1,.211-3.749,14.858,14.858,0,0,1,3.152-6.134,4.625,4.625,0,0,0,.339-5.8,8.287,8.287,0,0,1-1.115-6.226,10.783,10.783,0,0,1,2.59-5.006c.37-.421.447-.681-.012-1.1-.812-.735-1.57-1.532-2.332-2.321-.278-.288-.465-.332-.782-.023-3.3,3.226-5.535,6.923-5.481,11.735a44.992,44.992,0,0,1-.445,7.334,36.063,36.063,0,0,1-5.2,13.22,41.8,41.8,0,0,0-3.168,5.75,12.148,12.148,0,0,0-.985,6.2m17.7-17.986c.162-.034.279-.022.331-.074q5.9-5.874,11.791-11.753c.309-.307.158-.48-.068-.707q-3.872-3.863-7.737-7.731c-.186-.186-.353-.4-.622-.08-1.194,1.419-2.125,2.928-1.774,4.9a13.564,13.564,0,0,0,1.364,3.5,7,7,0,0,1-.536,7.331c-.688,1.051-1.434,2.065-2.122,3.115a2.826,2.826,0,0,0-.626,1.5M40.789,13.512a1.569,1.569,0,0,0,.287.233c5.284,2.071,9.964.693,14.338-2.5.52-.379.128-.572-.1-.8-1.729-1.739-3.48-3.458-5.192-5.215-.406-.418-.634-.465-1.062-.016C47.774,6.576,46.43,7.88,45.105,9.2l-4.316,4.309m41.2,48.508.149-.172c-.043-.029-.1-.091-.128-.08a.983.983,0,0,0-.2.142l.175.109" transform="translate(0 0)" fill="#040404"/>
        <path id="Trazado_118888" data-name="Trazado 118888" d="M42.665,40.967c1.265,1.074,1.9,1.126,3.249.125a22.9,22.9,0,0,1,13.232-4.525c4.463-.153,8.789-.859,12.7-3.18.415-.246.628-.08.9.2q4.751,4.766,9.525,9.511c.384.38.3.593-.02.936-.88.944-1.762,1.891-2.574,2.892A17.6,17.6,0,0,0,75.741,57.9a41.974,41.974,0,0,1-.837,9.329A35.361,35.361,0,0,1,70.6,77a34.227,34.227,0,0,0-4.21,8.549,14.193,14.193,0,0,0-.03,7.919,1.026,1.026,0,0,1-.3,1.185Q60.8,99.876,55.589,105.137c-.471.477-.7.406-1.132-.025q-5.009-5.058-10.07-10.062c-.465-.459-.423-.725-.023-1.166a21.553,21.553,0,0,1,3.194-2.955c4.013-2.93,5.664-6.9,5.577-11.8a53.85,53.85,0,0,1,1.311-13.644A27.506,27.506,0,0,1,57.216,58.4a6.908,6.908,0,0,0,1.021-3.969c-.255-3.192-3.287-5.328-6.7-4.821a9.83,9.83,0,0,0-5.593,3.213,25.464,25.464,0,0,0-4.851,7.629c-.766,1.7-1.543,3.4-2.192,5.152a10.478,10.478,0,0,1-4.745,5.41c-2.521,1.507-5.292,2.522-7.846,3.951a1.615,1.615,0,0,1-2.39-.352c-2.485-2.621-5.091-5.128-7.68-7.71a2,2,0,0,1,1.037-.679c2.608-1.185,5.2-2.4,7.844-3.508,4.224-1.773,7-5.063,9.374-8.783.623-.976.389-1.78-.666-2.8a22.294,22.294,0,0,0,2.831-3.8c1.283.617,2.149.555,2.807-.2s.611-1.717-.17-2.795c.971-1.277,2.3-2.2,3.366-3.38" transform="translate(-5.443 -11.148)" fill="#cdccf1"/>
        <path id="Trazado_118889" data-name="Trazado 118889" d="M39.693,36.837c-1.068,1.18-2.394,2.1-3.366,3.38-1.309-.645-2.326-.468-2.93.513a2.109,2.109,0,0,0,.293,2.483,22.294,22.294,0,0,1-2.831,3.8A2.205,2.205,0,0,0,28,48.124a18.871,18.871,0,0,1-10,8.124A51.284,51.284,0,0,0,10.8,59.555a.619.619,0,0,1-.9-.165c-.692-.722-1.376-1.457-2.13-2.113-.56-.488-.5-.777.007-1.283,4.061-4.017,8.092-8.067,12.131-12.106q9.79-9.791,19.567-19.6a1.252,1.252,0,0,1,1.656-.336c6.927,3.081,13.267,1.732,19.142-2.68.65-.487.943-.432,1.464.114,1.514,1.584,3.091,3.108,4.735,4.748a18.423,18.423,0,0,1-6.029,2.029c-2.808.459-5.668.336-8.477.773a27.256,27.256,0,0,0-11.8,5.269c-.939.68-.851,1.654-.475,2.627" transform="translate(-2.471 -7.018)" fill="#8380e0"/>
        <path id="Trazado_118890" data-name="Trazado 118890" d="M33.722,88.656c1.973-.955,3.854-1.857,5.726-2.775a21.141,21.141,0,0,0,6.062-4.093A12.232,12.232,0,0,0,47.953,78.1c1.247-2.864,2.339-5.8,3.85-8.543a14.861,14.861,0,0,1,4.208-5.114A3.524,3.524,0,0,1,59.1,63.7a1.327,1.327,0,0,1,1.08,1.662,4.684,4.684,0,0,1-.636,1.608,35.554,35.554,0,0,0-4.071,14.206c-.312,3.053-.376,6.118-.394,9.185a8.7,8.7,0,0,1-3.192,6.969,31.807,31.807,0,0,0-4.567,4.172c-.289.357-.488.281-.768,0-1.5-1.515-2.993-3.033-4.525-4.513-.469-.453-.223-.606.179-.807,1.009-.5,2-1.035,3.019-1.526a10.188,10.188,0,0,0,5.519-6.741c.384-1.352-.079-2.359-1.261-2.707a1.908,1.908,0,0,0-2.433,1.587,6.827,6.827,0,0,1-3.772,4.524,30.981,30.981,0,0,0-4.1,2.166.452.452,0,0,1-.676-.037c-1.565-1.578-3.139-3.146-4.779-4.788" transform="translate(-11.3 -21.309)" fill="#8280df"/>
        <path id="Trazado_118891" data-name="Trazado 118891" d="M96.757,97.547a12.15,12.15,0,0,1,.985-6.2,41.8,41.8,0,0,1,3.168-5.75,36.063,36.063,0,0,0,5.2-13.22,44.992,44.992,0,0,0,.445-7.334c-.054-4.813,2.18-8.509,5.481-11.735.316-.309.5-.265.782.023.762.789,1.52,1.586,2.332,2.321.459.416.382.676.012,1.1a10.783,10.783,0,0,0-2.59,5.006,8.287,8.287,0,0,0,1.115,6.226,4.625,4.625,0,0,1-.339,5.8,14.858,14.858,0,0,0-3.152,6.134,11.868,11.868,0,0,0-.211,3.749,1.009,1.009,0,0,1-.287.953c-4.273,4.259-8.537,8.528-12.94,12.932" transform="translate(-32.398 -17.792)" fill="#8380e0"/>
        <path id="Trazado_118892" data-name="Trazado 118892" d="M123.412,82.562a2.826,2.826,0,0,1,.627-1.5c.688-1.051,1.434-2.064,2.122-3.114a7,7,0,0,0,.537-7.332,13.54,13.54,0,0,1-1.364-3.5c-.352-1.977.579-3.486,1.774-4.9.269-.319.436-.105.622.08q3.868,3.867,7.737,7.731c.227.227.377.4.068.707q-5.9,5.869-11.79,11.753c-.053.052-.169.04-.332.074" transform="translate(-41.356 -20.794)" fill="#cccbf0"/>
        <path id="Trazado_118893" data-name="Trazado 118893" d="M61.347,15.984c1.451-1.448,2.884-2.878,4.316-4.309,1.324-1.323,2.669-2.627,3.96-3.981.429-.449.656-.4,1.063.015,1.711,1.757,3.462,3.475,5.192,5.215.223.225.614.418.094.8-4.373,3.188-9.053,4.567-14.337,2.5a1.541,1.541,0,0,1-.287-.233" transform="translate(-20.558 -2.472)" fill="#cccbf1"/>
        <path id="Trazado_118894" data-name="Trazado 118894" d="M123.216,93.15l-.175-.109a.983.983,0,0,1,.2-.142c.027-.011.085.051.128.08l-.149.172" transform="translate(-41.231 -31.13)" fill="#cccbf0"/>
        <path id="Trazado_118895" data-name="Trazado 118895" d="M46.659,52.734a2.109,2.109,0,0,1-.293-2.483c.6-.981,1.621-1.158,2.93-.513.781,1.078.839,2.027.17,2.795s-1.524.818-2.807.2" transform="translate(-15.44 -16.54)" fill="#040405"/>
      </g>
    </g>
  </g>
</svg>
