<svg xmlns="http://www.w3.org/2000/svg" xmlns:xlink="http://www.w3.org/1999/xlink" width="179" height="179" viewBox="0 0 179 179">
  <defs>
    <clipPath id="clip-path">
      <rect id="Rect치ngulo_35137" data-name="Rect치ngulo 35137" width="105.086" height="123.088" fill="none"/>
    </clipPath>
  </defs>
  <g id="Grupo_175485" data-name="Grupo 175485" transform="translate(5924 1666)">
    <rect id="Rect치ngulo_33962" data-name="Rect치ngulo 33962" width="179" height="179" rx="18" transform="translate(-5924 -1666)" fill="#fcc02d"/>
    <g id="Grupo_175484" data-name="Grupo 175484" transform="translate(-5887 -1638)">
      <g id="Grupo_175483" data-name="Grupo 175483" clip-path="url(#clip-path)">
        <path id="Trazado_121301" data-name="Trazado 121301" d="M56.511,17.321a1.675,1.675,0,0,1-1.734-1.62c-.1-2.869-.395-5.775.187-8.6A8.7,8.7,0,0,1,60.911.468C61.223.353,61.647.42,61.8,0H84.637c2.7,1.2,3.765,2.638,3.618,4.968a4.264,4.264,0,0,1-.341,1.509c-3.272,7.012-7.449,13.333-13.841,17.94A32.635,32.635,0,0,1,60.006,30.17a4.55,4.55,0,0,1-5.2-3.847,16,16,0,0,1-.093-2.276,1.836,1.836,0,0,1,1.783-2.014c1.459.352,1.79.776,1.835,2.349.068,2.35.246,2.491,2.522,1.978a4.721,4.721,0,0,1,.581-.143c.47-.042.533-.277.528-.726-.048-4.044-.091-8.088-.071-12.131a5.817,5.817,0,0,1,6.176-6.172c3.764-.015,7.529-.006,11.293,0a12.81,12.81,0,0,1,1.783.173c.717.1,1.349,1.057,2,.521A6.051,6.051,0,0,0,84.2,5.891c.036-.072.078-.14.112-.212.7-1.489.336-2.069-1.317-2.071q-9.431-.006-18.862,0a5.44,5.44,0,0,0-5.8,5.781c-.022,1.842-.026,3.685,0,5.527a2.086,2.086,0,0,1-1.824,2.4m8.967,1.209c0,1.719,0,3.439,0,5.158,0,1.284.061,1.315,1.268.777C72.674,21.829,77.1,17.5,80.682,12.192c.613-.91.2-1.194-.606-1.356a4.915,4.915,0,0,0-.957-.043q-5.4,0-10.8,0c-2.051,0-2.809.746-2.84,2.819-.024,1.639,0,3.279-.006,4.918" transform="translate(-16.585 0)" fill="#030303"/>
        <path id="Trazado_121302" data-name="Trazado 121302" d="M86.832,126.733c-.822.851-1.648,1.7-2.463,2.556-.294.309-.694.546-.753,1.029-1.214-.951-1.9-.925-3.007.164-1.368,1.349-2.713,2.721-4.076,4.075-2.766,2.748-5.833,2.732-8.612-.045q-13.927-13.922-27.848-27.85c-1.753-1.754-3.475-3.537-5.213-5.308a2.425,2.425,0,0,0-.22-1.268c-.684-2.63-1.435-5.244-1.894-7.928a6.29,6.29,0,0,0,4.527-1.889c2.682-2.7,5.4-5.362,8.061-8.08a5.809,5.809,0,0,0-.022-8.652c-2.335-2.365-4.755-4.65-7.025-7.076-1.6-1.714-3.365-2.918-5.789-2.9a4.834,4.834,0,0,1,.166-1.412c.541-1.907,1.031-3.829,1.54-5.746,1.568.263,2.618,1.482,3.954,2.172.182.094.251.486.3.753A6.073,6.073,0,0,0,40.3,62.622c2.614,2.6,5.21,5.214,7.822,7.814,2.807,2.794,6.163,2.785,9-.024,1.85-1.832,3.772-3.6,5.5-5.544,2.218-2.491,4.639-4.546,8.055-5.107a4.815,4.815,0,0,0,1.236-.453,3.493,3.493,0,0,1,4.41.921Q92.67,76.683,109.1,93.052c2.982,2.982,2.972,5.952-.032,8.96Q98.2,112.893,87.31,123.758a2.123,2.123,0,0,0-.478,2.975m-14.647,4.615a5.58,5.58,0,0,0,4.209-1.727c2.78-2.769,5.574-5.526,8.319-8.33a5.74,5.74,0,0,0-.031-8.378q-4.082-4.158-8.24-8.24a5.742,5.742,0,0,0-8.385-.053q-4.218,4.1-8.325,8.325a5.738,5.738,0,0,0,.03,8.383c2.741,2.808,5.534,5.566,8.322,8.328a5.534,5.534,0,0,0,4.1,1.692M106.079,97.5a5.5,5.5,0,0,0-1.67-4.108c-2.793-2.812-5.574-5.639-8.412-8.407a5.658,5.658,0,0,0-8.19-.085q-4.382,4.194-8.586,8.571a5.688,5.688,0,0,0,.072,8.116Q83.443,105.847,87.7,110a5.707,5.707,0,0,0,8.286.013c2.835-2.77,5.619-5.594,8.412-8.406a5.518,5.518,0,0,0,1.681-4.106M66.868,97.47a5.832,5.832,0,0,0-1.709-4.081c-2.826-2.838-5.632-5.7-8.5-8.49a5.7,5.7,0,0,0-8.116,0q-4.357,4.222-8.579,8.582a5.629,5.629,0,0,0-.074,7.933q4.264,4.482,8.752,8.747a5.622,5.622,0,0,0,8.016-.063c2.9-2.815,5.741-5.7,8.583-8.579a5.739,5.739,0,0,0,1.628-4.045m5.386-5.341A5.7,5.7,0,0,0,76.261,90.5c2.877-2.842,5.764-5.677,8.573-8.586a5.665,5.665,0,0,0,.039-8.023q-4.246-4.415-8.662-8.666a5.609,5.609,0,0,0-7.925-.05q-4.468,4.276-8.751,8.745a5.645,5.645,0,0,0,.033,7.932c2.838,2.936,5.755,5.8,8.66,8.669a5.63,5.63,0,0,0,4.026,1.613" transform="translate(-9.868 -17.128)" fill="#cf976d"/>
        <path id="Trazado_121303" data-name="Trazado 121303" d="M24.99,99.727c1.737,1.77,3.46,3.553,5.212,5.308q13.918,13.93,27.849,27.849c2.778,2.778,5.846,2.793,8.612.045,1.363-1.354,2.708-2.726,4.076-4.075,1.1-1.088,1.794-1.115,3.007-.164a1.958,1.958,0,0,1-.409,2.689c-1.428,1.4-2.826,2.838-4.252,4.243-4.03,3.966-9.448,3.959-13.448-.037Q38.3,118.264,20.973,100.927,12.1,92.05,3.22,83.17c-4.283-4.281-4.3-9.595-.022-13.874q8.067-8.075,16.145-16.138c2.434-2.421,5.467-2.815,8.287-.9,8.046,5.465,16.79,6.378,26.051,4.22a55.006,55.006,0,0,0,7.431-2.3,6.61,6.61,0,0,1,7.668,1.657Q85.37,72.462,101.987,89.061c4.12,4.129,4.133,9.5.029,13.617q-10.979,11.025-22,22.007c-1.149,1.149-1.65,1.207-3.054.421a2.123,2.123,0,0,1,.478-2.975q10.9-10.849,21.761-21.746c3-3.007,3.013-5.977.031-8.96q-16.4-16.4-32.778-32.823a3.494,3.494,0,0,0-4.411-.921,4.8,4.8,0,0,1-1.236.453c-3.416.561-5.837,2.616-8.054,5.108-1.728,1.941-3.651,3.711-5.5,5.543-2.838,2.81-6.194,2.817-9,.024-2.613-2.6-5.208-5.216-7.822-7.814A6.064,6.064,0,0,1,28.588,57.7c-.047-.267-.116-.659-.3-.753-1.338-.69-2.387-1.909-3.955-2.171A2.821,2.821,0,0,0,21.71,55.9Q13.683,63.931,5.653,71.961c-2.714,2.718-2.708,5.8.01,8.525q9.258,9.266,18.524,18.524c.253.253.534.478.8.716m9.389-40.113c2.458,2.517,4.725,4.914,7.089,7.212a1.773,1.773,0,0,0,2.448.035c1.966-1.9,3.812-3.93,5.757-5.962a35.953,35.953,0,0,1-15.294-1.285" transform="translate(0 -15.501)" fill="#050504"/>
        <path id="Trazado_121304" data-name="Trazado 121304" d="M57.331,18.892a2.087,2.087,0,0,0,1.824-2.4c-.026-1.842-.022-3.684,0-5.527a5.44,5.44,0,0,1,5.8-5.781q9.431-.013,18.862,0c1.654,0,2.017.582,1.317,2.071-.034.072-.077.141-.112.212A6.064,6.064,0,0,1,83.957,9.45c-.648.536-1.28-.419-2-.521a12.81,12.81,0,0,0-1.783-.173c-3.764,0-7.529-.013-11.293,0a5.817,5.817,0,0,0-6.176,6.172c-.02,4.044.022,8.088.07,12.131.006.448-.058.683-.528.726a4.68,4.68,0,0,0-.581.143c-2.276.513-2.455.373-2.522-1.978-.045-1.572-.377-2-1.835-2.349q.008-2.356.017-4.711" transform="translate(-17.405 -1.571)" fill="#ce966d"/>
        <path id="Trazado_121305" data-name="Trazado 121305" d="M113.353,12.4c1.359.083,2.72.142,4.076.255a3.573,3.573,0,0,1,3.173,2.219,3.519,3.519,0,0,1-.462,3.842c-1.243,1.517-2.5,3.028-3.874,4.429a3.667,3.667,0,0,1-6.011-1.075,44.334,44.334,0,0,1-1.875-4.792,3.709,3.709,0,0,1,3.652-4.915h1.321V12.4m4.149,3.879c-1.853-.107-3.393-.182-4.93-.292-.622-.045-.8.164-.572.745.44,1.11.889,2.216,1.3,3.338.2.558.418.6.8.152,1.056-1.239,2.127-2.466,3.4-3.943" transform="translate(-32.851 -3.755)" fill="#040303"/>
        <path id="Trazado_121306" data-name="Trazado 121306" d="M106.082,38.655a3.589,3.589,0,0,1-1.809,3.266c-1.464.893-2.931,1.785-4.434,2.608a3.594,3.594,0,0,1-5.478-2.995,45.163,45.163,0,0,1,0-5.036,3.586,3.586,0,0,1,5.236-3.165c1.524.692,3.018,1.45,4.5,2.225a3.492,3.492,0,0,1,1.988,3.1m-3.579.126c-1.446-.716-2.658-1.311-3.865-1.916-.378-.189-.691-.3-.692.32q0,1.792-.012,3.585c0,.44.164.607.574.366,1.262-.739,2.521-1.486,3.995-2.356" transform="translate(-28.633 -10.007)" fill="#040404"/>
        <path id="Trazado_121307" data-name="Trazado 121307" d="M70.214,23.234c0-1.639-.019-3.279,0-4.918.031-2.074.789-2.816,2.84-2.819q5.4-.007,10.8,0a4.908,4.908,0,0,1,.956.043c.811.162,1.219.446.607,1.356-3.577,5.312-8.008,9.637-13.934,12.274-1.208.538-1.264.507-1.268-.777-.006-1.719,0-3.439,0-5.158" transform="translate(-21.32 -4.705)" fill="#c17945"/>
        <path id="Trazado_121308" data-name="Trazado 121308" d="M83.275,151.593a5.535,5.535,0,0,1-4.1-1.692c-2.787-2.762-5.58-5.521-8.322-8.328a5.738,5.738,0,0,1-.029-8.383q4.1-4.219,8.325-8.325a5.741,5.741,0,0,1,8.384.053q4.158,4.081,8.24,8.24a5.74,5.74,0,0,1,.032,8.378c-2.746,2.8-5.539,5.561-8.32,8.33a5.577,5.577,0,0,1-4.207,1.727m-.008-3.622a2.356,2.356,0,0,0,1.891-.866c2.625-2.634,5.266-5.255,7.883-7.9a2.325,2.325,0,0,0,.019-3.667q-3.967-4.007-7.975-7.974a2.216,2.216,0,0,0-3.478-.045q-4.1,4.044-8.145,8.144a2.143,2.143,0,0,0-.019,3.376c2.7,2.734,5.423,5.436,8.137,8.152a2.194,2.194,0,0,0,1.688.777" transform="translate(-20.958 -37.374)" fill="#040302"/>
        <path id="Trazado_121309" data-name="Trazado 121309" d="M26.477,66.684c2.424-.02,4.186,1.185,5.789,2.9,2.269,2.425,4.689,4.711,7.025,7.075a5.81,5.81,0,0,1,.022,8.653c-2.662,2.718-5.379,5.381-8.061,8.079a6.287,6.287,0,0,1-4.527,1.889,6.507,6.507,0,0,1-4.131-1.952c-2.645-2.666-5.325-5.3-7.96-7.976a5.806,5.806,0,0,1,.018-8.721c2.45-2.467,4.952-4.883,7.357-7.391a7.722,7.722,0,0,1,4.468-2.554m.386,3.695a2.3,2.3,0,0,0-1.666.789c-2.682,2.691-5.381,5.365-8.052,8.066a2.216,2.216,0,0,0-.017,3.479q4.045,4.1,8.145,8.144a2.144,2.144,0,0,0,3.376-.01q4.1-4.043,8.144-8.145a2.216,2.216,0,0,0-.037-3.48c-2.671-2.7-5.371-5.374-8.052-8.066a2.472,2.472,0,0,0-1.839-.777" transform="translate(-3.847 -20.25)" fill="#040302"/>
        <path id="Trazado_121310" data-name="Trazado 121310" d="M125.728,109.185a5.521,5.521,0,0,1-1.681,4.106c-2.794,2.812-5.577,5.636-8.413,8.406a5.707,5.707,0,0,1-8.285-.013q-4.252-4.156-8.408-8.411a5.69,5.69,0,0,1-.071-8.117q4.2-4.375,8.586-8.57a5.659,5.659,0,0,1,8.19.085c2.838,2.768,5.618,5.594,8.412,8.407a5.5,5.5,0,0,1,1.67,4.108M111.575,98.527a2.457,2.457,0,0,0-1.833.838c-2.684,2.691-5.384,5.365-8.055,8.068a2.219,2.219,0,0,0-.012,3.478q4.008,4.054,8.061,8.063a2.215,2.215,0,0,0,3.478.049q4.1-4.043,8.146-8.148a2.194,2.194,0,0,0,0-3.39c-2.7-2.734-5.426-5.437-8.138-8.155a2.528,2.528,0,0,0-1.648-.8" transform="translate(-29.518 -28.81)" fill="#030202"/>
        <path id="Trazado_121311" data-name="Trazado 121311" d="M69.394,109.156a5.735,5.735,0,0,1-1.629,4.045c-2.841,2.879-5.679,5.764-8.583,8.579a5.622,5.622,0,0,1-8.016.063q-4.48-4.265-8.752-8.747a5.629,5.629,0,0,1,.074-7.933q4.216-4.363,8.579-8.582a5.7,5.7,0,0,1,8.116,0c2.87,2.792,5.676,5.651,8.5,8.49a5.835,5.835,0,0,1,1.709,4.081M54.968,98.527a2.424,2.424,0,0,0-1.5.73c-2.75,2.741-5.511,5.472-8.233,8.242a2.169,2.169,0,0,0,.048,3.386q4.051,4.1,8.151,8.153a2.179,2.179,0,0,0,3.39.018q4.109-4.043,8.15-8.154a2.214,2.214,0,0,0-.036-3.484c-2.673-2.705-5.374-5.383-8.061-8.073a2.559,2.559,0,0,0-1.908-.817" transform="translate(-12.394 -28.814)" fill="#030202"/>
        <path id="Trazado_121312" data-name="Trazado 121312" d="M83.342,95.248a5.631,5.631,0,0,1-4.027-1.613c-2.9-2.872-5.821-5.732-8.659-8.669a5.644,5.644,0,0,1-.033-7.932q4.282-4.462,8.751-8.745a5.609,5.609,0,0,1,7.924.05q4.411,4.251,8.662,8.666a5.666,5.666,0,0,1-.038,8.024c-2.809,2.909-5.7,5.744-8.573,8.586a5.7,5.7,0,0,1-4.007,1.634M93.952,81.134a2.663,2.663,0,0,0-.9-1.989c-2.64-2.623-5.261-5.267-7.9-7.889-1.24-1.23-2.4-1.256-3.654-.026q-4.022,3.959-7.981,7.981a2.234,2.234,0,0,0,.028,3.568q3.971,4.01,7.981,7.981a2.233,2.233,0,0,0,3.567.029c2.709-2.668,5.383-5.372,8.074-8.059a2.589,2.589,0,0,0,.791-1.6" transform="translate(-20.957 -20.247)" fill="#030201"/>
        <path id="Trazado_121313" data-name="Trazado 121313" d="M24.208,63.542A7.716,7.716,0,0,0,19.74,66.1c-2.406,2.509-4.908,4.924-7.358,7.392a5.806,5.806,0,0,0-.018,8.721c2.635,2.677,5.314,5.31,7.96,7.976a6.5,6.5,0,0,0,4.131,1.953c.458,2.684,1.21,5.3,1.893,7.928a2.425,2.425,0,0,1,.221,1.268c-.268-.237-.549-.462-.8-.715Q16.5,91.358,7.243,82.093c-2.719-2.721-2.725-5.807-.011-8.525Q15.257,65.531,23.289,57.5a2.823,2.823,0,0,1,2.625-1.121c-.509,1.917-1,3.839-1.54,5.746a4.858,4.858,0,0,0-.166,1.412" transform="translate(-1.579 -17.108)" fill="#c07845"/>
        <path id="Trazado_121314" data-name="Trazado 121314" d="M49.371,63.349a35.953,35.953,0,0,0,15.294,1.285c-1.944,2.032-3.79,4.059-5.757,5.962a1.773,1.773,0,0,1-2.448-.035c-2.364-2.3-4.631-4.7-7.089-7.212" transform="translate(-14.992 -19.237)" fill="#c17945"/>
        <path id="Trazado_121315" data-name="Trazado 121315" d="M119.127,17.862c-1.277,1.477-2.347,2.7-3.4,3.943-.381.446-.594.406-.8-.152-.41-1.121-.859-2.228-1.3-3.338-.231-.581-.05-.79.572-.745,1.537.11,3.077.185,4.93.292" transform="translate(-34.475 -5.334)" fill="#ce966d"/>
        <path id="Trazado_121316" data-name="Trazado 121316" d="M104.092,40.423c-1.474.87-2.732,1.618-3.995,2.356-.411.241-.577.074-.574-.366q.013-1.792.012-3.585c0-.616.314-.51.692-.32,1.207.6,2.42,1.2,3.865,1.916" transform="translate(-30.222 -11.649)" fill="#c48f68"/>
        <path id="Trazado_121317" data-name="Trazado 121317" d="M84.843,149.554a2.194,2.194,0,0,1-1.688-.777c-2.714-2.716-5.441-5.418-8.137-8.152a2.143,2.143,0,0,1,.019-3.376q4.047-4.1,8.145-8.144a2.216,2.216,0,0,1,3.478.045q4.009,3.965,7.975,7.974a2.325,2.325,0,0,1-.019,3.667c-2.618,2.642-5.258,5.262-7.883,7.9a2.356,2.356,0,0,1-1.891.866" transform="translate(-22.534 -38.956)" fill="#c37a45"/>
        <path id="Trazado_121318" data-name="Trazado 121318" d="M28.443,71.989a2.472,2.472,0,0,1,1.839.777c2.681,2.692,5.381,5.365,8.052,8.066a2.216,2.216,0,0,1,.037,3.48q-4.043,4.1-8.144,8.145a2.144,2.144,0,0,1-3.376.01q-4.1-4.044-8.145-8.144a2.216,2.216,0,0,1,.017-3.479c2.672-2.7,5.37-5.375,8.052-8.066a2.3,2.3,0,0,1,1.666-.789" transform="translate(-5.427 -21.861)" fill="#c37a45"/>
        <path id="Trazado_121319" data-name="Trazado 121319" d="M113.161,100.121a2.528,2.528,0,0,1,1.648.8c2.712,2.718,5.441,5.421,8.138,8.155a2.194,2.194,0,0,1,0,3.39q-4.044,4.1-8.146,8.148a2.215,2.215,0,0,1-3.478-.049q-4.054-4.009-8.061-8.063a2.219,2.219,0,0,1,.012-3.478c2.671-2.7,5.372-5.378,8.055-8.068a2.457,2.457,0,0,1,1.833-.838" transform="translate(-31.104 -30.404)" fill="#c37a45"/>
        <path id="Trazado_121320" data-name="Trazado 121320" d="M56.551,100.116a2.559,2.559,0,0,1,1.908.817c2.688,2.69,5.388,5.368,8.061,8.073a2.214,2.214,0,0,1,.036,3.484q-4.039,4.112-8.15,8.154a2.179,2.179,0,0,1-3.39-.018q-4.1-4.05-8.151-8.153a2.169,2.169,0,0,1-.048-3.386c2.721-2.77,5.483-5.5,8.233-8.242a2.424,2.424,0,0,1,1.5-.73" transform="translate(-13.977 -30.402)" fill="#c27a45"/>
        <path id="Trazado_121321" data-name="Trazado 121321" d="M95.532,82.724a2.589,2.589,0,0,1-.791,1.6c-2.691,2.686-5.365,5.391-8.074,8.059A2.233,2.233,0,0,1,83.1,92.35q-4.009-3.971-7.981-7.981A2.234,2.234,0,0,1,75.09,80.8q3.961-4.019,7.981-7.981c1.25-1.23,2.413-1.2,3.654.026,2.642,2.622,5.263,5.266,7.9,7.889a2.663,2.663,0,0,1,.9,1.989" transform="translate(-22.537 -21.837)" fill="#c27a45"/>
      </g>
    </g>
  </g>
</svg>
