<svg xmlns="http://www.w3.org/2000/svg" xmlns:xlink="http://www.w3.org/1999/xlink" width="179" height="179" viewBox="0 0 179 179">
  <defs>
    <clipPath id="clip-path">
      <rect id="Rect치ngulo_35140" data-name="Rect치ngulo 35140" width="111.519" height="117" fill="none"/>
    </clipPath>
  </defs>
  <g id="Grupo_175494" data-name="Grupo 175494" transform="translate(5924 1242)">
    <rect id="Rect치ngulo_33971" data-name="Rect치ngulo 33971" width="179" height="179" rx="18" transform="translate(-5924 -1242)" fill="#fcc02d"/>
    <g id="Grupo_175493" data-name="Grupo 175493" transform="translate(-5890 -1211)">
      <g id="Grupo_175492" data-name="Grupo 175492" clip-path="url(#clip-path)">
        <path id="Trazado_121362" data-name="Trazado 121362" d="M112.079,27.766a6.987,6.987,0,0,0-.045,13.973,6.987,6.987,0,1,0,.045-13.973m.365-12.753a6.983,6.983,0,1,0-7.017,7.033,6.983,6.983,0,0,0,7.017-7.033" transform="translate(-7.531 -0.614)" fill="#fdfdfd"/>
        <path id="Trazado_121363" data-name="Trazado 121363" d="M53.475,0a21.748,21.748,0,0,0,3.851.643A43.23,43.23,0,0,1,92.368,35.536,37.856,37.856,0,0,1,93,44.054c-.046.916.222,1.2,1.08,1.37A15.473,15.473,0,0,1,106.6,58.294a14.924,14.924,0,0,1-.861,8.3c-2.308,5.623-4.083,11.431-6.088,17.158C96.389,93.063,93.212,102.4,90,111.729c-1.261,3.657-3.548,5.27-7.46,5.271H22.8c-3.846,0-6.131-1.6-7.4-5.2Q7.939,90.593.477,69.386c-.911-2.577-.364-5.038.363-7.481a17.266,17.266,0,0,1,6.214-8.93,1.2,1.2,0,0,0,.566-1.383C4.908,35.963,9.137,22.518,20.628,11.547A41.286,41.286,0,0,1,44.128.406C44.729.324,45.4.435,45.934,0ZM24.395,50.33c.054.135.129.14.211.029a1.307,1.307,0,0,0-.121-.116,5.816,5.816,0,0,0-.088-.785,26.761,26.761,0,0,1-.682-8.713,26.3,26.3,0,0,1,50.527-7.584,1.55,1.55,0,0,0,1.1.987,26.056,26.056,0,0,1,5.9,2.661,28.438,28.438,0,0,1,7.041,6.032c.261-.247.157-.486.153-.694A36.307,36.307,0,0,0,86.665,31.5,38.531,38.531,0,0,0,37.217,6.745c-17.6,6-28.6,24.587-25.352,42.791.117.661.329.7.874.518a17.452,17.452,0,0,1,4.023-.753,20.9,20.9,0,0,1,7.633,1.028M86.454,67.612c.408-1.82,1.025-2.325,2.918-2.33,3.693-.009,7.386-.02,11.08.013a1.067,1.067,0,0,0,1.218-.857,11.239,11.239,0,0,0-5.151-13.36,11.039,11.039,0,0,0-13.991,2.794c-1.059,1.291-1.709,1.491-3.278,1.007a8.988,8.988,0,0,0-10.42,3.607c-1.122,1.63-2.134,1.818-3.85.8a9.685,9.685,0,0,0-10.959.228c-1.688,1.1-2.773.9-3.935-.787a9.587,9.587,0,0,0-16.546.657c-1.334,2.3-2.989,2.349-4.572.191-3.3-4.5-7.787-6.469-13.245-5.516-5.648.986-9.208,4.5-10.775,10.052-.3,1.06.026,1.187.972,1.184q12.107-.035,24.215,0c1.968,0,2.757.807,2.764,2.783.008,2.056-.033,4.112.016,6.167a3.361,3.361,0,0,0,4.45,3.188,3.479,3.479,0,0,0,2.383-3.3,2.207,2.207,0,0,1,2.523-2.173,2.328,2.328,0,0,1,2.035,2.588c.013,3.579-.03,7.158.014,10.736a3.367,3.367,0,0,0,4.622,3.291,3.59,3.59,0,0,0,2.192-3.663q.01-8.395,0-16.791c0-2.077.746-2.828,2.808-2.832q6.854-.01,13.707,0c1.908,0,2.47.453,2.933,2.315-.525,1.8-1.128,2.254-3.025,2.257-3.579,0-7.158.032-10.736-.021-.905-.014-1.136.239-1.128,1.133.045,4.759.059,9.519.009,14.277A8.112,8.112,0,0,1,48.3,93.408,8,8,0,0,1,39.879,86.9a18.434,18.434,0,0,1-.131-4.328c.022-.888-.118-1.072-1.042-.788a7.9,7.9,0,0,1-10.262-6.157,21.707,21.707,0,0,1-.115-3.989c-.021-1.768-.006-1.768-1.71-1.768H6.973c-1.451,0-1.452,0-.96,1.4l13.674,38.916c.651,1.851,1.2,2.231,3.194,2.231H82.5c.228,0,.456,0,.685,0a2.291,2.291,0,0,0,2.259-1.6c.367-1,.694-2.011,1.04-3.016q6.321-18.309,12.642-36.62c.45-1.3.446-1.306-.981-1.306-2.931,0-5.863.006-8.795,0-1.793-.006-2.44-.521-2.9-2.257M69.164,32.929c-4.526-7.458-10.845-11.549-19.4-11.44-9.137.116-15.8,4.557-19.638,12.811-3.177,6.829-2.483,13.6,1.238,20.2a14.089,14.089,0,0,1,9.63-4.7c.631-.039.682-.492.867-.884a27.8,27.8,0,0,1,27.3-15.992M51.1,53.018c.155-.295.261-.5.367-.7A17.4,17.4,0,0,1,70.4,43.187a17.141,17.141,0,0,1,9.62,5.494c.264.29.442.735.962.245a16.161,16.161,0,0,1,4.166-2.638c-.244-.308-.443-.583-.663-.839a23.133,23.133,0,0,0-37.815,4.083c-.365.652-.338.946.429,1.19a13.478,13.478,0,0,1,4.005,2.3m23.4-3.065c-6.268-4.842-15.447-2.129-18.242,3.565a14.848,14.848,0,0,1,9.378.924c.459.212.622-.091.84-.32A13.869,13.869,0,0,1,74.5,49.953" transform="translate(0)" fill="#030202"/>
        <path id="Trazado_121364" data-name="Trazado 121364" d="M112.625,29.4a6.986,6.986,0,1,1-7,6.891,6.958,6.958,0,0,1,7-6.891m-.009,4.58a2.357,2.357,0,0,0-2.408,2.352,2.428,2.428,0,0,0,2.44,2.46,2.458,2.458,0,0,0,2.369-2.435,2.4,2.4,0,0,0-2.4-2.377" transform="translate(-8.077 -2.248)" fill="#030303"/>
        <path id="Trazado_121365" data-name="Trazado 121365" d="M112.443,15.013a6.984,6.984,0,1,1-6.94-6.98,7.022,7.022,0,0,1,6.94,6.98m-6.982-2.379a2.393,2.393,0,0,0-2.408,2.373,2.4,2.4,0,1,0,4.809,0,2.368,2.368,0,0,0-2.4-2.368" transform="translate(-7.531 -0.614)" fill="#030303"/>
        <path id="Trazado_121366" data-name="Trazado 121366" d="M86.929,73.21c.461,1.736,1.108,2.252,2.9,2.257,2.931.009,5.863,0,8.795,0,1.427,0,1.43,0,.98,1.3Q93.284,95.087,86.963,113.4c-.347,1-.674,2.018-1.041,3.015a2.29,2.29,0,0,1-2.259,1.6c-.228.006-.456,0-.685,0H23.355c-2,0-2.544-.38-3.194-2.23Q13.323,96.329,6.487,76.87c-.491-1.4-.49-1.4.96-1.4H27.093c1.7,0,1.689,0,1.71,1.769a21.7,21.7,0,0,0,.115,3.988A7.9,7.9,0,0,0,39.18,87.384c.924-.285,1.065-.1,1.043.788a18.377,18.377,0,0,0,.131,4.327,8,8,0,0,0,8.419,6.507,8.113,8.113,0,0,0,7.409-8.147c.05-4.759.036-9.519-.009-14.277-.008-.894.223-1.147,1.127-1.133,3.579.054,7.157.025,10.737.02,1.9,0,2.5-.456,3.025-2.256l5.627,0A2.348,2.348,0,0,0,78.22,75.3c1.431.527,2.59-.249,3.117-2.085l5.592,0" transform="translate(-0.474 -5.598)" fill="#fe7a78"/>
        <path id="Trazado_121367" data-name="Trazado 121367" d="M25.33,50.711A20.894,20.894,0,0,0,17.7,49.682a17.56,17.56,0,0,0-4.023.753c-.545.179-.755.143-.874-.518-3.25-18.2,7.752-36.793,25.352-42.791A38.532,38.532,0,0,1,87.6,31.882a36.276,36.276,0,0,1,1.777,10.645c0,.209.108.448-.153.694a28.415,28.415,0,0,0-7.041-6.032,26.1,26.1,0,0,0-5.9-2.662,1.547,1.547,0,0,1-1.1-.986,26.3,26.3,0,0,0-50.527,7.584,26.786,26.786,0,0,0,.682,8.713,5.952,5.952,0,0,1,.089.785c-.03.03-.061.059-.092.088" transform="translate(-0.935 -0.382)" fill="#fdfdfd"/>
        <path id="Trazado_121368" data-name="Trazado 121368" d="M76.614,71.731l-5.627,0c-.464-1.863-1.025-2.313-2.933-2.315q-6.853-.006-13.706,0c-2.061,0-2.806.754-2.808,2.832q-.008,8.395,0,16.791A3.591,3.591,0,0,1,49.343,92.7a3.367,3.367,0,0,1-4.622-3.291c-.043-3.578,0-7.157-.014-10.736a2.33,2.33,0,0,0-2.035-2.589,2.208,2.208,0,0,0-2.523,2.174,3.477,3.477,0,0,1-2.383,3.3,3.361,3.361,0,0,1-4.45-3.187c-.049-2.055-.007-4.112-.016-6.168-.007-1.975-.8-2.779-2.764-2.782q-12.107-.019-24.215,0c-.946,0-1.271-.124-.972-1.184,1.567-5.548,5.127-9.066,10.775-10.052,5.458-.953,9.948,1.021,13.246,5.515,1.582,2.157,3.238,2.111,4.571-.19a9.587,9.587,0,0,1,16.546-.657c1.162,1.69,2.247,1.889,3.935.787A9.684,9.684,0,0,1,65.382,63.4c1.716,1.016,2.728.828,3.85-.8a8.986,8.986,0,0,1,10.42-3.607c1.569.484,2.218.284,3.278-1.008a11.039,11.039,0,0,1,13.991-2.794,11.241,11.241,0,0,1,5.151,13.361,1.065,1.065,0,0,1-1.218.856c-3.693-.032-7.386-.021-11.08-.012-1.893,0-2.509.51-2.918,2.329l-5.592,0c-.411-1.667-1.14-2.35-2.453-2.3-1.22.048-1.913.774-2.2,2.3" transform="translate(-0.401 -4.114)" fill="#9ec6fc"/>
        <path id="Trazado_121369" data-name="Trazado 121369" d="M71.492,34.709A27.8,27.8,0,0,0,44.188,50.7c-.185.393-.236.845-.868.884a14.088,14.088,0,0,0-9.629,4.7c-3.721-6.607-4.414-13.373-1.238-20.2,3.839-8.254,10.5-12.695,19.637-12.811,8.556-.109,14.874,3.981,19.4,11.44" transform="translate(-2.327 -1.779)" fill="#fdfdfd"/>
        <path id="Trazado_121370" data-name="Trazado 121370" d="M54.947,56.117a13.471,13.471,0,0,0-4.006-2.3c-.767-.244-.792-.538-.428-1.19a23.132,23.132,0,0,1,37.814-4.083c.22.256.42.53.663.839a16.14,16.14,0,0,0-4.165,2.638c-.52.489-.7.045-.962-.245a17.144,17.144,0,0,0-9.62-5.494,17.4,17.4,0,0,0-18.93,9.135l-.366.7" transform="translate(-3.845 -3.099)" fill="#fbfbfb"/>
        <path id="Trazado_121371" data-name="Trazado 121371" d="M79.16,53.882a13.869,13.869,0,0,0-8.024,4.169c-.218.229-.381.532-.84.32a14.848,14.848,0,0,0-9.378-.924c2.8-5.694,11.974-8.407,18.242-3.565" transform="translate(-4.658 -3.929)" fill="#fafafa"/>
        <path id="Trazado_121372" data-name="Trazado 121372" d="M26.506,54.4a1.147,1.147,0,0,1,.12.116c-.082.111-.158.106-.211-.029l.091-.088" transform="translate(-2.02 -4.16)" fill="#fdfdfd"/>
        <path id="Trazado_121373" data-name="Trazado 121373" d="M113,34.359a2.4,2.4,0,0,1,2.4,2.377,2.458,2.458,0,0,1-2.369,2.435,2.428,2.428,0,0,1-2.44-2.46A2.357,2.357,0,0,1,113,34.359" transform="translate(-8.457 -2.627)" fill="#9cc3f9"/>
        <path id="Trazado_121374" data-name="Trazado 121374" d="M105.841,13.015a2.368,2.368,0,0,1,2.4,2.368,2.4,2.4,0,1,1-4.809,0,2.393,2.393,0,0,1,2.408-2.373" transform="translate(-7.91 -0.995)" fill="#9cc2f8"/>
        <path id="Trazado_121375" data-name="Trazado 121375" d="M82.524,73.024c.284-1.527.976-2.252,2.2-2.3,1.313-.051,2.042.633,2.453,2.3-.527,1.836-1.686,2.613-3.117,2.085a2.348,2.348,0,0,1-1.532-2.084" transform="translate(-6.311 -5.408)" fill="#050304"/>
      </g>
    </g>
  </g>
</svg>
