<svg xmlns="http://www.w3.org/2000/svg" xmlns:xlink="http://www.w3.org/1999/xlink" width="179" height="179" viewBox="0 0 179 179">
  <defs>
    <clipPath id="clip-path">
      <rect id="Rect치ngulo_35141" data-name="Rect치ngulo 35141" width="110.879" height="76.619" transform="translate(0 0)" fill="none"/>
    </clipPath>
  </defs>
  <g id="Grupo_175497" data-name="Grupo 175497" transform="translate(5183 1245)">
    <rect id="Rect치ngulo_33975" data-name="Rect치ngulo 33975" width="179" height="179" rx="18" transform="translate(-5183 -1245)" fill="#fcc02d"/>
    <g id="Grupo_175496" data-name="Grupo 175496" transform="translate(-5149 -1194)">
      <g id="Grupo_175495" data-name="Grupo 175495" clip-path="url(#clip-path)">
        <path id="Trazado_121376" data-name="Trazado 121376" d="M110.88,69.5c-.32.068-.314.37-.387.588-1.421,4.165-4.521,6.514-8.9,6.519q-33.714.038-67.426.009c-1.36,0-1.788-.342-2.166-1.621.363-1.393.721-1.635,2.451-1.636H100.7c.361,0,.722.013,1.082,0,3.622-.168,6.185-2.971,5.738-6.267-.324-3.127-2.648-5.148-6-5.155q-10.991-.023-21.981.008c-1.159,0-1.971-.334-2.254-1.535.349-1.435.727-1.733,2.271-1.734,7.355,0,14.709.008,22.063-.007a5.411,5.411,0,0,0,5.22-2.991,4.881,4.881,0,0,0,.694-3.517c-.492-3.052-2.847-4.9-6.274-4.9-7.975-.01-15.954.159-23.923-.068A24.425,24.425,0,0,0,65.1,49.8c-4,2.052-8.168,3.762-12.262,5.621-1.711.74-3.436,1.446-5.123,2.236a2.621,2.621,0,0,1-2.462-.034c-1.769-.872-3.574-1.676-5.364-2.508q-8.04-3.84-16.085-7.673a1.972,1.972,0,0,0-.834-.183c-2.633.029-5.267-.115-7.9.093a13.007,13.007,0,0,0-.639,25.817c4.028.419,8.075.1,12.113.18,1.518.031,1.785.209,2.266,1.635-.5,1.365-.839,1.617-2.3,1.62-3.32.006-6.639.029-9.96,0a16.294,16.294,0,0,1-4.626-31.992,1.288,1.288,0,0,0,.749-.329,9.532,9.532,0,0,1-2.17-4.908,8.707,8.707,0,0,1,3.105-7.9c.357-.317.629-.458.1-.94-4.489-4.05-4.42-9.973.129-13.917a3.26,3.26,0,0,1,.43-.254,9.353,9.353,0,0,1-3.792-6.244A9.033,9.033,0,0,1,18.129.15,28.038,28.038,0,0,1,21.153,0q34.86,0,69.724,0c3.7,0,6.679,1.362,8.533,4.684a8.817,8.817,0,0,1-1.986,11.086c-.191.164-.383.326-.633.539a9.015,9.015,0,0,1,3.486,5.165,8.815,8.815,0,0,1-2.875,8.99c-.277.25-.8.361-.18.914,3.805,3.406,4.389,7.858,1.653,12.12-.07.109-.116.233-.291.591,1.458,0,2.743-.052,4.022.009a8.871,8.871,0,0,1,8.057,6.981c.038.165-.015.37.217.438v3.249c-.873,2.079-1.739,4.162-3.805,5.483a12.625,12.625,0,0,1,2.455,2.665,17.078,17.078,0,0,1,1.35,3.33ZM79.753,10.75l-5.008,3.886c6.04,0,11.784.146,17.515-.058a5.321,5.321,0,0,0,4.946-5.945.64.64,0,0,0,.014-.107c-.084-3.624-4.863-6.655-8.154-5.169a1.359,1.359,0,0,0-.266.184L79.753,10.75m-34.6.016Q40.829,7.184,36.515,3.6a1.43,1.43,0,0,0-.984-.339c-5.327.008-10.656-.039-15.982.023A5.537,5.537,0,0,0,13.786,8.4a1.775,1.775,0,0,0-.074,1.163,5.7,5.7,0,0,0,5.965,5.12q14.778.026,29.557,0c.159,0,.363.085.509-.232l-4.594-3.69M97.2,23.137a5.573,5.573,0,0,0-5.826-5.181c-6.677-.019-13.355,0-20.032-.016a2.027,2.027,0,0,0-1.374.475c-2.078,1.676-4.179,3.324-6.276,4.977-1.325,1.044-1.844,1.036-3.129-.02-1.951-1.6-3.921-3.186-5.844-4.823a2.481,2.481,0,0,0-1.755-.611q-16.459.024-32.918.013c-.4,0-.8-.005-1.189.032A5.512,5.512,0,0,0,13.8,23.14a1.539,1.539,0,0,0-.079,1.153c.475,3.154,2.8,5.06,6.228,5.081,3.315.02,6.63.029,9.945-.008,1.186-.014,1.944.4,2.163,1.613-.412,1.332-.821,1.643-2.257,1.65-3.635.019-7.272-.042-10.905.061a5.4,5.4,0,0,0-5.123,5.158,4.229,4.229,0,0,0,.5,2.912C15.467,43.17,17.518,44,20.127,44q35.339-.039,70.676-.016c.325,0,.65,0,.974-.016A5.562,5.562,0,0,0,97.2,37.66a3.45,3.45,0,0,0-.053-.638c-.739-2.826-2.9-4.387-6.119-4.388q-21.245-.007-42.488,0c-3.677,0-7.353.006-11.029,0-1.45,0-1.882-.334-2.245-1.648.363-1.354.718-1.6,2.366-1.6H90.343c.325,0,.65.012.974,0,3.791-.184,6.22-2.764,5.88-6.237M83.812,3.329H41.48a2,2,0,0,0,.234.321q9.94,8.181,19.872,16.37c.562.465.865.2,1.272-.124q4.7-3.73,9.418-7.447l11.536-9.12M31.274,47.28a6.024,6.024,0,0,0,.531.346c4.709,2.237,9.425,4.458,14.122,6.72a1.488,1.488,0,0,0,1.41-.1q7.134-3.2,14.27-6.4c.309-.139.7-.168.9-.571Z" fill="#030303"/>
        <path id="Trazado_121377" data-name="Trazado 121377" d="M107.524,67.083c.448,3.3-2.116,6.1-5.737,6.267-.36.016-.722,0-1.083,0H34.454c-1.731,0-2.088.242-2.452,1.636l-3.19,0c-.48-1.425-.746-1.6-2.265-1.634-4.038-.083-8.085.239-12.114-.18A12.879,12.879,0,0,1,3.506,62.559c.686.159.854.829,1.225,1.282,2.784,3.4,6.285,5.611,10.721,5.621q43.354.1,86.708.032a8.193,8.193,0,0,0,1.176-.1,8.9,8.9,0,0,0,4.188-2.307" fill="#d9911e"/>
        <path id="Trazado_121378" data-name="Trazado 121378" d="M107.524,67.083a8.9,8.9,0,0,1-4.188,2.307,8.193,8.193,0,0,1-1.176.1q-43.354,0-86.708-.032c-4.436-.01-7.937-2.226-10.721-5.621-.371-.453-.539-1.123-1.225-1.282a12.942,12.942,0,0,1,11.567-15.2c2.631-.208,5.267-.064,7.9-.093a1.949,1.949,0,0,1,.833.183q8.047,3.826,16.086,7.673c-.3.46-.78.295-1.189.3-3.86.011-7.72.005-11.58.007a37.785,37.785,0,0,0-4.953.2,4.327,4.327,0,0,0-3.556,3c-1.307.233-1.973.86-1.9,1.785.083.983.8,1.508,2.125,1.508q26.55,0,53.1.012a1.879,1.879,0,0,0,2.14-1.531h3.21c.283,1.2,1.1,1.539,2.254,1.535q10.991-.038,21.98-.008c3.348.007,5.671,2.028,6,5.155" fill="#f0a520"/>
        <path id="Trazado_121379" data-name="Trazado 121379" d="M35.268,30.979c.363,1.314.794,1.645,2.245,1.649q5.514.012,11.028,0,21.244,0,42.489,0c3.216,0,5.38,1.562,6.12,4.388a3.639,3.639,0,0,1,.052.638c-1.946,2.064-4.386,2.624-7.143,2.619q-34.194-.059-68.386.007c-2.947.006-5.645-.409-7.906-2.438a5.4,5.4,0,0,1,5.123-5.158c3.633-.1,7.27-.042,10.905-.061,1.436-.007,1.845-.318,2.258-1.65h3.215" fill="#5bbff1"/>
        <path id="Trazado_121380" data-name="Trazado 121380" d="M13.794,23.139a5.511,5.511,0,0,1,5.059-5.156c.394-.038.793-.033,1.19-.033q16.46,0,32.918-.012a2.486,2.486,0,0,1,1.755.61c1.923,1.637,3.893,3.22,5.845,4.824,1.284,1.055,1.8,1.063,3.128.019,2.1-1.652,4.2-3.3,6.276-4.977a2.031,2.031,0,0,1,1.374-.474c6.678.014,13.355,0,20.033.015A5.574,5.574,0,0,1,97.2,23.136a1.013,1.013,0,0,0-.637.374,7.084,7.084,0,0,1-5.283,2.029q-35.778-.02-71.557-.012a14.286,14.286,0,0,1-1.5-.094c-1.772-.186-3.089-1.257-4.422-2.294" fill="#f84a46"/>
        <path id="Trazado_121381" data-name="Trazado 121381" d="M52.84,55.422c4.1-1.859,8.267-3.568,12.263-5.62a24.424,24.424,0,0,1,12.242-2.618c7.969.227,15.948.058,23.923.068,3.426,0,5.781,1.847,6.274,4.9a4.884,4.884,0,0,1-.694,3.518c-.5-.013-1.009-.036-1.513-.036q-25.577,0-51.154-.01c-.447,0-.942.179-1.341-.2" fill="#efa420"/>
        <path id="Trazado_121382" data-name="Trazado 121382" d="M83.812,3.328l-11.536,9.12q-4.71,3.723-9.418,7.447c-.408.324-.71.589-1.272.124Q51.671,11.809,41.714,3.65a1.966,1.966,0,0,1-.233-.322Z" fill="#fbc86c"/>
        <path id="Trazado_121383" data-name="Trazado 121383" d="M13.794,23.139c1.333,1.037,2.65,2.108,4.422,2.294a14.286,14.286,0,0,0,1.5.094q35.78.007,71.557.012A7.084,7.084,0,0,0,96.56,23.51a1.013,1.013,0,0,1,.637-.374c.34,3.474-2.089,6.053-5.88,6.237-.324.016-.649.005-.974.005q-26.354,0-52.709,0c-1.647,0-2,.247-2.366,1.6H32.053c-.219-1.212-.978-1.626-2.164-1.613-3.315.037-6.63.028-9.945.008-3.431-.02-5.753-1.927-6.228-5.08a1.541,1.541,0,0,1,.078-1.154" fill="#c03a3a"/>
        <path id="Trazado_121384" data-name="Trazado 121384" d="M13.767,37.847c2.262,2.03,4.96,2.445,7.906,2.439q34.192-.078,68.386-.007c2.757.005,5.2-.555,7.143-2.619a5.561,5.561,0,0,1-5.424,6.307c-.324.015-.649.016-.974.016q-35.338,0-70.676.016c-2.609,0-4.66-.829-5.864-3.239a4.23,4.23,0,0,1-.5-2.913" fill="#42b6e4"/>
        <path id="Trazado_121385" data-name="Trazado 121385" d="M52.84,55.422c.4.38.894.2,1.341.2q25.578.015,51.154.01c.5,0,1.009.023,1.513.036a5.411,5.411,0,0,1-5.22,2.99c-7.354.015-14.709,0-22.063.008-1.544,0-1.922.3-2.271,1.733h-3.21c-.334-1.442-.726-1.734-2.375-1.734q-25.9,0-51.8,0c-.432,0-.863-.025-1.3-.038a4.327,4.327,0,0,1,3.556-3,37.792,37.792,0,0,1,4.953-.2c3.86,0,7.72,0,11.58-.008.409,0,.884.164,1.189-.3,1.79.832,3.594,1.636,5.363,2.508a2.618,2.618,0,0,0,2.462.034c1.687-.789,3.413-1.5,5.123-2.236" fill="#dc941f"/>
        <path id="Trazado_121386" data-name="Trazado 121386" d="M13.787,8.4a5.536,5.536,0,0,1,5.762-5.121c5.327-.061,10.655-.015,15.983-.023a1.426,1.426,0,0,1,.983.339q4.311,3.593,8.634,7.168-13.339.018-26.679.032a4.7,4.7,0,0,1-.739-.114A8.317,8.317,0,0,1,13.787,8.4" fill="#efa420"/>
        <path id="Trazado_121387" data-name="Trazado 121387" d="M13.787,8.4a8.317,8.317,0,0,0,3.944,2.281,4.7,4.7,0,0,0,.739.114q13.34-.009,26.679-.032l4.6,3.69c-.146.317-.351.232-.51.232q-14.778.008-29.556,0a5.7,5.7,0,0,1-5.966-5.12A1.775,1.775,0,0,1,13.787,8.4" fill="#db931f"/>
        <path id="Trazado_121388" data-name="Trazado 121388" d="M31.274,47.28H62.509c-.2.4-.593.432-.9.571q-7.132,3.205-14.27,6.4a1.488,1.488,0,0,1-1.41.1c-4.7-2.262-9.413-4.483-14.122-6.72a6.024,6.024,0,0,1-.531-.346" fill="#f7c46a"/>
        <path id="Trazado_121389" data-name="Trazado 121389" d="M79.754,10.75q4.522-3.6,9.047-7.209a1.29,1.29,0,0,1,.266-.184c3.29-1.486,8.069,1.545,8.154,5.169a.81.81,0,0,1-.015.107c-.323,0-.5.247-.726.421A6.711,6.711,0,0,1,92.5,10.783c-4.249.036-8.5-.016-12.747-.033" fill="#efa420"/>
        <path id="Trazado_121390" data-name="Trazado 121390" d="M79.754,10.75c4.249.017,8.5.069,12.747.033A6.711,6.711,0,0,0,96.48,9.054c.226-.174.4-.419.726-.421a5.32,5.32,0,0,1-4.945,5.945c-5.732.2-11.476.058-17.515.058l5.008-3.886" fill="#db931f"/>
        <path id="Trazado_121391" data-name="Trazado 121391" d="M18.614,58.627c.432.013.863.038,1.3.038l51.8,0c1.649,0,2.042.291,2.376,1.733a1.879,1.879,0,0,1-2.141,1.53q-26.549-.021-53.1-.012c-1.323,0-2.042-.524-2.125-1.508-.078-.925.588-1.551,1.9-1.784" fill="#010100"/>
      </g>
    </g>
  </g>
</svg>
